<?xml version="1.0" encoding="UTF-8" standalone="no"?>
<!DOCTYPE svg PUBLIC "-//W3C//DTD SVG 1.1//EN" "http://www.w3.org/Graphics/SVG/1.1/DTD/svg11.dtd">
<svg width="100%" height="100%" viewBox="0 0 400 400" version="1.1" xmlns="http://www.w3.org/2000/svg" xmlns:xlink="http://www.w3.org/1999/xlink" xml:space="preserve" xmlns:serif="http://www.serif.com/" style="fill-rule:evenodd;clip-rule:evenodd;stroke-linejoin:round;stroke-miterlimit:2;">
    <g transform="matrix(0.5,0,0,0.5,-20.6478,-143.487)">
        <g id="Ebene2">
            <g>
                <text x="62.754px" y="518.261px" style="font-family:'Roboto-Regular', 'Roboto';font-size:150px;">L<tspan x="125.467px 189.058px 253.749px 287.824px 382.544px 444.011px 462.413px 493.412px " y="518.261px 518.261px 518.261px 518.261px 518.261px 518.261px 518.261px 518.261px ">aufweite</tspan></text>
                <text x="62.754px" y="668.261px" style="font-family:'Roboto-Regular', 'Roboto';font-size:150px;">L<tspan x="134.467px 207.058px 280.749px 323.824px 427.544px 498.011px 525.413px 565.412px " y="668.261px 668.261px 668.261px 668.261px 668.261px 668.261px 668.261px 668.261px ">aufweite</tspan></text>
                <text x="62.754px" y="818.261px" style="font-family:'Roboto-Regular', 'Roboto';font-size:150px;">Laufweite</text>
                <text x="62.754px" y="968.261px" style="font-family:'Roboto-Regular', 'Roboto';font-size:150px;">L<tspan x="155.467px 249.058px 343.749px 407.824px 532.544px 624.011px 672.413px 733.412px " y="968.261px 968.261px 968.261px 968.261px 968.261px 968.261px 968.261px 968.261px ">aufweite</tspan></text>
            </g>
        </g>
    </g>
</svg>
