<?xml version="1.0" encoding="UTF-8" standalone="no"?>
<!DOCTYPE svg PUBLIC "-//W3C//DTD SVG 1.1//EN" "http://www.w3.org/Graphics/SVG/1.1/DTD/svg11.dtd">
<svg width="100%" height="100%" viewBox="0 0 400 400" version="1.1" xmlns="http://www.w3.org/2000/svg" xmlns:xlink="http://www.w3.org/1999/xlink" xml:space="preserve" xmlns:serif="http://www.serif.com/" style="fill-rule:evenodd;clip-rule:evenodd;stroke-linejoin:round;stroke-miterlimit:2;">
    <g transform="matrix(1,0,0,1,6.2,6.5)">
        <text x="0px" y="33.467px" style="font-family:'RobotoSerif28pt-ExtraLight', 'Roboto Serif 28pt';font-weight:250;font-size:16.667px;stroke:black;stroke-width:0.83px;">Rob<tspan x="31.083px 40.867px 46.717px 56.5px 60.85px 71.467px 80.367px 86.85px 91.85px 98.233px 102.583px 112.95px 122.483px 128.45px 134.883px 143.883px 153.917px 158.917px 168.35px 178.75px " y="33.467px 33.467px 33.467px 33.467px 33.467px 33.467px 33.467px 33.467px 33.467px 33.467px 33.467px 33.467px 33.467px 33.467px 33.467px 33.467px 33.467px 33.467px 33.467px 33.467px ">oto Serif ExtraLight</tspan></text>
        <text x="0px" y="54.3px" style="font-family:'RobotoSerif28pt-ExtraLightItalic', 'Roboto Serif 28pt';font-weight:250;font-style:italic;font-size:16.667px;stroke:black;stroke-width:0.83px;">Robo<tspan x="39.233px 45.033px 54.4px 58.767px 69.2px 77.333px 83.767px 88.6px 94.517px 98.883px 109.067px 117.333px 123.3px 129.333px 138.8px 148.767px 153.6px 162.833px 172.75px 178.667px 183.033px 188.733px 194.517px 203.95px 208.533px 213.367px " y="54.3px 54.3px 54.3px 54.3px 54.3px 54.3px 54.3px 54.3px 54.3px 54.3px 54.3px 54.3px 54.3px 54.3px 54.3px 54.3px 54.3px 54.3px 54.3px 54.3px 54.3px 54.3px 54.3px 54.3px 54.3px 54.3px ">to Serif ExtraLight Italic</tspan></text>
        <text x="0px" y="75.133px" style="font-family:'RobotoSerif28pt-Regular', 'Roboto Serif 28pt';font-size:16.667px;stroke:black;stroke-width:0.83px;">Rob<tspan x="32.733px 43.117px 49.317px 59.7px 64.05px 74.817px 84.133px 91.15px 96.617px 103.2px 107.55px " y="75.133px 75.133px 75.133px 75.133px 75.133px 75.133px 75.133px 75.133px 75.133px 75.133px 75.133px ">oto Serif R</tspan>eg<tspan x="137.9px 148.45px 153.767px 162.95px " y="75.133px 75.133px 75.133px 75.133px ">ular</tspan></text>
        <text x="0px" y="95.967px" style="font-family:'RobotoSerif28pt-Italic', 'Roboto Serif 28pt';font-style:italic;font-size:16.667px;stroke:black;stroke-width:0.83px;">Rob<tspan x="31.383px 41.25px 47.433px 57.3px 61.65px 72.1px 80.683px 87.817px 93.2px 99.6px 103.95px " y="95.967px 95.967px 95.967px 95.967px 95.967px 95.967px 95.967px 95.967px 95.967px 95.967px 95.967px ">oto Serif I</tspan>ta<tspan x="126.55px 131.683px 137.067px " y="95.967px 95.967px 95.967px ">lic</tspan></text>
        <text x="0px" y="116.8px" style="font-family:'RobotoSerif28pt-Medium', 'Roboto Serif 28pt';font-weight:500;font-size:16.667px;stroke:black;stroke-width:0.83px;">R<tspan x="11.733px 22.283px 33.317px 43.883px 50.25px 60.817px 65.167px 76px 85.517px 92.767px 98.317px 105.117px 109.467px 125.383px 134.967px 145.95px 151.5px 162.25px " y="116.8px 116.8px 116.8px 116.8px 116.8px 116.8px 116.8px 116.8px 116.8px 116.8px 116.8px 116.8px 116.8px 116.8px 116.8px 116.8px 116.8px 116.8px ">oboto Serif Medium</tspan></text>
        <text x="0px" y="137.633px" style="font-family:'RobotoSerif28pt-MediumItalic', 'Roboto Serif 28pt';font-weight:500;font-style:italic;font-size:16.667px;stroke:black;stroke-width:0.83px;">R<tspan x="11.65px 21.783px 32.117px 42.267px 48.583px 58.733px 63.083px 73.583px 82.383px 89.717px 95.2px 101.983px 106.333px " y="137.633px 137.633px 137.633px 137.633px 137.633px 137.633px 137.633px 137.633px 137.633px 137.633px 137.633px 137.633px 137.633px ">oboto Serif M</tspan>ed<tspan x="141.617px 147.1px 157.7px 172.783px 177.133px " y="137.633px 137.633px 137.633px 137.633px 137.633px ">ium I</tspan>ta<tspan x="200.2px 205.467px 210.95px " y="137.633px 137.633px 137.633px ">lic</tspan></text>
        <text x="0px" y="158.467px" style="font-family:'RobotoSerif28pt-Bold', 'Roboto Serif 28pt';font-weight:700;font-size:16.667px;stroke:black;stroke-width:0.83px;">R<tspan x="12.233px 23.167px 34.483px 45.417px 52.133px 63.067px 67.417px 78.4px 88.35px 96.1px 101.8px 109.017px 113.367px 125.633px 136.567px 142.2px " y="158.467px 158.467px 158.467px 158.467px 158.467px 158.467px 158.467px 158.467px 158.467px 158.467px 158.467px 158.467px 158.467px 158.467px 158.467px 158.467px ">oboto Serif Bold</tspan></text>
        <text x="0px" y="179.3px" style="font-family:'RobotoSerif28pt-BoldItalic', 'Roboto Serif 28pt';font-weight:700;font-style:italic;font-size:16.667px;stroke:black;stroke-width:0.83px;">R<tspan x="12.017px 22.683px 33.583px 44.3px 50.867px 61.583px 65.933px 76.533px 85.783px 93.517px 99.183px 106.75px 111.1px 123.217px 133.883px 139.383px 150.467px 154.817px " y="179.3px 179.3px 179.3px 179.3px 179.3px 179.3px 179.3px 179.3px 179.3px 179.3px 179.3px 179.3px 179.3px 179.3px 179.3px 179.3px 179.3px 179.3px ">oboto Serif Bold I</tspan>tal<tspan x="184.35px 190.017px " y="179.3px 179.3px ">ic</tspan></text>
        <text x="0px" y="200.133px" style="font-family:'RobotoSerif28ptCondensed-Black', 'Roboto Serif 28pt Condensed';font-weight:900;font-stretch:condensed;font-size:16.667px;stroke:black;stroke-width:0.83px;">R<tspan x="11.683px 22.067px 32.683px 43.067px 49.617px 60px 63.9px 73.933px 83.483px 91.133px 96.567px 103.617px 107.517px 118.333px 128.717px 139.417px 150px 159.55px 170.25px 178.783px 188.333px 198.917px 202.817px 214.567px 219.983px 229.633px 238.883px " y="200.133px 200.133px 200.133px 200.133px 200.133px 200.133px 200.133px 200.133px 200.133px 200.133px 200.133px 200.133px 200.133px 200.133px 200.133px 200.133px 200.133px 200.133px 200.133px 200.133px 200.133px 200.133px 200.133px 200.133px 200.133px 200.133px 200.133px ">oboto Serif Condensed Black</tspan></text>
        <text x="0px" y="220.967px" style="font-family:'RobotoSerif28ptCondensed-BlackItalic', 'Roboto Serif 28pt Condensed';font-weight:900;font-style:italic;font-stretch:condensed;font-size:16.667px;stroke:black;stroke-width:0.83px;">R<tspan x="11.283px 21.583px 32.183px 42.567px 48.933px 59.317px 63.217px 72.967px 82.15px 89.717px 95.233px 102.883px 106.783px 117.6px 127.983px 138.517px 149.183px 158.367px 168.983px " y="220.967px 220.967px 220.967px 220.967px 220.967px 220.967px 220.967px 220.967px 220.967px 220.967px 220.967px 220.967px 220.967px 220.967px 220.967px 220.967px 220.967px 220.967px 220.967px ">oboto Serif Condens</tspan>ed <tspan x="201.017px 212.483px 217.95px 228.467px 237.683px 248.483px 252.383px 258.733px 265.033px 275.55px 281.017px 286.533px " y="220.967px 220.967px 220.967px 220.967px 220.967px 220.967px 220.967px 220.967px 220.967px 220.967px 220.967px 220.967px ">Black Italic</tspan></text>
        <text x="0px" y="241.8px" style="font-family:'RobotoSerif28ptExpanded-ExtraLight', 'Roboto Serif 28pt Expanded';font-weight:250;font-stretch:expanded;font-size:16.667px;stroke:black;stroke-width:0.83px;">Rob<tspan x="33.083px 43.55px 49.783px 60.25px 64.95px 76.317px 85.833px 92.683px 97.85px 104.6px 109.3px 120.433px 130.317px 141.5px 151.1px 162.133px 173.15px 182.7px 193.767px 198.467px 209.6px 219.65px 226.033px 232.8px 242.4px 253.117px 258.283px 268.4px 279.4px " y="241.8px 241.8px 241.8px 241.8px 241.8px 241.8px 241.8px 241.8px 241.8px 241.8px 241.8px 241.8px 241.8px 241.8px 241.8px 241.8px 241.8px 241.8px 241.8px 241.8px 241.8px 241.8px 241.8px 241.8px 241.8px 241.8px 241.8px 241.8px 241.8px ">oto Serif Expanded ExtraLight</tspan></text>
        <text x="0px" y="262.633px" style="font-family:'RobotoSerif28ptExpanded-ExtraLightItalic', 'Roboto Serif 28pt Expanded';font-weight:250;font-style:italic;font-stretch:expanded;font-size:16.667px;stroke:black;stroke-width:0.83px;">R<tspan x="11.633px 21.483px 31.783px 41.817px 47.967px 58px 62.733px 73.95px 82.683px 89.5px 94.517px 100.667px 105.4px 116.3px 125.2px 135.7px 145.783px 156.317px 166.817px 175.6px 186.1px 190.833px 201.733px 210.583px 216.95px 223.317px 233.4px 243.8px 248.867px 258.75px 269.25px 275.567px 280.3px " y="262.633px 262.633px 262.633px 262.633px 262.633px 262.633px 262.633px 262.633px 262.633px 262.633px 262.633px 262.633px 262.633px 262.633px 262.633px 262.633px 262.633px 262.633px 262.633px 262.633px 262.633px 262.633px 262.633px 262.633px 262.633px 262.633px 262.633px 262.633px 262.633px 262.633px 262.633px 262.633px 262.633px ">oboto Serif Expanded ExtraLight I</tspan>ta<tspan x="302.383px 307.15px 312.2px " y="262.633px 262.633px 262.633px ">lic</tspan></text>
        <text x="0px" y="283.467px" style="font-family:'RobotoSerif28ptExpanded-Regular', 'Roboto Serif 28pt Expanded';font-stretch:expanded;font-size:16.667px;stroke:black;stroke-width:0.83px;">Rob<tspan x="34.85px 45.883px 52.517px 63.55px 68.283px 79.7px 89.617px 97.083px 102.833px 109.833px 114.567px 126.25px 136.533px 148.283px 158.133px 169.8px 181.4px 191.4px 203px 207.733px " y="283.467px 283.467px 283.467px 283.467px 283.467px 283.467px 283.467px 283.467px 283.467px 283.467px 283.467px 283.467px 283.467px 283.467px 283.467px 283.467px 283.467px 283.467px 283.467px 283.467px ">oto Serif Expanded R</tspan>eg<tspan x="240.2px 251.467px 257.067px 266.917px " y="283.467px 283.467px 283.467px 283.467px ">ular</tspan></text>
        <text x="0px" y="304.3px" style="font-family:'RobotoSerif28ptExpanded-Medium', 'Roboto Serif 28pt Expanded';font-weight:500;font-stretch:expanded;font-size:16.667px;stroke:black;stroke-width:0.83px;">Rob<tspan x="35.667px 46.967px 53.817px 65.117px 69.85px 81.417px 91.617px 99.4px 105.283px 112.55px 117.283px 129.083px 139.533px 151.467px 161.633px 173.517px 185.333px 195.617px 207.433px 212.167px 229.383px 239.667px 251.483px 257.367px 268.9px " y="304.3px 304.3px 304.3px 304.3px 304.3px 304.3px 304.3px 304.3px 304.3px 304.3px 304.3px 304.3px 304.3px 304.3px 304.3px 304.3px 304.3px 304.3px 304.3px 304.3px 304.3px 304.3px 304.3px 304.3px 304.3px ">oto Serif Expanded Medium</tspan></text>
        <text x="0px" y="325.133px" style="font-family:'RobotoSerif28ptExpanded-MediumItalic', 'Roboto Serif 28pt Expanded';font-weight:500;font-style:italic;font-stretch:expanded;font-size:16.667px;stroke:black;stroke-width:0.83px;">R<tspan x="12.433px 23.217px 34.233px 45.067px 51.75px 62.583px 67.283px 78.483px 87.867px 95.633px 101.433px 108.467px 113.167px 124.667px 134.217px 145.5px 156.55px 167.9px 179.35px 188.733px 200.183px 204.883px 221.817px 231.2px 242.65px 248.45px 259.767px 275.95px 280.65px " y="325.133px 325.133px 325.133px 325.133px 325.133px 325.133px 325.133px 325.133px 325.133px 325.133px 325.133px 325.133px 325.133px 325.133px 325.133px 325.133px 325.133px 325.133px 325.133px 325.133px 325.133px 325.133px 325.133px 325.133px 325.133px 325.133px 325.133px 325.133px 325.133px ">oboto Serif Expanded Medium I</tspan>ta<tspan x="305.1px 310.683px 316.483px " y="325.133px 325.133px 325.133px ">lic</tspan></text>
        <text x="0px" y="345.967px" style="font-family:'RobotoSerif28ptExpanded-ExtraBold', 'Roboto Serif 28pt Expanded';font-weight:800;font-stretch:expanded;font-size:16.667px;stroke:black;stroke-width:0.83px;">R<tspan x="13.617px 25.65px 38.133px 50.217px 57.667px 69.75px 74.5px 86.467px 97.517px 106.217px 112.483px 120.567px 125.317px 137.45px 148.4px 160.867px 171.967px 184.483px 196.917px 208.017px 220.45px 225.2px 237.333px 248.5px 256.233px 264.65px 275.75px 289.417px 301.45px 307.683px " y="345.967px 345.967px 345.967px 345.967px 345.967px 345.967px 345.967px 345.967px 345.967px 345.967px 345.967px 345.967px 345.967px 345.967px 345.967px 345.967px 345.967px 345.967px 345.967px 345.967px 345.967px 345.967px 345.967px 345.967px 345.967px 345.967px 345.967px 345.967px 345.967px 345.967px ">oboto Serif Expanded ExtraBold</tspan></text>
        <text x="0px" y="366.8px" style="font-family:'RobotoSerif28ptExpanded-ExtraBoldItalic', 'Roboto Serif 28pt Expanded';font-weight:800;font-style:italic;font-stretch:expanded;font-size:16.667px;stroke:black;stroke-width:0.83px;">R<tspan x="13.3px 25.183px 37.25px 49.2px 56.4px 68.35px 73.083px 84.583px 94.85px 103.433px 109.667px 118.083px 122.817px 134.367px 145.35px 157.483px 169.517px 181.717px 194px 204.117px 216.4px 221.133px 232.683px 243.883px 251.517px 259.75px 271.783px 285.217px 297.1px 303.283px 315.567px 320.3px 327.683px 334.867px 346.883px 353.067px 359.3px " y="366.8px 366.8px 366.8px 366.8px 366.8px 366.8px 366.8px 366.8px 366.8px 366.8px 366.8px 366.8px 366.8px 366.8px 366.8px 366.8px 366.8px 366.8px 366.8px 366.8px 366.8px 366.8px 366.8px 366.8px 366.8px 366.8px 366.8px 366.8px 366.8px 366.8px 366.8px 366.8px 366.8px 366.8px 366.8px 366.8px 366.8px ">oboto Serif Expanded ExtraBold Italic</tspan></text>
    </g>
    <g id="Ebene1">
    </g>
</svg>
