<?xml version="1.0" encoding="UTF-8" standalone="no"?>
<!DOCTYPE svg PUBLIC "-//W3C//DTD SVG 1.1//EN" "http://www.w3.org/Graphics/SVG/1.1/DTD/svg11.dtd">
<svg width="100%" height="100%" viewBox="0 0 400 600" version="1.1" xmlns="http://www.w3.org/2000/svg" xmlns:xlink="http://www.w3.org/1999/xlink" xml:space="preserve" xmlns:serif="http://www.serif.com/" style="fill-rule:evenodd;clip-rule:evenodd;stroke-linecap:round;stroke-linejoin:round;stroke-miterlimit:1.5;">
    <g id="Ebene1">
        <path d="M146.702,501.119C146.555,500.593 147.691,517.384 146.751,522.318C145.295,529.96 147.96,573.635 145.15,575.241C134.028,581.596 122.618,584.186 109.689,583.827C104.4,583.68 100.504,581.676 95.718,580.48C94.792,580.248 92.905,579.946 92.905,579.946C92.905,579.946 102.091,581.467 106.73,581.595C115.704,581.845 125.31,581.565 134.09,579.558C137.961,578.673 138.783,578.394 142.676,579.073C144.054,579.313 147.668,579.769 146.848,578.636C146.479,578.126 146.022,577.618 145.441,577.375C144.849,577.128 104.364,586.816 89.558,579.413C89.455,579.361 96.643,573.881 97.901,573.252C105.294,569.556 111.925,562.924 118.227,570.196C124.32,577.226 106.87,569.037 110.854,565.054C110.951,564.956 114.332,570.345 114.977,571.312C115.418,571.974 119.41,577.89 119.149,578.151C118.933,578.367 117.252,576.296 117.16,576.211C113.23,572.602 111.048,569.873 113.91,564.763C125.324,544.38 130.689,565.879 141.415,565.879C142.284,565.879 139.686,565.656 138.844,565.442C137.101,565 135.399,564.477 133.653,564.084C129.402,563.127 119.665,560.985 120.75,554.479C120.995,553.008 123.683,555.037 125.115,555.449C128.136,556.318 150.183,566.362 136.952,563.502C134.545,562.981 132.245,562.094 129.918,561.319C126.737,560.258 123.931,559.338 122.011,556.371C118.425,550.829 133.804,540.268 137.097,537.064C138.137,536.053 147.017,525.623 147.77,526.877C151.038,532.324 127.138,546.691 122.981,549.289C122.621,549.514 121.914,550.404 121.623,550.259C121.508,550.201 126.89,545.303 130.452,541.915C131.653,540.773 145.016,527.035 146.169,528.187C148.258,530.276 145.641,547.59 143.016,548.027C135.061,549.353 127.605,539.515 121.865,535.415C118.5,533.011 111.096,529.254 111.096,529.254C111.096,529.254 117.463,535.525 121.332,537.646C128.819,541.752 137.359,542.079 143.452,548.173C144.11,548.83 141.628,547.802 140.736,547.542C137.812,546.692 135.034,545.668 132.392,544.147C125.349,540.092 121.002,533.773 114.443,529.4C114.232,529.259 113.445,528.807 113.134,528.963C113.011,529.025 112.926,529.326 112.891,529.448C112.294,531.536 127.426,556.297 119.44,545.117C118.437,543.713 117.839,542.113 116.917,540.654C115.662,538.666 114.207,536.833 113.037,534.784C111.226,531.616 109.208,528.654 107.215,525.665C106.698,524.888 122.208,514.879 124.048,514.023C127.547,512.395 141.127,500.175 144.956,502.089C147.382,503.302 139.165,510.235 138.65,510.676C134.231,514.452 109.79,523.62 108.719,525.762C108.714,525.772 109.169,525.637 109.204,525.616C112.43,523.681 115.377,521.489 118.809,519.892C119.438,519.6 120.144,519.183 120.701,518.777C128.908,512.788 148.513,498.146 145.296,511.015C144.979,512.28 144.833,512.239 143.404,511.985C130.378,509.674 120.234,499.917 106.585,500.537C101.732,500.758 103.797,502.762 103.674,507.668C103.539,513.071 102.391,518.396 103.723,523.724C104.324,526.131 104.633,518.754 104.256,516.303C103.834,513.557 100.124,504.113 102.316,501.701C105.338,498.377 114.138,500.684 118.033,499.858C129.774,497.368 163.671,499.249 175.808,502.284C176.998,502.581 193.828,503.784 194.291,504.709C194.609,505.347 180.397,510.348 179.35,510.724C172.532,513.171 164.856,517.276 159.024,521.833C156.117,524.103 149.079,526.683 149.079,526.683C149.079,526.683 156.582,523.471 160.431,522.124C167.827,519.535 175.836,514.112 181.921,509.269C184.362,507.326 188.005,504.955 191.04,504.127C191.098,504.111 191.918,504.135 191.865,504.03C191.828,503.956 182.711,508.594 181.678,509.172C180.113,510.047 178.552,510.939 176.924,511.694C169.723,515.034 159.798,520.863 153.009,522.221C151.932,522.436 147.266,525.938 146.896,525.568C146.566,525.238 146.91,524.028 146.945,523.676C147.588,517.246 144.495,511.561 145.635,505.291C145.671,505.092 145.884,502.649 146.363,502.769C146.905,502.904 147.394,503.635 147.721,503.981C157.481,514.304 170.227,521.945 183.036,526.926C183.57,527.134 186.245,528.222 186.772,527.169C186.918,526.876 186.405,526.108 186.286,525.907C181.556,517.865 169.539,515.117 161.352,511.791C160.507,511.448 149.992,504.864 150.05,504.806C150.521,504.334 154.172,507.192 154.755,507.571C163.287,513.116 174.088,522.522 184.54,524.015C191.216,524.969 194.391,509.712 192.399,505.728C192.247,505.425 192.38,506.109 192.399,506.164C193.816,510.416 191.441,516.007 190.458,520.135C187.793,531.331 185.203,546.943 179.98,557.39C179.737,557.875 179.274,558.579 178.67,558.699C174.871,559.459 170.034,554.818 167.465,552.587C162.718,548.465 146.347,536.546 148.982,533.911C149.348,533.546 150.722,534.229 150.971,534.348C155.568,536.54 174.245,557.371 179.641,554.673C181.463,553.762 188.36,533.735 185.316,532.213C181.585,530.348 169.613,539.918 166.203,541.867C162.513,543.976 150.674,555.352 147.042,555.352C146.94,555.352 147.317,555.114 147.333,555.11C150.864,554.101 153.616,553.673 156.889,551.811C163.023,548.324 170.473,545.031 175.566,540.12C176.613,539.11 179.058,537.501 179.058,537.501C179.058,537.501 172.412,542.449 168.726,544.292C163.66,546.825 150.841,548.788 147.382,552.248C145.627,554.002 147.923,561.073 147.527,563.647C147.35,564.798 146.739,574.599 147.673,575.532C149.284,577.143 158.876,565.734 161.304,565.005C165.685,563.691 169.758,561.643 173.965,559.96C176.418,558.979 183.207,558.918 181.338,557.05C179.192,554.904 176.941,561.357 174.256,562.774C169.648,565.206 162.75,564.149 157.714,565.588C156.277,565.998 149.478,570.74 149.079,570.341C148.81,570.072 152.847,567.522 161.401,562.58C172.343,556.258 181.999,557.031 191.04,566.073C191.321,566.353 189.813,568.35 189.779,568.401C189.013,569.541 173.49,581.994 174.062,582.566C177.674,586.177 186.998,567.237 188.372,567.237C189.028,567.237 188.424,570.147 189.1,570.147C192.675,570.147 196.805,571.157 200.306,571.991C200.417,572.017 214.186,573.316 209.62,577.23C201.248,584.405 176.973,581.012 166.785,579.607C165.557,579.437 150.001,575.155 150.001,576.162C150.001,578.631 162.462,580.218 164.069,580.237C172.087,580.33 197.633,572.275 203.605,580.237C205.426,582.666 188.332,581.031 187.16,580.868C176.698,579.415 162.936,582.381 153.639,576.405C153.336,576.21 151.941,576.402 151.941,576.162C151.941,575.176 153.488,577.412 154.367,577.86C156.652,579.025 158.527,579.508 161.061,579.849C168.509,580.852 176.056,578.602 183.424,579.655C186.979,580.163 191.148,579.671 194.485,581.062C194.51,581.072 195.503,581.032 195.503,580.965C195.503,578.65 185.206,579.291 183.812,579.364C178.082,579.666 149.371,577.231 146.654,571.797C145.793,570.075 147.841,529.876 147.964,525.471C148.104,520.412 147.792,513.541 146.46,508.881C145.808,506.599 145.732,499.425 145.732,501.798" style="fill:none;stroke:black;stroke-width:2.5px;"/>
        <path d="M187.014,501.944C191.053,501.944 216.839,502.187 218.497,500.198C223.158,494.604 217.383,476.174 218.4,469.055C218.571,467.857 219.076,465.465 217.866,465.465C217.426,465.465 217.911,470.105 217.915,470.171C218.125,474.056 220.399,498.982 213.986,500.586C211.447,501.22 207.161,488.861 206.079,486.858C203.133,481.409 198.511,472.822 198.511,466.484C198.511,466.053 198.261,463.04 197.492,463.04C197.163,463.04 197.458,470.314 197.492,471.286C197.51,471.788 197.536,472.291 197.589,472.79C197.971,476.382 198.399,479.848 198.462,483.462C198.481,484.543 199.008,500.234 196.716,499.47C193.655,498.45 185.098,470.497 184.298,466.096C183.433,461.341 184.465,454.066 184.395,454.066C182.275,454.066 184.637,458.301 184.637,460.42C184.637,464.666 185.408,495.155 181.775,496.365C179.725,497.049 179.575,482.97 179.398,481.57C178.294,472.861 175.178,463.447 175.178,454.696C175.178,454.082 175.187,455.926 175.226,456.54C175.502,460.845 175.731,465.183 175.372,469.492C174.74,477.076 175.747,499.382 173.868,500.634C173.051,501.179 168.516,490.194 168.241,488.895C166.614,481.226 165.554,473.454 163.778,465.756C162.921,462.042 161.498,454.551 161.498,454.551C161.498,454.551 162.864,461.964 162.808,465.708C162.688,473.576 163.168,481.541 162.565,489.38C162.467,490.65 162.436,502.161 160.625,501.798C150.464,499.766 148.05,473.953 147.721,466.387C147.572,462.96 146.124,458.985 146.605,455.618C146.811,454.178 148.69,451.301 147.236,451.301C146.525,451.301 148.023,451.787 146.702,461.827C145.777,468.857 146.216,491.274 140.784,496.705C140.038,497.452 138.366,496.553 137.777,496.074C128.996,488.941 134.347,469.992 126.959,462.603C126.099,461.744 127.573,464.957 127.832,466.144C128.317,468.37 128.261,470.54 128.366,472.839C128.848,483.441 128.45,499.017 125.698,499.567C120.822,500.542 113.521,472.698 113.764,467.842C113.838,466.356 113.813,463.379 113.813,463.379C113.813,463.379 113.738,466.516 113.764,468.085C113.87,474.512 116.16,492.409 109.738,496.996C107.757,498.411 102.862,478.931 102.558,477.738C102.451,477.316 102.318,476.901 102.219,476.477C102.079,475.881 101.94,475.284 101.831,474.682C101.781,474.41 101.77,474.132 101.734,473.857C101.706,473.647 101.673,473.436 101.637,473.227C101.592,472.967 101.526,472.712 101.491,472.451C101.426,471.963 101.497,472.667 101.54,472.984C101.794,474.875 102.277,476.651 102.752,478.514C103.343,480.831 103.562,483.215 104.062,485.548C104.78,488.896 106.127,494.752 105.275,498.16C104.776,500.156 95.445,498.255 94.457,496.608C92.983,494.151 88.099,468.715 90.14,468.715C90.649,468.715 93.086,467.878 93.342,468.133C93.961,468.753 78.4,472.474 78.546,472.693C80.195,475.166 97.349,467.484 99.599,466.775C120.104,460.32 137.72,442.792 159.606,440.968C166.2,440.419 170.782,447.834 176.439,450.234C191.212,456.501 205.903,462.439 221.359,467.357C222.547,467.735 232.311,473.732 233.826,472.596C239.596,468.269 239.612,458.251 241.2,452.125C245.488,435.586 241.203,389.567 238.241,371.795C237.07,364.769 238.667,357.007 236.931,350.063C236.911,349.982 236.518,347.443 236.494,347.443C235.21,347.443 234.573,350.336 231.886,349.529C219.367,345.774 211.71,306.36 207.194,295.636C205.195,290.888 197.047,279.711 198.414,274.244C198.925,272.198 218.683,257.403 222.378,261.098C225.427,264.147 218.812,289.868 218.352,295.393C218.296,296.06 217.854,297.597 218.934,297.867C219.78,298.079 221.14,288.815 221.214,287.535C221.615,280.503 222.084,274.537 223.639,267.695C223.916,266.476 224.318,264.008 224.318,264.008C224.318,264.008 225.038,265.564 225.725,265.997C231.627,269.725 240.758,271.952 247.069,269.247C248.286,268.726 250.659,267.549 250.659,267.549C250.659,267.549 250.333,268.706 250.223,269.296C249.188,274.815 246.615,280.698 249.204,286.274C251.052,290.253 255.559,297.006 255.559,301.36C255.559,307.331 249.933,310.328 248.864,314.603C247.566,319.796 251.76,325.18 250.125,331.484C249.599,333.515 248.141,335.142 246.681,336.529C245.516,337.636 240.783,343.175 239.114,343.175C236.12,343.175 237.54,337.217 235.67,334.88C235.496,334.663 233.96,332.242 233.438,332.503C233.43,332.507 235.201,334.772 235.378,334.977C235.88,335.555 240.478,341.064 240.132,342.447C239.926,343.273 229.939,343.945 234.214,348.22" style="fill:none;stroke:black;stroke-width:2.5px;"/>
        <path d="M247.749,269.393C247.166,271.14 248.956,265.912 249.64,264.202C251.146,260.439 253.729,257.142 255.316,253.967C256.376,251.847 252.949,249.624 251.678,248.534C250.949,247.909 248.394,246.552 249.252,246.982C261.864,253.287 244.238,256.123 238.047,254.695C234.116,253.788 226.602,244.895 222.96,246.109C222.658,246.209 224.514,250.384 224.561,250.523C225.968,254.744 226.436,258.621 227.374,262.844C227.395,262.935 227.323,263.352 226.986,263.184C225.752,262.567 225.609,258.954 225.337,257.751C222.566,245.478 232.856,248.005 232.856,236.892C232.856,235.785 229.966,236.122 229.121,234.854C226.51,230.939 220.618,221.114 221.65,216.47C223.052,210.161 233.075,208.039 237.901,205.895C241.107,204.47 238.792,211.868 235.476,213.026C234.437,213.388 222.548,215.997 222.572,216.033C225.511,220.442 237.756,206.219 240.326,210.503C243.023,214.998 228.766,219.205 229.46,220.593C231.047,223.766 238.739,213.774 239.89,215.499C240.443,216.329 232.206,229.511 235.136,230.683C239.075,232.258 249.101,212.383 252.066,218.313C253.458,221.098 237.402,226.69 237.61,229.907C238.28,240.292 254.506,226.339 254.394,226.171C254.225,225.917 235.15,232.863 240.715,239.123C242.757,241.421 254.682,235.236 254.152,234.175C253.332,232.536 250.964,235.987 249.398,236.94C248.478,237.5 241.115,239.51 243.286,241.5C245.96,243.952 250.998,239.779 253.182,238.444C253.462,238.273 256.335,236.718 256.335,236.892C256.335,237.639 248.942,241.296 247.7,242.228C246.356,243.236 245.663,246.836 245.663,246.836C245.663,246.836 248.82,238.098 251.435,234.321C253.343,231.565 260.407,230.129 260.749,226.365C261.056,222.989 259.204,218.167 255.316,218.167C253.432,218.167 253.592,224.253 252.26,222.921C251.196,221.858 260.292,213.185 255.462,208.999C253.07,206.926 239.744,216.154 239.744,219.671C239.744,220.198 240.392,218.826 240.812,218.507C242.138,217.499 254.616,206.208 250.95,203.275C245.456,198.88 240.557,210.352 238.774,213.026C238.645,213.22 239.181,212.791 239.356,212.637C240.063,212.019 246.496,199.753 244.692,199.152C241.964,198.242 240.307,210.458 239.744,211.958C238.808,214.455 236.718,207.317 234.457,211.085C234.419,211.149 234.192,211.839 234.263,211.91C235.647,213.294 236.974,202.199 237.173,201.335C238.861,194.02 239.639,185.735 241.054,177.954C244.387,159.625 247.421,140.428 244.935,121.78C244.647,119.621 245.357,108.406 244.11,107.47C243.75,107.2 242.729,116.181 242.703,117.318C242.549,124.287 242.553,131.281 241.927,138.225C241.154,146.811 236.956,190.106 242.752,195.902C244.566,197.716 243.51,190.827 243.868,188.286C244.577,183.248 245.085,178.218 245.517,173.151C246.798,158.143 246.193,143.672 246.39,128.717C246.407,127.462 247.764,114.743 243.092,115.911C241.776,116.24 242.81,125.508 242.849,126.825C243.227,139.56 242.483,152.759 241.83,165.487C241.446,172.986 241.283,180.446 240.957,187.946C240.682,194.286 240.697,199.336 241.394,199.103C245.692,197.671 245.577,180.942 246.245,177.954C250.117,160.621 250.439,140.421 247.894,122.605C247.52,119.984 249.669,102.052 247.7,101.067C247.643,101.038 245.66,106.589 245.857,107.179" style="fill:none;stroke:black;stroke-width:2.5px;"/>
        <path d="M244.401,103.008C240.812,103.366 258.334,101.33 263.611,104.075C273.454,109.193 284.877,115.4 291.844,124.109C292.461,124.88 292.555,126.534 293.542,126.534C296.228,126.534 294.107,121.002 295.531,118.724C298.343,114.225 302.719,112.11 307.804,111.157C317.926,109.259 327.426,109.367 336.813,113.679C341.281,115.733 349.328,121.489 349.328,121.489C349.328,121.489 349.388,120.205 349.668,119.646C351.61,115.763 355.907,113.725 360.146,114.456C365.564,115.39 378.343,117.551 380.714,123.478C381.435,125.281 379.535,119.765 379.21,117.851C378.536,113.881 375.481,110.308 373.923,106.549C369.315,95.435 360.354,85.18 352.093,76.619C336.326,60.278 315.656,48.865 296.841,36.55C294.488,35.011 277.825,25.714 277.825,23.55C277.825,22.146 280.909,24.45 286.265,29.517C291.031,34.025 296.265,37.968 301.012,42.517C314.164,55.121 328.727,70.986 337.637,86.951C341.516,93.901 343.08,102.28 344.526,109.993C344.803,111.471 344.623,114.504 344.623,114.504C344.623,114.504 342.454,107.549 340.402,104.608C336.144,98.505 332.549,92.063 328.469,85.835C314.139,63.964 300.238,46.479 279.862,30.099C275.084,26.257 260.132,17.14 253.133,20.64C252.054,21.179 251.951,22.292 252.6,23.211C260.215,33.999 272.301,42.55 279.377,53.723C291.341,72.613 292.087,101.231 292.087,122.751C292.087,123.094 291.917,122.074 291.941,121.732C292.189,118.262 291.877,115.358 291.262,111.933C289.93,104.513 288.218,97.617 285.344,90.638C281.503,81.31 255.462,24.812 247.7,21.707C242.709,19.71 236.822,35.21 234.748,38.103C221.588,56.457 208.494,74.827 196.474,93.985C192.815,99.816 190.015,108.462 189.634,115.329C189.618,115.603 188.852,117.315 189.052,117.415C190.625,118.202 191.874,115.312 193.32,114.31C200.049,109.652 212.009,108.711 219.952,106.646C228.194,104.503 239.514,103.058 247.943,104.463C248.126,104.493 248.835,104.686 249.01,104.511C250.098,103.424 245.938,104.338 244.401,104.269C240.458,104.092 236.466,103.656 232.516,103.784C222.341,104.112 213.888,106.812 204.478,110.381C203.392,110.793 192.119,114.915 192.108,114.892C187.539,105.756 195.224,90.429 200.597,83.459C216.097,63.351 229.496,41.163 244.983,21.804C245.184,21.553 244.459,22.186 244.256,22.434C241.106,26.284 239.088,30.695 236.349,34.804C230.762,43.184 223.682,50.493 217.769,58.622C205.417,75.606 191.47,92.253 182.115,110.963C182.097,110.999 173.237,109.07 172.025,108.877C166.33,107.971 160.115,109.376 154.804,111.4C148.063,113.967 138.525,118.024 133.411,123.139C133.299,123.25 131.185,124.842 130.84,124.497C125.315,118.973 134.304,99.463 137.534,95.246C155.459,71.844 173.289,52.465 199.869,38.394C209.044,33.537 218.86,30.307 228.345,26.412C231.707,25.031 235.906,24.373 239.502,23.793C240.909,23.566 244.359,24.388 243.722,23.114C241.317,18.303 200.796,27.12 195.164,28.45C159.226,36.935 91.983,82.531 91.983,123.042C91.983,132.422 96.505,127.996 105.857,125.613C110.794,124.354 120.237,124.67 123.612,121.295C127.779,117.129 130.366,103.468 133.702,97.769C143.064,81.776 160.914,64.887 175.954,54.256C193.152,42.099 209.608,31.191 228.49,22.143C234.1,19.455 241.696,18.069 247.894,18.069C254.552,18.069 254.704,21.546 253.279,20.834C249.455,18.922 254.756,8.948 252.066,7.154C251.434,6.733 241.565,24.005 248.088,25.636C248.67,25.782 248.72,24.604 248.913,24.035C250.305,19.921 249.989,13.992 248.185,9.968C247.939,9.419 247.263,7.814 247.263,8.415C247.263,25.098 254.908,30.442 263.757,44.118C276.334,63.555 286.293,85.99 291.553,108.344C294.461,120.703 250.3,96.821 244.304,105.482C241.232,109.919 243.189,123.401 243.189,128.863C243.189,147.286 240.128,165.958 238.338,184.308C237.72,190.637 240.119,198.681 236.785,202.014" style="fill:none;stroke:black;stroke-width:2.5px;"/>
        <path d="M221.359,259.497C220.888,260.125 214.019,250.307 212.53,249.116C205.411,243.421 195.994,238.252 187.402,235.388C184.039,234.267 183.369,241.224 181.193,244.023C177.113,249.269 169.23,253.416 163.244,255.81C156.494,258.51 144.905,254.509 139.183,252.221C136.172,251.016 132.78,244.896 132.78,244.896C132.78,244.896 139.358,249.898 142.773,252.221C149.005,256.458 155.513,255.763 162.517,257.217C163.957,257.516 166.931,257.266 166.931,257.266C166.931,257.266 165.757,258.472 165.621,259.254C164.784,264.07 166.487,273.386 168.095,277.833C172.337,289.561 173.823,303.096 176.536,315.428C183.279,346.079 183.41,377.264 185.85,408.37C186.653,418.613 189.154,438.24 184.298,447.954C183.583,449.384 184.198,438.24 184.298,436.554C184.577,431.803 187.5,412.009 183.57,408.079C182.903,407.413 182.933,410.037 182.115,410.505C178.026,412.841 171.371,410.83 166.883,410.456C163.202,410.15 137.692,411.377 136.709,415.307C134.89,422.584 159.605,415.049 164.991,414.628C166.64,414.499 166.355,414.549 167.707,414.337C168.08,414.279 168.45,414.2 168.823,414.143C170.161,413.939 182.862,412.319 182.406,411.863C180.398,409.856 141.04,409.54 139.038,412.542C137.78,414.429 136.245,410.956 135.351,412.445C131.588,418.717 136.19,426.749 136.467,433.255C136.627,437.015 135.109,444.461 135.109,444.461C135.109,444.461 135.099,443.135 135.109,442.472C135.191,436.725 133.525,431.401 132.974,425.737C131.555,411.138 130.389,401.196 134.381,387.512C136.853,379.035 173.727,379.186 181.096,381.642C186.329,383.387 166.27,381.771 164.894,381.545C157.793,380.381 138.794,386.565 135.448,384.892C134.846,384.591 132.97,354.534 135.012,349.772C137.969,342.872 176.216,340.47 177.312,343.757C178.023,345.889 169.319,345.725 168.241,345.794C161.566,346.225 155.189,346.691 148.546,345.843C147.803,345.748 136.806,345.922 136.806,346.037C136.806,348.187 156.061,346.225 157.52,346.134C164.762,345.681 171.957,345.14 179.204,345.697C179.526,345.722 181.036,345.818 181.241,345.406C182.881,342.127 178.654,338.471 177.991,335.656C174.414,320.453 172.799,311.767 156.065,310.189C153.314,309.929 144.562,306.875 142.482,309.995C137.153,317.988 170.471,314.924 169.211,311.983C167.267,307.447 157.973,309.073 154.464,309.073C140.854,309.073 138.719,310.594 138.068,324.062C137.772,330.163 134.866,336.406 134.866,342.399C134.866,344.577 134.899,337.979 135.545,335.898C136.843,331.715 138.138,327.683 139.086,323.383C141.684,311.607 140.046,297.792 146.848,287.39C149.281,283.669 153.295,287.306 156.404,287.098C160.11,286.851 162.648,286.054 166.203,287.535C174.497,290.991 156.08,290.807 149.807,285.789C148.797,284.98 146.505,287.043 145.926,285.886C145.568,285.168 151.14,277.103 151.844,275.893C154.939,270.574 155.642,264.481 158.878,259.303C158.992,259.121 161.302,257.167 161.158,257.023C161.02,256.885 156.9,266.853 156.598,267.937C153.834,277.89 157.767,290.029 156.259,300.584C151.996,330.425 153.406,365.638 157.811,395.37C159.228,404.935 159.448,413.914 159.266,423.554C159.202,426.991 159.54,430.365 159.655,433.789C159.691,434.896 159.547,438.078 160.043,437.088C165.606,425.961 159.944,407.912 159.072,396.292C157.029,369.047 159.926,342.137 156.404,314.846C154.927,303.398 155.577,289 157.084,277.591C157.774,272.359 157.716,267.001 158.781,261.825C159.025,260.642 159.752,258.333 159.752,258.333C159.752,258.333 161.465,271.539 160.916,278.124C159.787,291.669 160.013,305.789 159.752,319.405C159.151,350.634 159.865,381.902 159.218,412.979C159.068,420.197 161.114,430.307 159.121,437.282C158.712,438.714 157.165,436.273 158.83,433.11C160.381,430.163 174.155,416.363 177.894,418.606C178.775,419.134 165.929,430.814 164.409,431.849C163.096,432.742 155.611,440.092 154.173,439.804C154.117,439.793 154.007,439.715 153.979,439.659C152.012,435.724 172.972,429.275 176.002,428.987C177.105,428.882 179.301,428.599 179.301,428.599C179.301,428.599 177.723,429.369 176.876,429.569C172.072,430.703 167.083,430.25 162.226,431.121C152.973,432.78 140.678,440.968 131.81,440.968C129.453,440.968 135.185,437.669 137,436.166C140.408,433.344 144.252,431.062 147.915,428.599C153.818,424.629 181.718,409.226 183.57,402.743C184.244,400.385 172.999,404.518 172.461,404.732C163.45,408.316 155.247,413.537 147.382,419.188C140.488,424.14 138.859,425.692 139.232,425.785C140.709,426.154 156.132,409.232 162.08,403.908C166.379,400.06 170.396,395.969 174.547,391.975C175.228,391.32 181.648,385.732 180.174,384.553C178.922,383.551 153.433,399.306 149.273,401.919C146.294,403.79 143.37,405.692 140.445,407.643C139.454,408.303 136.518,410.309 137.583,409.777C147.972,404.583 160.185,388.593 168.241,380.09C168.901,379.393 177.314,371.488 177.07,370.388C176.914,369.689 173.325,371.246 173.043,371.358C163.539,375.16 156.22,383.522 147.576,388.773C145.627,389.957 143.662,391.14 141.706,392.314C140.728,392.9 138.795,395.249 138.795,394.109C138.795,391.682 160.614,369.794 163.535,366.556C166.124,363.686 168.416,360.632 170.86,357.63C172.024,356.201 175.968,352.58 174.256,353.264C164.792,357.05 155.264,366.216 147.042,372.231C143.635,374.724 140.103,376.996 136.709,379.508C135.471,380.424 131.658,382.905 133.12,382.418C139.282,380.364 160.838,355.723 165.815,350.111C167.032,348.739 175.44,340.954 173.528,338.469C172.728,337.428 170.26,339.554 169.745,340.022C162.033,347.01 151.858,353.072 142.967,358.406C142.784,358.517 141.532,358.977 141.463,358.891C141.36,358.762 141.574,358.235 141.609,358.164C144.931,351.264 171.437,322.879 169.939,320.133C169.64,319.585 167.804,321.462 167.707,321.54C161.905,326.181 142.69,343.866 136.661,344.727C135.053,344.957 138.912,342.385 140.008,341.186C142.913,338.007 145.544,334.631 148.594,331.581C154.835,325.34 169.651,314.924 171.491,305.726C171.615,305.107 164.732,308.947 164.311,309.218C159.113,312.57 153.959,316.044 148.788,319.454C148.695,319.516 142.792,323.86 142.628,323.286C140.827,316.984 168.756,297.187 166.446,288.408C166.08,287.018 150.949,301.186 149.953,300.632C149.212,300.221 151.062,298.297 151.262,298.013C153.516,294.821 165.081,276.815 163.875,275.408C162.657,273.987 155.124,282.043 154.076,282.878C152.551,284.093 147.949,284.215 149.031,285.837C150.4,287.89 152.067,281.946 153.542,279.968C155.892,276.818 160.686,271.476 160.188,267.161C159.651,262.508 152.543,270.004 152.621,269.538C152.669,269.249 161.632,256.295 159.072,256.295" style="fill:none;stroke:black;stroke-width:2.5px;"/>
        <path d="M158.684,254.986C159.502,255.967 158.273,242.563 159.218,239.996C160.097,237.61 175.022,227.035 177.555,229.567" style="fill:none;stroke:black;stroke-width:2.5px;"/>
        <path d="M180.077,227.724C181.034,229.896 182.447,234.28 181.63,231.992C178.532,223.32 171.012,229.017 164.991,233.157C160.109,236.513 159.435,242.227 158.733,247.612C158.667,248.117 158.502,253.728 157.617,253.433C150.319,251.001 157.014,231.109 138.747,228.5C133.025,227.682 136.876,242.463 134.575,245.914C134.326,246.288 134.146,246.391 134.041,245.866C131.029,230.805 136.958,231.071 151.505,231.071C151.559,231.071 151.471,230.666 151.408,230.634C148.418,229.139 146.19,220.733 148.4,221.903C153.884,224.806 170.167,217.054 173.334,221.806C174.571,223.66 170.601,223.418 171.831,221.369C172.359,220.489 184.89,220.067 188.033,215.354C191.488,210.171 188.887,195.921 191.331,193.476C193.44,191.368 200.99,196.275 202.586,191.488C206.1,180.945 189.457,181.058 189.779,176.547C189.822,175.947 189.973,174.752 189.973,174.752C189.973,174.752 190.235,175.714 190.264,176.207C190.654,182.838 199.733,180.813 201.13,187.801C202.451,194.406 193.936,191.289 192.738,194.883C189.85,203.547 193.406,210.141 187.499,218.41C182.631,225.225 168.933,223.408 162.323,222.63C153.919,221.642 134.68,223.141 131.179,211.473C130.015,207.593 134.304,197.911 131.179,194.786C129.85,193.457 123.078,195.799 123.078,184.502C123.078,176.269 135.363,181.774 136.418,180.719C137.969,179.168 135.08,173.53 137.922,171.162C141.545,168.143 174.079,173.87 181.532,173.297C182.151,173.249 206.948,172.197 201.276,165.39C200.361,164.292 198.654,164.699 197.444,164.953C186.16,167.329 169.792,168.512 157.86,166.603C149.216,165.22 140.333,166.306 131.47,165.826C130.142,165.755 120.772,163.137 120.895,164.371C121.225,167.675 136.212,172.678 137.874,171.017C138.04,170.85 137.424,170.874 137.194,170.823C133.64,170.033 127.201,166.409 127.201,166.409C127.201,166.409 129.049,166.81 129.966,167.039C130.954,167.286 139.27,167.9 141.851,167.039C142.98,166.663 138.879,164.359 140.008,163.983C153.773,159.395 170.335,166.613 184.928,162.964C185.017,162.942 184.625,162.744 184.589,162.722C181.325,160.764 177.011,161.69 173.431,161.8C165.268,162.051 157.377,161.058 149.128,161.558C146.217,161.734 143.262,161.732 140.445,162.382C139.254,162.657 135.943,163.683 136.806,162.819C137.177,162.449 141.056,164.311 141.948,164.468C145.577,165.108 149.686,164.138 153.445,164.42C175.895,166.103 182.003,171.838 188.227,152.39C188.899,150.29 191.766,141.956 190.992,140.02C189.125,135.352 169.586,144.622 166.494,145.598C160.073,147.626 147.654,137.048 140.493,141.524C137.18,143.594 135.693,153.39 137.825,156.707C138.895,158.371 139.28,162.17 139.28,161.752" style="fill:none;stroke:black;stroke-width:2.5px;"/>
        <path d="M136.127,160.83C132.014,167.935 130.233,164.953 121.865,164.953C121.736,164.953 122.298,165.501 122.35,165.535C123.405,166.239 138.327,172.051 137.534,173.636" style="fill:none;stroke:black;stroke-width:2.5px;"/>
        <path d="M177.215,223.94C175.003,218.04 173.891,228.491 174.353,228.645" style="fill:none;stroke:black;stroke-width:2.5px;"/>
        <path d="M133.75,244.411C116.795,248.649 91.241,257.516 86.259,277.445C85.853,279.068 92.431,274.657 98.192,276.33C101.334,277.242 103.895,278.422 106.342,280.55C107.666,281.701 112.413,283.557 110.66,283.557C107.158,283.557 101.143,277.861 97.368,276.669C96.674,276.45 90.363,275.026 90.431,275.117C91.556,276.616 110.362,284.807 111.581,283.994C112.279,283.529 121.056,269.837 120.459,269.538C119.526,269.072 111.931,281.482 111.339,282.539C102.537,298.256 96.677,313.127 91.11,330.174C81.848,358.539 81.16,395.439 80.729,425.203C80.578,435.601 81.298,446.094 80.389,456.394C80.052,460.215 78.194,464.249 78.012,467.891C77.997,468.196 78.227,471.879 78.109,471.82C75.217,470.374 79.492,444.073 75.441,435.972C74.42,433.929 75.782,440.529 75.829,442.812C75.904,446.409 77.788,455.607 75.296,458.723C74.35,459.904 72.778,452.472 72.676,452.028C71.72,447.846 69.933,443.112 69.669,438.883C69.642,438.463 69.62,437.621 69.62,437.621C69.62,437.621 69.613,442.398 68.553,441.55C67.53,440.733 68.426,448.985 71.561,467.794C72.036,470.648 81.184,462.079 76.315,459.644C73.767,458.37 76.301,467.697 73.452,467.697C72.982,467.697 72.598,466.39 72.531,466.241C69.078,458.621 64.426,442.2 65.836,433.741C66.087,432.236 76.071,438.791 77.479,433.158C78.185,430.333 76.82,425.46 77.527,422.098C79.474,412.852 83.238,406.022 72.288,406.818C69.689,407.007 66.758,404.917 64.187,406.042C58.153,408.682 66.564,428.977 66.564,434.905C66.564,435.633 66.504,433.449 66.467,432.722C66.36,430.617 65.825,428.979 65.206,426.998C63.675,422.1 61.034,417.124 61.034,411.863C61.034,407.65 72.924,407.837 75.587,407.837C79.676,407.837 71.294,411.252 70.736,411.33C70.282,411.393 62.823,410.779 63.071,411.524C65.624,419.181 73.916,410.549 76.703,412.639C77.46,413.207 74.914,412 73.986,411.815C71.839,411.385 73.691,419.669 72.143,418.121C70.596,416.575 72.446,409.498 71.755,411.572C70.678,414.803 73.221,422.938 73.744,426.464C74.058,428.585 76.922,433.729 75.005,432.77C69.265,429.9 74.729,412.242 73.21,406.673C72.468,403.954 69.898,407.224 69.426,404.781C65.734,385.652 63.311,361.968 71.367,343.708C72.731,340.615 73.475,331.397 76.606,329.689C79.553,328.081 72.934,356.796 71.755,361.317C71.637,361.766 70.868,364.845 70.202,364.179C69.673,363.649 69.269,362.57 69.087,361.899C68.836,360.977 77.875,310.373 79.613,307.715C81.349,305.06 88.36,294.622 92.565,296.024C93.564,296.357 86.539,304.411 85.871,305.532C82.641,310.954 73.94,326.541 77.188,333.036C77.26,333.181 76.986,332.783 76.897,332.648C74.872,329.612 77.364,323.188 77.673,319.89C78.621,309.779 82.997,301.068 85.386,291.513C85.596,290.672 88.753,275.709 88.83,275.747" style="fill:none;stroke:black;stroke-width:2.5px;"/>
        <path d="M136.758,171.502C140.84,165.379 140.77,178.513 137.971,180.379C132.814,183.817 122.404,173.249 122.933,182.756C123.339,190.078 130.733,190.498 132.149,193.331C135.095,199.223 127.709,207.858 133.847,213.996C138.029,218.178 149.829,215.398 151.747,219.235C153.9,223.54 137.34,220.205 137.34,220.205C137.34,220.205 145.327,219.974 149.322,219.914C157.977,219.783 166.448,218.63 175.032,218.361C178.018,218.268 179.841,216.324 182.697,216.324C184.499,216.324 189.883,215.839 188.081,215.839" style="fill:none;stroke:black;stroke-width:2.5px;"/>
        <path d="M189.488,172.327C193.644,163.092 188.553,181.094 188.178,180.719C187.611,180.151 189.697,181.749 190.458,181.495C195.642,179.767 199.188,186.097 200.403,189.741" style="fill:none;stroke:black;stroke-width:2.5px;"/>
    </g>
</svg>
