<?xml version="1.0" encoding="UTF-8" standalone="no"?>
<!DOCTYPE svg PUBLIC "-//W3C//DTD SVG 1.1//EN" "http://www.w3.org/Graphics/SVG/1.1/DTD/svg11.dtd">
<svg width="100%" height="100%" viewBox="0 0 400 400" version="1.1" xmlns="http://www.w3.org/2000/svg" xmlns:xlink="http://www.w3.org/1999/xlink" xml:space="preserve" xmlns:serif="http://www.serif.com/" style="fill-rule:evenodd;clip-rule:evenodd;stroke-linecap:round;stroke-linejoin:round;stroke-miterlimit:1.5;">
    <g id="Ebene2" transform="matrix(0.8,0,0,0.8,0,0)">
        <rect x="0" y="0" width="500" height="500" style="fill:white;stroke:white;stroke-width:1px;"/>
        <g transform="matrix(1.25,0,0,1.25,-56.6802,-79.7817)">
            <text x="51.54px" y="83.056px" style="font-family:'CourierNewPSMT', 'Courier New', monospace;font-size:20.833px;fill:rgb(0,153,153);stroke:rgb(0,153,153);stroke-width:1px;stroke-linecap:butt;stroke-miterlimit:2;">+ + + + + + + + + + + + + + + +</text>
            <text x="51.54px" y="95.556px" style="font-family:'CourierNewPSMT', 'Courier New', monospace;font-size:20.833px;fill:none;">+ + + + + + + + + + + + + + + +</text>
            <text x="51.54px" y="108.056px" style="font-family:'CourierNewPSMT', 'Courier New', monospace;font-size:20.833px;fill:rgb(0,153,153);stroke:rgb(0,153,153);stroke-width:1px;stroke-linecap:butt;stroke-miterlimit:2;">+ + + + + + + + + + + + + + + +</text>
            <text x="51.54px" y="120.556px" style="font-family:'CourierNewPSMT', 'Courier New', monospace;font-size:20.833px;fill:none;">+ + + + + + + + + + + + + + + +</text>
            <text x="51.54px" y="133.056px" style="font-family:'CourierNewPSMT', 'Courier New', monospace;font-size:20.833px;fill:rgb(0,153,153);stroke:rgb(0,153,153);stroke-width:1px;stroke-linecap:butt;stroke-miterlimit:2;">+ + + + + + + + + + + + + + + +</text>
            <text x="51.54px" y="145.556px" style="font-family:'CourierNewPSMT', 'Courier New', monospace;font-size:20.833px;fill:none;">+ + + + + + + + + + + + + + + +</text>
            <text x="51.54px" y="158.056px" style="font-family:'CourierNewPSMT', 'Courier New', monospace;font-size:20.833px;fill:rgb(0,153,153);stroke:rgb(0,153,153);stroke-width:1px;stroke-linecap:butt;stroke-miterlimit:2;">+ + + + + + + + + + + + + + + +</text>
            <text x="51.54px" y="170.556px" style="font-family:'CourierNewPSMT', 'Courier New', monospace;font-size:20.833px;fill:none;">+ + + + + + + + + + + + + + + +</text>
            <text x="51.54px" y="183.056px" style="font-family:'CourierNewPSMT', 'Courier New', monospace;font-size:20.833px;fill:rgb(0,153,153);stroke:rgb(0,153,153);stroke-width:1px;stroke-linecap:butt;stroke-miterlimit:2;">+ + + + + + + + + + + + + + + +</text>
            <text x="51.54px" y="195.556px" style="font-family:'CourierNewPSMT', 'Courier New', monospace;font-size:20.833px;fill:none;">+ + + + + + + + + + + + + + + +</text>
            <text x="51.54px" y="208.056px" style="font-family:'CourierNewPSMT', 'Courier New', monospace;font-size:20.833px;fill:rgb(0,153,153);stroke:rgb(0,153,153);stroke-width:1px;stroke-linecap:butt;stroke-miterlimit:2;">+ + + + + + + + + + + + + + + +</text>
            <text x="51.54px" y="220.556px" style="font-family:'CourierNewPSMT', 'Courier New', monospace;font-size:20.833px;fill:none;">+ + + + + + + + + + + + + + + +</text>
            <text x="51.54px" y="233.056px" style="font-family:'CourierNewPSMT', 'Courier New', monospace;font-size:20.833px;fill:rgb(0,153,153);stroke:rgb(0,153,153);stroke-width:1px;stroke-linecap:butt;stroke-miterlimit:2;">+ + + + + + + + + + + + + + + +</text>
            <text x="51.54px" y="245.556px" style="font-family:'CourierNewPSMT', 'Courier New', monospace;font-size:20.833px;fill:none;">+ + + + + + + + + + + + + + + +</text>
            <text x="51.54px" y="258.056px" style="font-family:'CourierNewPSMT', 'Courier New', monospace;font-size:20.833px;fill:rgb(0,153,153);stroke:rgb(0,153,153);stroke-width:1px;stroke-linecap:butt;stroke-miterlimit:2;">+ + + + + + + + + + + + + + + +</text>
            <text x="51.54px" y="270.556px" style="font-family:'CourierNewPSMT', 'Courier New', monospace;font-size:20.833px;fill:none;">+ + + + + + + + + + + + + + + +</text>
            <text x="51.54px" y="283.056px" style="font-family:'CourierNewPSMT', 'Courier New', monospace;font-size:20.833px;fill:rgb(0,153,153);stroke:rgb(0,153,153);stroke-width:1px;stroke-linecap:butt;stroke-miterlimit:2;">+ + + + + + + + + + + + + + + +</text>
            <text x="51.54px" y="295.556px" style="font-family:'CourierNewPSMT', 'Courier New', monospace;font-size:20.833px;fill:none;">+ + + + + + + + + + + + + + + +</text>
            <text x="51.54px" y="308.056px" style="font-family:'CourierNewPSMT', 'Courier New', monospace;font-size:20.833px;fill:rgb(0,153,153);stroke:rgb(0,153,153);stroke-width:1px;stroke-linecap:butt;stroke-miterlimit:2;">+ + + + + + + + + + + + + + + +</text>
            <text x="51.54px" y="320.556px" style="font-family:'CourierNewPSMT', 'Courier New', monospace;font-size:20.833px;fill:none;">+ + + + + + + + + + + + + + + +</text>
            <text x="51.54px" y="333.056px" style="font-family:'CourierNewPSMT', 'Courier New', monospace;font-size:20.833px;fill:rgb(0,153,153);stroke:rgb(0,153,153);stroke-width:1px;stroke-linecap:butt;stroke-miterlimit:2;">+ + + + + + + + + + + + + + + +</text>
            <text x="51.54px" y="345.556px" style="font-family:'CourierNewPSMT', 'Courier New', monospace;font-size:20.833px;fill:none;">+ + + + + + + + + + + + + + + +</text>
            <text x="51.54px" y="358.056px" style="font-family:'CourierNewPSMT', 'Courier New', monospace;font-size:20.833px;fill:rgb(0,153,153);stroke:rgb(0,153,153);stroke-width:1px;stroke-linecap:butt;stroke-miterlimit:2;">+ + + + + + + + + + + + + + + +</text>
            <text x="51.54px" y="370.556px" style="font-family:'CourierNewPSMT', 'Courier New', monospace;font-size:20.833px;fill:none;">+ + + + + + + + + + + + +</text>
            <text x="376.593px" y="370.556px" style="font-family:'CourierNewPSMT', 'Courier New', monospace;font-size:20.833px;fill:none;">+ + +</text>
            <text x="51.54px" y="383.056px" style="font-family:'CourierNewPSMT', 'Courier New', monospace;font-size:20.833px;fill:rgb(0,153,153);stroke:rgb(0,153,153);stroke-width:1px;stroke-linecap:butt;stroke-miterlimit:2;">+ + + + + + + + + + + + + + + +</text>
            <text x="51.54px" y="395.556px" style="font-family:'CourierNewPSMT', 'Courier New', monospace;font-size:20.833px;fill:none;">+ + + + + + + + + + + + + + + +</text>
            <text x="51.54px" y="408.056px" style="font-family:'CourierNewPSMT', 'Courier New', monospace;font-size:20.833px;fill:rgb(0,153,153);stroke:rgb(0,153,153);stroke-width:1px;stroke-linecap:butt;stroke-miterlimit:2;">+ + + + + + + + + + + + + + + +</text>
            <text x="51.54px" y="420.556px" style="font-family:'CourierNewPSMT', 'Courier New', monospace;font-size:20.833px;fill:none;">+ + + + + + + + + + + + + + + +</text>
            <text x="51.54px" y="433.056px" style="font-family:'CourierNewPSMT', 'Courier New', monospace;font-size:20.833px;fill:rgb(0,153,153);stroke:rgb(0,153,153);stroke-width:1px;stroke-linecap:butt;stroke-miterlimit:2;">+ + + + + + + + + + + + + + + +</text>
            <text x="51.54px" y="445.556px" style="font-family:'CourierNewPSMT', 'Courier New', monospace;font-size:20.833px;fill:none;">+ + + + + + + + + + + + + + + +</text>
            <text x="51.54px" y="458.056px" style="font-family:'CourierNewPSMT', 'Courier New', monospace;font-size:20.833px;fill:rgb(0,153,153);stroke:rgb(0,153,153);stroke-width:1px;stroke-linecap:butt;stroke-miterlimit:2;">+ + + + + + + + + + + + + + + +</text>
        </g>
        <g id="Fig03" transform="matrix(3.06371e-16,5.00342,-5.00342,3.06371e-16,393.812,-516.359)">
            <path d="M137.574,13.154L162.597,13.154" style="fill:none;stroke:rgb(0,153,153);stroke-width:0.21px;stroke-linecap:butt;stroke-linejoin:miter;"/>
        </g>
        <g id="Fig02" transform="matrix(1.25,0,0,1.25,125.2,93.5712)">
            <path d="M37.383,63.231L87.491,63.231" style="fill:none;stroke:rgb(0,153,153);stroke-width:0.83px;stroke-linecap:butt;stroke-linejoin:miter;"/>
            <path d="M37.383,63.231L37.383,113.512" style="fill:none;stroke:rgb(0,153,153);stroke-width:0.83px;stroke-linecap:butt;stroke-linejoin:miter;"/>
            <path d="M62.437,63.231L62.437,88.372" style="fill:none;stroke:rgb(0,153,153);stroke-width:0.83px;stroke-linecap:butt;stroke-linejoin:miter;"/>
            <path d="M62.437,88.372L37.383,88.372" style="fill:none;stroke:rgb(0,153,153);stroke-width:0.83px;stroke-linecap:butt;stroke-linejoin:miter;"/>
            <path d="M62.437,88.372L87.491,88.372" style="fill:none;stroke:rgb(0,153,153);stroke-width:0.83px;stroke-linecap:butt;stroke-linejoin:miter;"/>
            <path d="M87.491,63.231L87.491,88.372" style="fill:none;stroke:rgb(0,153,153);stroke-width:0.83px;stroke-linecap:butt;stroke-linejoin:miter;"/>
        </g>
        <g id="Fig021" serif:id="Fig02" transform="matrix(7.65404e-17,1.25,-1.25,7.65404e-17,376.039,32.3277)">
            <path d="M37.383,63.231L87.491,63.231" style="fill:none;stroke:rgb(0,153,153);stroke-width:0.83px;stroke-linecap:butt;stroke-linejoin:miter;"/>
            <path d="M37.383,63.231L37.383,113.512" style="fill:none;stroke:rgb(0,153,153);stroke-width:0.83px;stroke-linecap:butt;stroke-linejoin:miter;"/>
            <path d="M62.437,63.231L62.437,88.372" style="fill:none;stroke:rgb(0,153,153);stroke-width:0.83px;stroke-linecap:butt;stroke-linejoin:miter;"/>
            <path d="M62.437,88.372L37.383,88.372" style="fill:none;stroke:rgb(0,153,153);stroke-width:0.83px;stroke-linecap:butt;stroke-linejoin:miter;"/>
            <path d="M62.437,88.372L87.491,88.372" style="fill:none;stroke:rgb(0,153,153);stroke-width:0.83px;stroke-linecap:butt;stroke-linejoin:miter;"/>
            <path d="M87.491,63.231L87.491,88.372" style="fill:none;stroke:rgb(0,153,153);stroke-width:0.83px;stroke-linecap:butt;stroke-linejoin:miter;"/>
        </g>
        <g id="Fig022" serif:id="Fig02" transform="matrix(1.25,0,0,1.25,62.565,218.605)">
            <g transform="matrix(0.514459,0,0,1,18.151,0)">
                <path d="M37.383,63.231L87.491,63.231" style="fill:none;stroke:rgb(0,153,153);stroke-width:1.05px;stroke-linecap:butt;stroke-linejoin:miter;"/>
            </g>
            <g transform="matrix(1,0,0,0.5,0,31.6156)">
                <path d="M37.383,63.231L37.383,113.512" style="fill:none;stroke:rgb(0,153,153);stroke-width:1.05px;stroke-linecap:butt;stroke-linejoin:miter;"/>
            </g>
            <path d="M62.437,63.231L62.437,88.372" style="fill:none;stroke:rgb(0,153,153);stroke-width:0.83px;stroke-linecap:butt;stroke-linejoin:miter;"/>
            <path d="M62.437,88.372L37.383,88.372" style="fill:none;stroke:rgb(0,153,153);stroke-width:0.83px;stroke-linecap:butt;stroke-linejoin:miter;"/>
            <g transform="matrix(-0.0554143,0,0,1,65.8968,0)">
                <path d="M62.437,88.372L87.491,88.372" style="fill:none;stroke:rgb(0,153,153);stroke-width:1.18px;stroke-linecap:butt;stroke-linejoin:miter;"/>
            </g>
        </g>
        <g id="Fig01" transform="matrix(7.65404e-17,1.25,-1.25,7.65404e-17,313.421,-155.285)">
            <path d="M137.542,188.3L137.542,213.3" style="fill:none;stroke:rgb(0,153,153);stroke-width:0.83px;stroke-linecap:butt;stroke-linejoin:miter;"/>
            <path d="M237.393,213.3L237.393,188.3" style="fill:none;stroke:rgb(0,153,153);stroke-width:0.83px;stroke-linecap:butt;stroke-linejoin:miter;"/>
            <path d="M162.597,188.3L162.597,213.3" style="fill:none;stroke:rgb(0,153,153);stroke-width:0.83px;stroke-linecap:butt;stroke-linejoin:miter;"/>
            <path d="M187.468,213.3L187.468,188.3" style="fill:none;stroke:rgb(0,153,153);stroke-width:0.83px;stroke-linecap:butt;stroke-linejoin:miter;"/>
            <g transform="matrix(1,0,0,1,-0.0684004,0)">
                <path d="M212.568,213.3L212.568,188.3" style="fill:none;stroke:rgb(0,153,153);stroke-width:0.83px;stroke-linecap:butt;stroke-linejoin:miter;"/>
            </g>
            <g transform="matrix(2.97606,0,0,3.98536,-271.793,-561.051)">
                <path d="M137.542,188.026L162.597,188.026" style="fill:none;stroke:rgb(0,153,153);stroke-width:0.24px;stroke-linecap:butt;stroke-linejoin:miter;"/>
            </g>
            <g transform="matrix(3.98536,0,0,3.98536,-410.614,-536.051)">
                <path d="M137.542,188.026L162.597,188.026" style="fill:none;stroke:rgb(0,153,153);stroke-width:0.21px;stroke-linecap:butt;stroke-linejoin:miter;"/>
            </g>
        </g>
        <g id="Fig06" transform="matrix(1.25,0,0,1.25,125.051,187.365)">
            <path d="M137.542,188.3L137.542,213.3" style="fill:none;stroke:rgb(0,153,153);stroke-width:0.83px;stroke-linecap:butt;stroke-linejoin:miter;"/>
            <g transform="matrix(1,6.45193e-17,6.45193e-17,2.05368,0,-224.75)">
                <path d="M237.393,213.3L237.393,188.3" style="fill:none;stroke:rgb(0,153,153);stroke-width:0.52px;stroke-linecap:butt;stroke-linejoin:miter;"/>
            </g>
            <path d="M162.597,188.3L162.597,213.3" style="fill:none;stroke:rgb(0,153,153);stroke-width:0.83px;stroke-linecap:butt;stroke-linejoin:miter;"/>
            <path d="M187.468,213.3L187.468,188.3" style="fill:none;stroke:rgb(0,153,153);stroke-width:0.83px;stroke-linecap:butt;stroke-linejoin:miter;"/>
            <g transform="matrix(1,0,0,1,-0.0684004,0)">
                <path d="M212.568,213.3L212.568,188.3" style="fill:none;stroke:rgb(0,153,153);stroke-width:0.83px;stroke-linecap:butt;stroke-linejoin:miter;"/>
            </g>
            <g transform="matrix(3.98536,0,0,3.98536,-410.614,-561.051)">
                <path d="M137.542,188.026L162.597,188.026" style="fill:none;stroke:rgb(0,153,153);stroke-width:0.21px;stroke-linecap:butt;stroke-linejoin:miter;"/>
            </g>
            <g transform="matrix(0.995536,0,0,3.98536,75.5223,-585.935)">
                <path d="M137.542,188.026L162.597,188.026" style="fill:none;stroke:rgb(0,153,153);stroke-width:0.29px;stroke-linecap:butt;stroke-linejoin:miter;"/>
            </g>
            <g transform="matrix(3.98536,0,0,3.98536,-410.614,-536.051)">
                <path d="M137.542,188.026L162.597,188.026" style="fill:none;stroke:rgb(0,153,153);stroke-width:0.21px;stroke-linecap:butt;stroke-linejoin:miter;"/>
            </g>
        </g>
        <g id="Fig05" transform="matrix(1.25,0,0,1.25,0,62.5196)">
            <path d="M62.467,263.174L62.467,338.407" style="fill:none;stroke:rgb(0,153,153);stroke-width:0.83px;stroke-linecap:butt;stroke-linejoin:miter;"/>
            <g transform="matrix(1,0,0,1,25.0442,0)">
                <path d="M62.467,263.174L62.467,338.407" style="fill:none;stroke:rgb(0,153,153);stroke-width:0.83px;stroke-linecap:butt;stroke-linejoin:miter;"/>
            </g>
            <g transform="matrix(-1.83697e-16,1,-1,-1.83697e-16,376.388,250.833)">
                <path d="M62.467,263.174L62.467,338.407" style="fill:none;stroke:rgb(0,153,153);stroke-width:0.83px;stroke-linecap:butt;stroke-linejoin:miter;"/>
            </g>
            <g transform="matrix(-1.83697e-16,1,-1,-1.83697e-16,376.388,225.91)">
                <path d="M62.467,263.174L62.467,338.407" style="fill:none;stroke:rgb(0,153,153);stroke-width:0.83px;stroke-linecap:butt;stroke-linejoin:miter;"/>
            </g>
        </g>
        <g id="Fig051" serif:id="Fig05" transform="matrix(1.25,0,0,1.25,343.774,-62.6311)">
            <path d="M62.467,263.174L62.467,338.407" style="fill:none;stroke:rgb(0,153,153);stroke-width:0.83px;stroke-linecap:butt;stroke-linejoin:miter;"/>
            <g transform="matrix(1,0,0,1,25.0442,0)">
                <path d="M62.467,263.174L62.467,338.407" style="fill:none;stroke:rgb(0,153,153);stroke-width:0.83px;stroke-linecap:butt;stroke-linejoin:miter;"/>
            </g>
            <g transform="matrix(-1.83697e-16,1,-1,-1.83697e-16,376.388,250.833)">
                <path d="M62.467,263.174L62.467,338.407" style="fill:none;stroke:rgb(0,153,153);stroke-width:0.83px;stroke-linecap:butt;stroke-linejoin:miter;"/>
            </g>
            <g transform="matrix(-1.83697e-16,1,-1,-1.83697e-16,376.388,225.91)">
                <path d="M62.467,263.174L62.467,338.407" style="fill:none;stroke:rgb(0,153,153);stroke-width:0.83px;stroke-linecap:butt;stroke-linejoin:miter;"/>
            </g>
            <g transform="matrix(-6.26909e-17,1,-0.341274,-1.83697e-16,177.383,200.987)">
                <path d="M62.467,263.174L62.467,338.407" style="fill:none;stroke:rgb(0,153,153);stroke-width:1.12px;stroke-linecap:butt;stroke-linejoin:miter;"/>
            </g>
        </g>
        <g id="Fig07" transform="matrix(1.25,0,0,1.25,312.53,-281.325)">
            <g transform="matrix(1,0,0,0.986675,0,4.50942)">
                <path d="M62.467,263.174L62.467,338.407" style="fill:none;stroke:rgb(0,153,153);stroke-width:0.84px;stroke-linecap:butt;stroke-linejoin:miter;"/>
            </g>
            <g transform="matrix(1,0,0,1,25.0442,0)">
                <path d="M62.467,263.174L62.467,338.407" style="fill:none;stroke:rgb(0,153,153);stroke-width:0.83px;stroke-linecap:butt;stroke-linejoin:miter;"/>
            </g>
            <g transform="matrix(-1.83697e-16,1,-1,-1.83697e-16,376.388,250.833)">
                <path d="M62.467,263.174L62.467,338.407" style="fill:none;stroke:rgb(0,153,153);stroke-width:0.83px;stroke-linecap:butt;stroke-linejoin:miter;"/>
            </g>
            <g transform="matrix(-1.83697e-16,1,-1,-1.83697e-16,376.388,225.91)">
                <path d="M62.467,263.174L62.467,338.407" style="fill:none;stroke:rgb(0,153,153);stroke-width:0.83px;stroke-linecap:butt;stroke-linejoin:miter;"/>
            </g>
        </g>
    </g>
</svg>
