<?xml version="1.0" encoding="UTF-8" standalone="no"?>
<!DOCTYPE svg PUBLIC "-//W3C//DTD SVG 1.1//EN" "http://www.w3.org/Graphics/SVG/1.1/DTD/svg11.dtd">
<svg width="100%" height="100%" viewBox="0 0 3509 2484" version="1.1" xmlns="http://www.w3.org/2000/svg" xmlns:xlink="http://www.w3.org/1999/xlink" xml:space="preserve" xmlns:serif="http://www.serif.com/" style="fill-rule:evenodd;clip-rule:evenodd;stroke-linecap:round;stroke-linejoin:round;stroke-miterlimit:1.5;">
    <g transform="matrix(4.16667,0,0,4.16667,0,0)">
        <g transform="matrix(1.84186,0,0,1.78906,-142.368,-22.2621)">
            <rect x="399.685" y="158.464" width="1" height="1" style="fill:rgb(172,174,176);"/>
        </g>
        <g transform="matrix(1.84186,0,0,1.78906,-142.368,-22.2621)">
            <rect x="198.425" y="158.464" width="1" height="1" style="fill:rgb(172,174,176);"/>
        </g>
        <g transform="matrix(0.442045,0,0,0.429374,-26.516,4.4515)">
            <rect x="422.768" y="279.407" width="1115.07" height="522.208" style="fill:none;stroke:black;stroke-opacity:0.5;stroke-width:1.1px;"/>
        </g>
        <g transform="matrix(0.442045,0,0,0.429374,-26.516,5.31025)">
            <rect x="711.267" y="277.696" width="540.155" height="246.366" style="fill:none;stroke:black;stroke-opacity:0.7;stroke-width:1.1px;"/>
        </g>
        <g transform="matrix(0.442045,0,0,0.429374,-26.516,4.02212)">
            <rect x="576.619" y="280.344" width="801.378" height="358.012" style="fill:none;stroke:black;stroke-opacity:0.6;stroke-width:1.1px;"/>
        </g>
        <g transform="matrix(0.435125,0,0,0.396473,-13.1818,10.6437)">
            <rect x="54.164" y="188.207" width="1872.68" height="1118.83" style="fill:none;stroke:black;stroke-opacity:0.8;stroke-width:1.73px;"/>
        </g>
        <g transform="matrix(0.442045,0,0,0.429374,-26.516,4.4515)">
            <rect x="901.622" y="309.264" width="152.576" height="70.782" style="fill:none;stroke:black;stroke-width:1.1px;"/>
        </g>
        <g transform="matrix(0.442045,0,0,0.429374,-26.516,3.16338)">
            <rect x="821.288" y="282.847" width="318.425" height="132.299" style="fill:none;stroke:black;stroke-opacity:0.8;stroke-width:1.1px;"/>
        </g>
        <g transform="matrix(0.442045,0,0,0.429374,-158.963,4.4515)">
            <path d="M1278.12,301.862C1278.12,301.862 1259.13,295.851 1246.85,310.93C1234.57,326.01 1228.13,361.158 1228.13,361.158L1230.01,401.268L1236.1,424.241L1204.88,433.363C1204.88,433.363 1188.99,437.037 1180.91,444.275C1172.83,451.513 1160.85,574.418 1160.85,574.418L1173.05,592.861L1205.03,611.329L1194.27,653.978L1199.96,663.113L1213.08,793.314L1209.61,846.513C1209.61,846.513 1209.88,883.125 1210.5,899.565C1211.11,916.004 1232.09,1005.56 1232.09,1005.56L1227.19,1045.3C1227.19,1045.3 1226.47,1061.62 1232.43,1066.11C1238.4,1070.59 1250.36,1066.11 1250.36,1066.11L1262.68,1055.12L1261.57,1012.25L1261.05,1003.16L1261.81,989.841L1254.67,910.32L1254.42,867.413L1278.12,717.75L1313.66,854.412L1323.22,874.08L1337.31,932.266L1343.49,959.854L1347.74,989.059L1351.54,999.606L1353.84,1024.54L1358.47,1042.12C1358.47,1042.12 1358.51,1049.83 1359.78,1055.78C1361.05,1061.72 1375.67,1067.73 1382.86,1066.11C1390.04,1064.48 1393.02,1048.45 1393.02,1048.45L1385.97,1017.04L1382.63,1001.92L1377.64,916.23L1370.74,862.947L1357.42,824.811L1351.94,768L1348.4,698.292L1340.33,630.498L1336.18,607.807L1368.32,591.373L1379.59,559.418L1375.53,525.582L1364.93,487.63L1358.15,458.558L1350.78,441.366L1341.22,435.221L1312.16,424.801L1316.07,381.714L1312.8,351.352C1312.8,351.352 1305.9,324.366 1296.78,314.778C1287.65,305.19 1278.12,301.862 1278.12,301.862Z" style="fill:rgb(147,223,239);stroke:rgb(147,223,239);stroke-opacity:0.5;stroke-width:1.1px;"/>
        </g>
        <g transform="matrix(0.442045,0,0,0.429374,-158.963,4.4515)">
            <path d="M1328.22,503.706L1322.77,532.764L1320.58,556.658L1325.99,572.47L1336.16,569.235L1342.18,559.163L1338.53,539.189L1328.22,503.706Z" style="fill:rgb(254,255,254);stroke:rgb(147,223,239);stroke-opacity:0.5;stroke-width:1.1px;"/>
        </g>
        <g transform="matrix(0.442045,0,0,0.429374,-158.963,4.4515)">
            <path d="M1205.13,503.706L1201.02,553.142L1199.79,572.47L1213.06,572.47C1213.06,572.47 1214.36,561.848 1213.97,545.686C1213.57,529.524 1210.89,515.471 1210.89,515.471L1205.13,503.706Z" style="fill:rgb(254,255,254);stroke:rgb(147,223,239);stroke-opacity:0.5;stroke-width:1.1px;"/>
        </g>
        <g transform="matrix(-0.818113,0.325515,-0.335121,-0.794662,526.844,1188.21)">
            <path d="M389.398,764.762C389.398,674.615 360.265,476.767 270.118,476.767C270.118,476.767 250.934,387.356 243.238,388.882C165.425,404.317 65.152,443.524 -33.752,478.317L14.939,642.304C14.939,732.451 83.637,883.274 146.281,857.384L389.398,764.762Z" style="fill:rgb(222,41,41);fill-opacity:0.5;"/>
        </g>
        <g transform="matrix(0.442045,0,0,0.429374,28.7707,4.4515)">
            <rect x="269.684" y="279.407" width="1417.05" height="833.494" style="fill:none;"/>
            <g transform="matrix(1,0,0,1,-383.078,-1.86708)">
                <path d="M972.722,318.37C975.784,299.573 967.177,319.317 963.549,325.703C961.073,330.061 958.522,334.376 956.035,338.727L955.033,340.731C959.241,337.925 974.55,318.634 972.565,312.68C972.257,311.756 970.69,313.439 970.061,314.182C967.522,317.183 964.585,322.578 962.547,325.703C961.434,327.411 960.3,329.11 959.041,330.713C958.38,331.553 956.12,333.767 957.037,333.217C958.85,332.129 962.613,328.266 963.549,327.206C964.257,326.404 968.236,321.337 969.059,319.692C969.44,318.931 970.411,317.188 969.56,317.188C965.794,317.188 962.347,323.206 960.543,325.703C959.051,327.77 954.415,333.629 956.536,332.215C959.406,330.302 972.959,317.027 970.061,312.68C968.209,309.902 956.683,327.011 956.536,327.206C953.551,331.186 949.869,336.032 950.024,335.722C954.03,327.709 959.442,319.977 964.551,312.68C965.156,311.814 966.299,310.421 965.552,309.674C962.718,306.839 954.836,319.579 954.031,320.694C952.539,322.76 947.475,327.206 950.024,327.206C952.217,327.206 953.05,324.537 954.031,323.199C954.548,322.494 963.419,310.11 962.547,309.674C960.079,308.44 951.501,320.536 952.529,320.193C955.342,319.255 959.102,313.62 961.044,311.678C962.466,310.256 967.062,307.17 965.052,307.17C962.306,307.17 959.924,310.985 957.538,312.179C955.612,313.142 959.372,308.228 958.039,308.672C954.587,309.823 961.58,308.032 961.044,310.175C959.159,317.717 954.626,325.077 950.024,331.213C944.932,338.003 942.467,340.36 943.512,337.224C945.864,330.17 955.131,322.56 960.543,317.689C960.671,317.574 971.584,310.615 971.563,310.676C968.774,319.044 958.878,325.015 957.037,334.219C956.825,335.276 958.021,335.342 967.556,326.204C971.136,322.773 974.677,319.296 978.075,315.685C979.863,313.786 985.002,308.234 984.086,310.676C981.888,316.538 976.952,323.042 973.567,328.208C971.993,330.611 970.151,332.831 968.558,335.221C967.144,337.341 965.862,339.547 964.551,341.733C955.115,357.458 983.455,318.19 985.589,318.19C987.543,318.19 984.487,321.966 983.585,323.7C980.996,328.68 977.931,333.398 975.07,338.226C972.803,342.051 964.412,346.103 967.556,349.246C969.311,351.002 971.047,345.7 972.565,343.736C977.248,337.676 981.828,332.261 987.092,326.705C991.753,321.786 992.85,320.798 992.602,321.195C986.319,331.248 978.625,341.231 971.563,350.749C969.869,353.033 967.885,355.086 966.053,357.261C965.128,358.36 962.595,361.841 963.549,360.767C971.366,351.972 978.286,342.425 985.589,333.217C987.356,330.989 989.323,328.926 991.099,326.705C992.208,325.319 995.399,321.11 994.606,322.698C990.132,331.644 981.21,340.313 975.07,348.245C971.733,352.555 964.551,360.767 964.551,360.767C964.551,360.767 969.597,354.787 972.064,351.751C976.114,346.767 980.705,340.943 985.088,336.223C992.418,328.328 996.108,325.854 996.108,326.204C996.108,329.382 967.618,371.913 964.05,374.292C961.853,375.757 966.997,369.909 968.558,367.78C975.12,358.832 981.363,349.668 988.595,341.232C990.363,339.168 992.238,337.197 994.105,335.221C995.323,333.93 998.112,329.939 998.112,331.714C998.112,337.505 979.687,360.165 976.072,365.276C973.931,368.302 971.8,371.338 969.56,374.292C967.841,376.557 962.039,382.815 964.05,380.804C972.402,372.452 978.496,362.254 986.09,353.254C987.995,350.996 990.064,348.881 992.101,346.742C993.729,345.032 997.11,339.371 997.11,341.733C997.11,348.417 982.774,363.754 979.578,368.281C977.457,371.285 970.122,379.545 972.565,376.797C983.014,365.042 992.301,350.088 1004.62,340.23C1006.49,338.736 1002.8,344.666 1001.62,346.742C1000.06,349.477 998.324,352.113 996.609,354.756C993.853,359.005 985.708,371.169 982.584,375.294C979.02,379.998 977.959,380.92 974.569,384.31C974.402,384.477 973.931,385.003 974.068,384.811C981.502,374.404 990.166,364.776 998.112,354.756C1000.97,351.148 1009.92,340.739 1007.63,344.738C1001.21,355.978 993.505,367.073 985.589,377.298C979.867,384.689 977.305,388.094 978.576,386.314C982.834,380.354 987.483,375.001 992.101,369.283C993.675,367.335 995.072,365.249 996.609,363.272C997.554,362.057 1000.3,358.389 999.615,359.766C997.89,363.215 974.98,397.334 973.567,397.334C970.829,397.334 977.036,393.087 978.576,390.822C981.397,386.674 984.462,381.263 987.593,377.298C988.763,375.815 991.6,371.401 991.6,373.29C991.6,384.349 976.621,395.735 972.064,404.848C971.213,406.551 974.417,401.854 975.571,400.34C978.756,396.159 981.245,393.677 984.587,389.82C985.67,388.571 988.094,384.661 988.094,386.314C988.094,394.673 972.015,413.437 967.055,420.877C965.739,422.852 970.09,417.228 971.563,415.367C975.108,410.889 978.489,406.282 982.083,401.842C983.717,399.824 987.43,393.74 987.593,396.332C988.059,403.747 967.66,432.294 961.044,438.91C958.916,441.039 964.327,433.862 966.053,431.396C970.108,425.604 973.711,420.421 978.075,414.866C980.851,411.334 987.83,400.416 987.092,404.848C985.292,415.646 973.191,429.362 967.055,437.908C964.893,440.92 962.804,443.986 960.543,446.925C959.461,448.332 956.243,452.52 957.037,450.932C959.901,445.204 984.804,410.787 989.095,409.356C992.22,408.315 985.781,415.048 984.086,417.872C978.584,427.042 977.339,429.478 971.062,438.409C969.143,441.142 967.11,443.794 965.052,446.424C963.958,447.822 960.436,451.817 961.545,450.431C968.886,441.255 983.723,416.514 994.105,412.362C998.176,410.733 994.444,414.089 988.094,424.885C982.297,434.738 976.745,446.251 968.558,454.439C966.918,456.079 970.762,450.347 972.064,448.428C974.015,445.553 975.977,442.681 978.075,439.912C979.572,437.937 996.911,416.17 997.11,416.369C997.638,416.897 996.507,417.741 996.108,418.373C989.82,428.328 982.557,437.961 975.571,447.426C973.17,450.678 970.634,453.829 968.057,456.943C966.324,459.037 960.967,465.166 962.547,462.954C971.412,450.543 980.606,437.999 991.099,426.888C993.613,424.226 996.265,421.675 999.114,419.374C1000.86,417.967 1005.83,414.244 1005.12,416.369C999.479,433.305 981.826,454.255 967.556,464.958C964.885,466.961 971.436,459.515 973.567,456.943C976.514,453.387 979.565,449.919 982.584,446.424C986.144,442.301 1008.79,416.325 1010.63,416.87C1012.81,417.512 987.797,448.738 986.09,450.932C983.384,454.412 980.843,458.02 978.075,461.451C976.665,463.2 975.155,464.872 973.567,466.46C973.141,466.886 971.795,468.001 972.064,467.462C978.075,455.441 990.76,444.33 999.615,434.402C1002.13,431.577 1004.57,428.672 1007.13,425.886C1008.65,424.233 1012.85,419.247 1012.14,421.378C1008.36,432.725 994.905,445.298 987.593,454.439C985.149,457.493 982.55,460.422 980.079,463.455C978.58,465.295 974.254,470.94 975.571,468.965C983.165,457.573 993.758,446.855 1003.12,436.906C1005.55,434.327 1008.02,431.781 1010.63,429.393C1012.14,428.019 1016.23,423.934 1015.64,425.886C1011.63,439.26 997.279,453.429 988.595,463.956C986.185,466.876 983.639,469.681 981.081,472.471C979.804,473.864 975.914,477.97 977.073,476.479C986.884,463.866 997.279,451.643 1008.13,439.912C1011.02,436.792 1013.98,433.733 1017.15,430.896C1019.29,428.978 1024.16,423.014 1024.16,425.886C1024.16,433.05 1002.09,457.267 997.611,462.954C994.739,466.602 992.099,470.434 989.095,473.974C987.415,475.955 985.422,477.648 983.585,479.484C983.251,479.818 982.25,480.82 982.584,480.486C993.268,469.802 1002.49,457.194 1012.64,445.923C1015.33,442.934 1017.86,439.801 1020.65,436.906C1022.38,435.12 1024.28,433.513 1026.16,431.897C1026.62,431.506 1027.75,430.3 1027.67,430.896C1026.41,439.702 1005.02,461.937 999.114,468.965C996.293,472.319 993.517,475.714 990.598,478.983C989.174,480.578 984.441,484.795 985.589,482.991C993.926,469.889 1006.29,458.681 1016.55,447.088C1024.93,437.605 1038.44,424.308 1037.68,430.395C1036.48,440.049 1013.82,463.78 1007.13,470.969C1004.31,473.994 1001.48,477.009 998.613,479.985C996.726,481.942 991.094,487.757 992.602,485.495C1001.25,472.521 1013.35,461.52 1024.16,450.431C1025.04,449.525 1041.84,433.458 1042.19,434.903C1043.05,438.436 1017.1,469.343 1014.14,472.972C1010.92,476.915 1007.44,480.637 1004.12,484.493C1002.27,486.648 1000.49,488.865 998.613,491.005C998.146,491.538 996.609,493.009 997.11,492.508C1012.38,477.237 1025.15,459.53 1040.69,444.42C1043.85,441.347 1047.01,435.069 1051.21,436.406C1051.92,436.632 1050.64,437.801 1050.21,438.409C1048.06,441.43 1045.96,444.492 1043.69,447.426C1040.28,451.841 1036.65,456.084 1033.18,460.45C1021.85,474.675 1022.2,474.618 1010.63,488.501C1007.83,491.868 1004.97,495.191 1002.12,498.519C1000.96,499.867 997.504,503.912 998.613,502.526C1010.59,487.557 1023.79,473.145 1037.18,459.448C1040.4,456.154 1043.79,453.023 1047.2,449.93C1049.13,448.179 1051.14,446.503 1053.21,444.921C1053.76,444.504 1055.33,443.742 1055.22,444.42C1053.81,452.583 1017.16,493.046 1010.13,501.024C1007.09,504.48 1000.62,506.436 1000.62,511.042C1000.62,511.986 1001.99,509.737 1002.62,509.038C1005.33,506.063 1007.97,503.035 1010.63,500.022C1022.32,486.805 1034.13,473.836 1047.2,461.952C1054.39,455.417 1060.92,449.828 1061.88,450.79C1063.06,451.967 1057.19,457.857 1056.72,458.446C1045.23,472.829 1033.72,487.199 1022.16,501.525C1018.73,505.767 1015.27,509.985 1011.64,514.047C1009.59,516.335 1007.3,518.389 1005.12,520.559C1004.62,521.06 1002.99,522.379 1003.62,522.062C1018.99,514.379 1040.02,470.844 1059.72,463.455C1063.37,462.088 1056.05,470.358 1053.71,473.473C1050.79,477.375 1047.74,481.179 1044.7,484.994C1032.32,500.544 1032.41,500.083 1020.15,516.051C1016.96,520.21 1013.82,524.406 1010.63,528.574C1008.75,531.043 1002.93,538.284 1005.12,536.088C1018.1,523.112 1028.32,507.654 1041.19,494.512C1044.74,490.883 1048.46,487.419 1052.21,483.993C1055.05,481.399 1058.74,475.069 1061.73,477.481C1065.12,480.213 1057.38,485.059 1054.71,488.501C1043.54,502.925 1032.57,517.435 1021.65,532.08C1018.66,536.096 1015.77,540.191 1012.64,544.102C1010.94,546.225 1005.62,552.375 1007.13,550.113C1013.72,540.232 1021.86,531.462 1029.67,522.563C1033.34,518.384 1036.85,514.062 1040.69,510.04C1043.59,507.001 1063.43,489.953 1057.22,499.02C1055.13,502.079 1052.86,505.015 1050.71,508.036C1039.75,523.444 1023.29,552.307 1008.13,563.137C1005.26,565.184 1011.53,556.938 1013.64,554.121C1016.71,550.032 1020.01,546.126 1023.16,542.099C1031.57,531.333 1039.75,520.513 1050.56,511.979C1050.84,511.751 1058.81,504.827 1060.38,506.397C1062.35,508.372 1052.64,519.064 1052.15,519.657C1043.23,530.457 1043.75,530.507 1035.18,541.598C1023.18,557.131 1023.2,556.817 1010.13,571.653C1003.76,578.893 1000.85,581.904 1000.62,581.671C1000.1,581.151 1002.57,577.201 1009.63,568.146C1019.14,555.953 1029.45,543.856 1040.64,533.131C1045.49,528.479 1051.36,523.361 1056.72,519.557C1058.85,518.045 1064.37,513.516 1063.73,516.051C1060.85,527.588 1026.38,562.786 1017.65,574.658C1014.74,578.613 1012.03,582.713 1009.13,586.68C1007.52,588.892 1005.67,590.935 1004.12,593.192C1003.82,593.627 1003.27,595.089 1003.62,594.695C1019.43,576.915 1031.97,556.461 1048.58,539.188C1051.95,535.692 1061.44,523.968 1067.24,523.565C1071.5,523.269 1063.28,531.163 1060.73,534.585C1057.1,539.46 1053.37,544.258 1049.71,549.111C1035.85,567.487 1036.26,567.231 1023.16,585.678C1019.35,591.043 1015.54,596.408 1011.64,601.708C1009.02,605.258 1006.39,608.797 1003.62,612.227C1002.88,613.145 1001.12,615.912 1001.12,614.731C1001.12,607.829 1008.19,602.864 1012.14,597.199C1021.75,583.39 1032.28,570.117 1043.05,557.193C1046.61,552.916 1075.16,528.01 1060.22,547.108C1056.93,551.319 1053.53,555.442 1050.21,559.631C1045.85,565.127 1041.62,570.732 1037.18,576.161C1032.61,581.754 1027.79,587.147 1023.16,592.691C1017.94,598.927 1008.41,614.089 1000.12,618.238C999.577,618.507 1000.74,617.208 1001.12,616.735C1003.25,614.033 1005.44,611.376 1007.63,608.72C1010.95,604.697 1014.17,600.584 1017.65,596.698C1024.72,588.807 1032.56,580.599 1040.69,573.656C1042.15,572.41 1057.75,563.073 1057.72,563.638C1057.46,569.468 1049.92,575.631 1046.7,579.667C1035.21,594.049 1023.49,608.155 1011.64,622.245C1008.29,626.225 1006.32,633.766 1001.12,633.766C1000.14,633.766 1002.07,632.062 1002.62,631.262C1005.07,627.719 1007.5,624.155 1010.13,620.742C1013.68,616.137 1017.41,611.666 1021.15,607.218C1032.2,594.096 1043.3,580.505 1056.22,569.148C1058.28,567.34 1060.51,565.746 1062.73,564.139C1063.46,563.611 1065,562.27 1065.24,563.137C1066.55,567.969 1059.33,571.23 1056.22,575.159C1044.55,589.918 1033.02,604.745 1021.65,619.74C1017.98,624.584 1014.44,629.531 1010.63,634.267C1008.26,637.217 1005.73,640.038 1003.12,642.783C1002.55,643.388 1001.32,645.095 1001.12,644.285C999.893,639.388 1006.56,635.767 1009.63,631.762C1022.85,614.537 1035.36,596.225 1050.77,580.818C1053.11,578.481 1063.79,565.791 1067.74,567.645C1068.55,568.027 1067.23,569.397 1066.74,570.15C1064.44,573.68 1062.2,577.258 1059.72,580.669C1056.02,585.778 1052.05,590.694 1048.2,595.697C1034.65,613.318 1011.36,653.854 994.606,665.825C991.319,668.172 998.394,658.677 1000.62,655.305C1003.39,651.091 1006.13,646.839 1009.13,642.783C1017.46,631.537 1026.68,619.887 1037.16,610.457C1037.31,610.325 1052.34,599.632 1052.21,601.207C1051.27,612.342 1023.51,641.661 1017.65,649.294C1013.23,655.044 1008.72,660.724 1004.12,666.326C1001.04,670.076 997.921,673.801 994.606,677.346C992.894,679.175 987.474,684.094 988.595,681.854C994.922,669.199 1017.69,639.463 1031.67,635.269C1036.26,633.894 1027.43,645.854 1021.65,653.803C1014.12,664.164 1004.38,683.601 993.103,690.369C992.65,690.641 993.332,689.32 993.604,688.867C995.343,685.968 997.121,683.082 999.114,680.351C1001.63,676.897 1004.35,673.585 1007.13,670.333C1011.66,665.023 1027.4,643.386 1037.18,643.784C1040.69,643.927 1034.75,650.469 1032.67,653.302C1029.85,657.155 1027.06,661.029 1024.16,664.823C1015.65,675.956 1005.01,695.945 992.602,703.393C992.149,703.665 992.805,702.326 993.103,701.891C994.988,699.134 997.078,696.523 999.114,693.876C1002.09,690.011 1004.98,686.081 1008.13,682.355C1015.25,673.919 1029.01,655.208 1041.19,652.3C1041.49,652.228 1042.27,652.991 1042.19,653.302C1040.5,660.006 1035.24,666.004 1031.17,671.335C1021.1,684.537 1010.92,697.796 1000.12,710.406C997.942,712.942 1004.07,705.02 1006.13,702.391C1009.05,698.656 1012.12,695.03 1015.14,691.371C1019.1,686.582 1040.9,661.652 1046.2,661.817C1048.39,661.886 1045.7,666.315 1044.54,668.172C1041.17,673.565 1036.27,679.126 1032.67,683.858C1025.74,692.977 1019.04,702.267 1012.14,711.408C1009.48,714.926 1006.86,718.473 1004.12,721.927C1003.02,723.318 999.957,727.582 1000.62,725.934C1005.47,713.801 1020.89,700.591 1030.17,691.872C1038.51,684.042 1044.65,681.117 1044.7,681.353C1045.86,687.871 1022.2,714.027 1018.15,719.423C1015.28,723.243 1012.48,727.11 1009.63,730.944C1007.86,733.33 1002.47,740.43 1004.12,737.956C1011.47,726.934 1030.75,698.076 1043.69,694.377C1046.78,693.494 1041.04,700.268 1039.19,702.892C1036.86,706.195 1034.22,709.268 1031.67,712.41C1023.68,722.281 1011.62,732.638 1005.12,743.466C1003.9,745.501 1008.96,740.636 1010.63,738.958C1018.71,730.882 1026.16,722.652 1036.18,716.918C1036.22,716.895 1038.02,716.39 1038.18,716.918C1039.54,721.116 1034.21,724.83 1031.67,728.439C1023.92,739.476 1015.45,750.048 1007.63,760.999C1006.12,763.112 1011.46,757.466 1013.14,755.488C1019.85,747.61 1026,739.921 1034.18,733.448C1036.18,731.866 1039.46,727.207 1040.69,729.441C1042.19,732.181 1023.64,755.589 1021.65,758.494C1019.41,761.783 1017.38,765.215 1015.14,768.512C1013.61,770.78 1008.77,777.402 1010.13,775.024C1015.62,765.416 1036.83,735.475 1048.2,732.947C1051.12,732.299 1045.91,738.518 1044.2,740.962C1041.45,744.869 1038.57,748.681 1035.68,752.483C1032.94,756.094 1018.94,774.012 1015.64,778.03C1013.02,781.226 1007.13,787.046 1007.13,787.046C1007.13,787.046 1012.94,781.501 1015.64,778.531C1023.28,770.136 1033.09,756.467 1044.7,752.984C1047.64,752.102 1042.84,758.913 1041.19,761.499C1038.87,765.131 1036.25,768.562 1033.68,772.019C1025.48,783.036 1025.64,782.571 1017.65,793.558C1016.17,795.584 1014.62,797.549 1013.14,799.569C1012.78,800.054 1011.55,801.218 1012.14,801.072C1016.67,799.939 1034.25,779.756 1039.19,775.525C1041.72,773.352 1044.48,767.585 1047.2,769.514C1050.38,771.764 1043.56,776.439 1041.19,779.532C1038.67,782.827 1035.76,785.803 1033.18,789.05C1027.9,795.681 1021.39,803.159 1017.15,810.589C1015.98,812.639 1020.55,807.315 1022.16,805.58C1027.76,799.513 1031.72,795.302 1037.68,789.551C1039.64,787.664 1041.62,785.801 1043.69,784.041C1045.15,782.808 1049.42,779.072 1048.2,780.534C1038.93,791.658 1020.65,807.084 1016.65,821.108C1015.93,823.606 1020.47,817.57 1022.16,815.598C1027.62,809.226 1031.54,804.792 1037.68,799.068C1046.76,790.619 1051.65,784.668 1048.7,790.553C1044.97,798.013 1038.57,804.953 1033.68,811.591C1031.34,814.763 1028.95,817.902 1026.66,821.108C1024.56,824.054 1018.02,834.76 1019.15,833.631C1028.93,823.85 1036.23,811.834 1046.7,802.574C1049.06,800.487 1053,794.925 1054.71,797.565C1054.78,797.659 1046.26,808.647 1030.67,828.622C1028.18,831.808 1025.64,834.949 1023.16,838.139C1022.05,839.565 1019.02,844.058 1020.15,842.648C1027.89,832.979 1036.47,823.88 1046.2,816.099C1048.66,814.131 1051.72,809.159 1054.21,811.09C1054.52,811.324 1054.29,811.861 1054.22,812.236C1052.22,822.202 1038.59,834.519 1032.67,842.147C1030.34,845.156 1027.87,848.058 1025.66,851.163C1024.19,853.242 1022.9,855.454 1021.65,857.675C1021.4,858.135 1020.72,859.471 1021.15,859.178C1026.81,855.406 1030.54,847.634 1035.36,842.823C1038.07,840.111 1040.78,837.399 1043.49,834.687C1046.86,831.314 1050.51,828.322 1054.8,826.176C1060.47,823.345 1050.41,836.007 1044.7,843.149C1036.29,853.66 1036.35,853.369 1028.17,864.187C1025.57,867.623 1021.7,870.526 1020.65,874.706C1019.94,877.572 1024.7,870.398 1026.66,868.194C1033.62,860.404 1040.96,852.606 1049.2,846.154C1051.15,844.635 1054.73,840.388 1055.72,842.648C1056.53,844.516 1037.82,868.237 1035.68,871.2C1033.65,874.016 1031.72,876.91 1029.67,879.715C1028.47,881.361 1024.72,886.166 1026.16,884.725C1028.75,882.136 1034.73,874.319 1036.18,872.703C1038.39,870.245 1040.77,867.939 1043.19,865.69C1048.71,860.57 1049.08,860.052 1054.71,857.174C1057.28,855.863 1054.85,863.315 1053.21,865.69C1045.54,876.848 1031.43,889.953 1027.16,902.757" style="fill:none;stroke:rgb(239,148,148);stroke-width:5.51px;"/>
            </g>
            <g transform="matrix(1,0,0,1,-383.078,-1.86708)">
                <path d="M1058.3,867.803C1069.56,851.03 1038.33,895.229 1036.68,897.748C1035.33,899.812 1030.97,903.158 1033.18,904.26C1035.06,905.203 1056.91,872.202 1058.22,872.202C1061.6,872.202 1054.73,878.002 1052.71,880.717C1046.21,889.474 1040.11,898.463 1033.68,907.266C1032.34,909.099 1028.06,914.382 1029.67,912.776C1037.68,904.76 1044.59,894.55 1051.71,885.726C1053.66,883.309 1055.25,880.616 1057.22,878.213C1058.42,876.751 1062.2,872.585 1061.23,874.205C1050.92,891.39 1034,904.574 1024.16,921.792C1022.75,924.252 1028.28,917.891 1030.17,915.781C1032.7,912.963 1035.17,910.099 1037.68,907.266C1040.35,904.255 1043.08,901.302 1045.7,898.249C1050.52,892.621 1057.33,882.273 1059.22,883.222C1062.33,884.776 1055.31,888.968 1053.21,891.737C1050.69,895.065 1048.18,898.397 1045.7,901.756C1037.66,912.652 1037.9,912.525 1030.17,923.796C1028.68,925.973 1027.1,928.091 1025.66,930.308C1025.26,930.935 1023.91,932.311 1024.66,932.311C1025.58,932.311 1046.56,908.325 1048.7,905.763C1050.7,903.383 1052.32,900.707 1054.21,898.249C1055.22,896.941 1058.46,893.264 1057.72,894.743C1049.97,910.237 1035.71,922.493 1026.16,936.82C1025.9,937.213 1026.82,936.139 1027.16,935.818C1029.16,933.968 1031.33,932.3 1033.18,930.308C1038.17,924.932 1042.7,919.14 1047.7,913.778C1049.88,911.446 1052.07,909.125 1054.21,906.765C1055.57,905.277 1059.2,900.499 1058.22,902.257C1049.65,917.683 1033.39,929.379 1025.66,944.834C1024.39,947.369 1029.8,940.946 1031.67,938.823C1038.8,930.772 1038.31,931 1045.7,922.794C1047.67,920.598 1049.67,918.421 1051.71,916.282C1053.35,914.564 1057.87,909.492 1057.22,911.774C1054,923.041 1034.86,944.089 1027.16,954.352C1025.38,956.73 1030.82,949.66 1032.67,947.339C1038.78,939.71 1046.77,928.572 1055.22,923.295C1057.69,921.747 1052.5,928.499 1050.71,930.809C1048.31,933.902 1045.66,936.786 1043.19,939.825C1035.79,948.959 1035.94,948.73 1028.17,957.858C1026.47,959.844 1021.59,965.956 1023.16,963.869C1028.02,957.391 1034.26,951.809 1039.69,945.836C1042.23,943.035 1044.58,940.047 1047.2,937.321C1049.43,935.01 1053.81,928.233 1054.71,931.31C1055.33,933.387 1034.87,958.908 1032.67,961.865C1030.32,965.028 1028.08,968.272 1025.66,971.383C1024.43,972.97 1020.33,977.404 1021.65,975.891C1027.9,968.758 1033.81,961.369 1040.19,954.352C1042.65,951.642 1045.11,948.926 1047.7,946.337C1049.64,944.401 1054.97,938.695 1054.21,941.328C1049.79,956.824 1030.29,968.842 1022.16,982.403C1020.64,984.936 1026.2,978.099 1028.17,975.891C1029.14,974.796 1042.73,960.327 1043.19,959.862C1051.69,951.362 1053.89,949.856 1053.21,951.346C1049.99,958.443 1048.83,958.127 1043.19,965.372C1040.78,968.482 1038.56,971.747 1036.18,974.889C1033.88,977.925 1031.55,980.933 1029.17,983.906C1027.54,985.942 1025.72,987.83 1024.16,989.917C1021.54,993.405 1050.95,960.22 1053.21,960.363C1056.36,960.561 1050.18,965.925 1048.2,968.377C1045.75,971.423 1043.14,974.347 1040.69,977.394C1033.32,986.543 1033.6,986.374 1026.16,995.427C1024.51,997.442 1019.07,1003 1021.15,1001.44C1026.73,997.254 1046.72,971.608 1051.71,971.884C1052.83,971.946 1048.24,978.097 1042.19,986.41C1035.48,995.645 1035.82,995.579 1029.17,1004.94C1027.72,1006.99 1026.16,1008.95 1024.66,1010.96C1024.16,1011.62 1022.57,1013.55 1023.16,1012.96C1028.03,1008.09 1047.47,981.012 1053.21,981.401C1054.96,981.519 1049.45,988.169 1042.69,996.429C1035.79,1004.87 1036.36,1004.96 1029.17,1013.46C1027.41,1015.53 1021.74,1021.39 1023.66,1019.47C1030.28,1012.85 1035.92,1005.43 1042.69,998.933C1050.62,991.339 1051.46,991.725 1051.71,992.421C1052.13,993.582 1029.73,1020.59 1026.16,1024.98C1024.37,1027.19 1022.52,1029.35 1020.65,1031.49C1020.19,1032.03 1018.44,1033 1019.15,1033C1020.08,1033 1038.58,1012.06 1040.69,1009.95C1042.61,1008.03 1044.62,1006.19 1046.7,1004.44C1048.02,1003.34 1051.75,1000.31 1051.21,1001.94C1048.75,1009.32 1041.83,1016.08 1037.18,1021.98C1034.97,1024.78 1032.82,1027.63 1030.67,1030.49C1029.03,1032.68 1023.73,1038.94 1025.66,1037C1029.26,1033.4 1046.43,1011.87 1051.21,1013.46C1052.66,1013.94 1036.83,1032.12 1035.68,1033.5C1030.44,1039.74 1029.09,1041.51 1029.17,1041.51C1032.11,1041.51 1050.93,1017.18 1053.21,1020.47C1053.74,1021.24 1043.47,1035.06 1038.18,1042.01C1032.59,1049.38 1033.11,1048.95 1033.52,1048.54C1036.37,1045.69 1055.76,1024.83 1057.72,1025.48C1060.36,1026.36 1054.92,1030.31 1053.21,1032.49C1048.04,1039.1 1042.62,1046.1 1036.68,1052.03C1035.26,1053.45 1039.31,1048.98 1040.69,1047.52C1044.75,1043.24 1047.34,1040.91 1051.71,1037C1053.68,1035.24 1058.04,1029.86 1058.22,1032.49C1058.52,1036.71 1048.02,1045.36 1045.7,1048.02C1044.07,1049.9 1042.39,1051.72 1040.69,1053.53C1039.72,1054.57 1039.35,1053.98 1040.69,1053.53C1044.81,1052.16 1055.43,1038.72 1056.72,1040.01C1057.5,1040.79 1041.43,1052.92 1042.56,1055.18C1043.62,1057.29 1044.58,1057.25 1046.2,1055.54L1056.22,1045.52C1057.85,1044.08 1062.99,1040.24 1061.73,1042.01C1058.02,1047.2 1053.61,1051.99 1049.71,1057.04C1046.08,1061.73 1045.04,1062.93 1045.29,1062.78C1047.77,1061.3 1064.39,1042.34 1065.74,1045.02C1066.38,1046.3 1054.06,1059.86 1052.71,1061.55C1051.83,1062.65 1048.29,1064.55 1049.71,1064.55C1052.77,1064.55 1060.36,1054.96 1062.73,1053.03C1064.78,1051.37 1070.71,1046.33 1069.24,1048.52C1067.73,1050.8 1054.09,1065.49 1055.22,1066.06C1057.02,1066.96 1068.71,1053.89 1070.24,1052.53C1071.85,1051.12 1071.2,1050.62 1070.24,1052.53C1067.97,1057.08 1067,1057.7 1063.73,1061.55C1058.73,1067.44 1056.81,1070.02 1057.72,1069.56C1062.42,1067.21 1068.1,1055.54 1073.75,1055.54C1075.4,1055.54 1071.32,1057.79 1070.24,1059.04C1069.69,1059.68 1061.92,1069.41 1062.23,1069.56C1063.26,1070.08 1074.75,1057.59 1074.75,1061.55C1074.75,1064.98 1068.44,1068.97 1067.24,1072.57C1066.28,1075.43 1080.79,1061.96 1079.76,1065.05C1079.18,1066.81 1076.84,1068.62 1075.75,1070.06C1075.03,1071.03 1072.79,1073.79 1073.75,1073.07C1077.02,1070.61 1078.67,1063.94 1082.77,1064.55C1089.89,1065.61 1075.84,1060.1 1074.75,1061.55C1072.73,1064.24 1082.48,1066.53 1080.26,1069.06C1079.71,1069.69 1078.01,1071.44 1078.76,1071.07C1082.56,1069.16 1085.1,1070.07 1082.77,1073.57C1081.19,1075.93 1087.74,1068.29 1090.28,1069.56C1093.09,1070.97 1084.17,1074.57 1087.78,1074.57" style="fill:none;stroke:rgb(239,148,148);stroke-width:5.51px;"/>
            </g>
            <g transform="matrix(1,0,0,1,-383.078,-1.86708)">
                <path d="M962.516,1048.2C959.288,1046.71 959.687,1048.45 956.536,1050.03C955.789,1050.4 957.448,1048.61 958.039,1048.02C958.444,1047.62 959.122,1046.54 958.54,1047.02C953.003,1051.63 961.545,1045.44 961.545,1044.02C961.545,1042.78 955.534,1048.52 955.534,1049.03C955.534,1050.09 956.999,1047.44 957.538,1046.52C962.733,1037.61 960.904,1037.6 958.039,1039.51C955.073,1041.48 957.543,1043.21 955.534,1046.02C954.349,1047.68 952.028,1053.07 952.028,1051.03C952.028,1048.16 956.767,1042.05 958.039,1039.51C958.941,1037.7 955.021,1033.65 953.107,1034.29C948.504,1035.82 952.502,1045.55 949.022,1049.03C948.123,1049.92 949.987,1046.67 950.525,1045.52C951.8,1042.79 957.538,1035.84 957.538,1033C957.538,1031.19 955.555,1036.02 954.532,1037.5C953.996,1038.28 945.582,1048.66 945.516,1048.52C942.572,1042.64 957.037,1032.68 957.037,1027.49C957.037,1025.47 954.264,1030.41 953.03,1031.99C949.119,1037.02 949.265,1036.82 945.516,1042.01C941.703,1047.29 939.406,1050.09 940.507,1047.52C943.603,1040.3 949.107,1033.35 953.03,1026.48C954.368,1024.14 957.942,1017.06 956.035,1018.97C951.511,1023.49 948.617,1029.82 945.015,1035C942.841,1038.12 937.079,1047.71 938.002,1044.02C939.886,1036.48 946.767,1027.78 950.525,1020.97C952.942,1016.59 961.891,1006.24 957.037,1007.45C950.544,1009.07 941.039,1034.5 935.998,1034.5C935.504,1034.5 938.906,1028.22 943.011,1020.97C945.991,1015.72 955.534,1003.72 955.534,997.43C955.534,997.031 954.63,996.609 945.516,1009.45C941.898,1014.55 938.61,1019.88 934.997,1024.98C933.684,1026.83 929.974,1032.52 930.989,1030.49C935.562,1021.35 942.087,1012.63 947.519,1003.94C951.581,997.443 951.997,997.993 955.534,990.919C955.77,990.446 956.547,989.288 956.035,989.416C944.903,992.199 942.036,1015.29 930.989,1018.97C928.51,1019.8 933.199,1014.23 934.496,1011.96C936.059,1009.22 937.757,1006.56 939.505,1003.94C945.034,995.649 944.989,996.062 950.525,987.412C951.749,985.499 955.792,980.012 954.532,981.902C948.453,991.021 937.851,1006.84 928.485,1012.46C926.496,1013.65 930.656,1008.34 931.991,1006.45C933.913,1003.72 936.114,1001.19 938.002,998.432C942.57,991.771 953.151,980.671 954.532,972.385C954.884,970.275 950.958,974.806 949.523,976.392C945.647,980.676 943.08,985.401 939.505,989.917C936.507,993.703 930.354,1001.62 933.494,997.43C937.472,992.126 955.621,961.747 954.532,960.363C954.195,959.934 952.637,960.746 952.529,960.864C946.971,966.873 942.611,974.012 937.501,980.399C931.288,988.165 929.951,988.988 930.488,987.913C937.371,974.148 947.398,961.702 955.033,948.341C956.031,946.595 952.274,951.273 951.026,952.849C945.096,960.339 945.307,959.964 939.505,967.876C932.773,977.056 929.063,980.554 928.986,980.399C928.782,979.992 943.249,959.144 945.015,956.355C946.534,953.957 947.663,951.334 949.022,948.842C949.81,947.398 952.341,943.347 951.026,944.333C942.177,950.97 935.721,962.56 928.485,970.882C926.856,972.755 925.231,978.147 923.476,976.392C923.132,976.048 941.659,947.158 944.013,943.332C945.383,941.106 950.028,937.051 947.519,936.319C947.013,936.171 945.158,937.664 945.015,937.822C942.818,940.24 913.023,980.028 926.982,957.858C928.586,955.311 930.375,952.884 931.991,950.344C933.882,947.373 935.61,944.3 937.501,941.328C938.684,939.469 947.647,929.189 946.518,925.8C945.584,922.997 942.469,930.104 940.507,932.311C933.483,940.213 933.858,940.033 926.982,948.341C925.169,950.531 923.322,952.694 921.472,954.853C920.163,956.379 916.43,961.085 917.465,959.361C924.847,947.056 933.846,935.588 942.009,923.796C943.542,921.582 947.3,919.15 946.017,916.783C945.828,916.436 936.11,926.886 928.485,937.321C927.145,939.154 925.857,941.027 924.477,942.831C923.685,943.867 921.973,947.14 921.973,945.836C921.973,938.156 937.366,922.094 941.509,915.781C943.033,913.458 944.603,911.161 946.017,908.768C946.932,907.22 949.704,903.128 948.02,903.759C940.816,906.461 935.617,915.774 930.989,921.291C928.859,923.831 926.717,926.362 924.477,928.805C922.722,930.72 918.967,936.913 918.967,934.315C918.967,930.964 940.998,902.837 944.013,898.249C946.759,894.071 954.687,888.594 951.151,885.058C950.379,884.286 946.452,887.764 939.004,895.745C937.307,897.563 927.933,908.448 925.98,910.772C924.151,912.949 920.47,917.284 920.47,917.284C920.47,917.284 924.183,912.303 925.98,909.77C932.398,900.727 939.532,892.396 945.015,882.721C946.453,880.184 951.432,874.888 948.521,874.706C941.316,874.255 929.054,895.487 925.479,900.253C923.616,902.738 921.851,905.296 919.969,907.767C919.036,908.991 916.2,912.61 916.964,911.273C923.265,900.247 931.729,890.569 939.004,880.216C940.948,877.45 942.664,874.53 944.514,871.701C945.705,869.879 949.72,864.831 948.02,866.191C938.539,873.776 931.843,886.23 924.477,895.745C916.887,905.55 914.827,907.655 915.962,905.763C925.097,890.538 936.793,876.902 946.017,861.682C947.681,858.936 953.597,854.103 950.525,853.167C948.65,852.596 934.21,870.496 928.485,878.213C926.691,880.63 925.246,883.292 923.476,885.726C922.356,887.266 918.827,891.758 919.969,890.235C928.456,878.919 936.862,866.869 944.013,854.67C945.488,852.154 948.88,849.234 947.519,846.655C946.132,844.026 942.448,849.913 940.507,852.165C933.571,860.211 927.239,869.134 920.971,877.712C919.432,879.818 915.962,886.331 915.962,883.723C915.962,879.97 919.939,877.358 921.973,874.205C928,864.863 934.089,855.567 940.006,846.154C946.952,835.104 947.986,832.5 946.518,834.132C943.894,837.047 936.574,846.661 934.997,848.659C932.347,852.015 929.665,855.347 926.982,858.677C922.909,863.734 918.289,870.707 912.956,874.706C911.283,875.962 914.817,870.947 915.962,869.196C917.736,866.483 919.602,863.83 921.472,861.182C928.098,851.794 934.859,842.5 941.509,833.13C943.385,830.486 948.468,828.015 947.019,825.116C945.381,821.84 941.792,830.271 939.505,833.13C931.859,842.688 931.139,844.353 923.976,854.169C922.008,856.866 920.052,859.576 917.966,862.183C916.562,863.937 912.109,868.99 913.457,867.193C923.885,853.289 933.67,838.468 943.512,824.114C945.796,820.783 951.204,817.267 949.523,813.595C947.895,810.037 943.273,818.342 940.507,821.108C931.566,830.049 932.094,829.979 923.476,839.642C919.072,844.58 909.951,854.169 909.951,854.169C909.951,854.169 919.8,842.275 924.477,836.136C930.043,828.831 935.652,821.555 941.008,814.096C943.114,811.161 944.99,808.068 947.019,805.079C948.403,803.039 952.895,797.89 950.525,798.567C943.311,800.628 925.492,825.649 920.47,832.128C918.056,835.243 915.892,838.547 913.457,841.646C911.998,843.503 907.233,848.68 908.448,846.655C914.987,835.758 943.182,804.386 944.514,795.061C944.887,792.447 939.835,797.669 938.002,799.569C935.211,802.464 932.618,805.544 929.987,808.585C927.215,811.791 908.949,831.172 908.949,835.134C908.949,838.213 913.037,830.525 914.96,828.121C917.339,825.148 919.651,822.123 921.973,819.105C925.129,815.002 950.369,782.414 949.523,779.031C948.692,775.708 944.265,783.466 942.009,786.044C939.278,789.166 936.714,792.43 933.995,795.562C926.658,804.01 919.361,813.201 911.454,821.108C909.651,822.911 913.966,816.661 915.461,814.596C917.557,811.702 919.853,808.958 921.973,806.081C929.737,795.544 937.821,784.957 945.015,774.022C946.825,771.271 948.33,768.331 950.024,765.507C950.949,763.965 953.545,759.532 952.028,760.498C939.568,768.427 930.39,784.684 921.472,796.063C919.348,798.772 917.081,801.366 914.96,804.077C914.075,805.208 911.44,808.599 912.455,807.584C922.501,797.538 930.512,783.142 938.503,771.518C943.331,764.495 948.191,757.495 953.03,750.479C954.346,748.57 958.392,743.077 956.536,744.468C943.801,754.019 932.806,771.805 922.474,784.041C919.563,787.487 916.921,791.158 913.958,794.56C912.097,796.697 906.68,803.105 907.947,800.571C914.669,787.127 926.601,774.524 935.498,762.501C942.973,752.399 944.368,750.924 951.026,741.463C952.23,739.752 955.825,734.876 954.031,735.953C939.84,744.467 928.845,761.567 918.466,774.022C915.962,777.028 913.424,780.006 910.953,783.039C909.665,784.619 905.855,789.321 907.446,788.048C916.209,781.038 923.345,770.538 930.488,762C934.069,757.72 937.499,753.316 941.008,748.977C943.844,745.468 946.705,741.98 949.523,738.457C951.938,735.439 950.309,733.05 947.519,735.452C934.549,746.621 917.904,759.598 908.949,774.523C907.551,776.854 912.712,770.595 914.459,768.512C917.124,765.334 919.864,762.218 922.474,758.995C927.865,752.335 955.033,721.662 955.033,713.913C955.033,710.598 949.756,717.978 947.519,720.424C944.085,724.18 940.877,728.137 937.501,731.945C928.942,741.602 920.344,754.737 909.45,762C906.866,763.723 913.073,756.954 914.96,754.487C917.496,751.171 919.847,747.713 922.474,744.468C928.433,737.106 934.812,730.093 941.008,722.929C943.33,720.244 945.675,717.579 948.02,714.914C949.66,713.051 955.25,708.294 953.03,709.404C941.302,715.268 931.092,730.14 921.472,738.958C918.855,741.357 916.074,743.572 913.457,745.971C911.801,747.489 907.1,752.276 908.448,750.479C917.243,738.753 928.82,728.403 939.004,717.92C941.556,715.293 944.043,712.605 946.518,709.905C948.052,708.231 952.718,704.986 950.525,704.395C948.127,703.749 925.066,724.632 922.975,726.435C914.72,733.551 907.712,739.193 912.956,733.949C922.474,724.431 931.848,714.34 941.008,704.395C943.253,701.957 945.337,699.376 947.519,696.881C949.154,695.013 954.749,690.261 952.529,691.371C940.64,697.315 929.042,712.844 919.468,721.927C916.64,724.61 913.817,727.298 910.953,729.942C909.209,731.551 904.126,736.425 905.443,734.45C919.315,713.642 941.203,698.85 957.037,679.85C959.025,677.464 951.868,683.324 949.523,685.36C945.503,688.852 941.585,692.463 937.501,695.88C929.68,702.424 922.008,709.155 913.958,715.415C911.765,717.121 909.279,718.414 906.945,719.923C906.44,720.251 905.081,721.407 905.443,720.925C917.925,704.282 936.757,689.841 952.028,675.843C954.992,673.126 962.843,671.425 961.044,667.828C960.556,666.851 950.365,674.48 948.521,675.843C934.742,686.028 935.434,686.505 921.973,696.881C918.56,699.512 914.989,701.931 911.454,704.395C909.174,705.984 902.705,711.073 904.441,708.903C915.88,694.604 931.241,682.729 945.015,670.834C948.237,668.051 951.308,665.098 954.532,662.318C956.508,660.615 962.876,656.143 960.543,657.309C942.237,666.462 928.953,686.562 909.45,693.876C906.886,694.837 912.596,689.371 914.459,687.364C917.03,684.595 919.764,681.982 922.474,679.349C931.587,670.496 931.722,671.005 941.008,662.318C949.806,654.088 952.284,651.34 950.525,652.3C936.79,659.792 925.403,671.593 912.455,680.351C909.608,682.278 905.339,688.226 903.439,685.36C901.017,681.708 908.855,678.441 911.955,675.342C922.077,665.22 933.078,656.071 943.512,646.289C945.579,644.351 947.585,642.345 949.523,640.278C950.094,639.669 951.836,638.477 951.026,638.274C945.226,636.824 941.194,645.092 936.499,648.794C930.605,653.441 899.877,680.351 892.92,680.351C892.085,680.351 893.845,678.951 894.422,678.348C897.524,675.105 900.734,671.969 903.94,668.83C918.004,655.059 932.486,642.342 948.02,630.26C950.841,628.066 953.694,625.913 956.536,623.748C957.2,623.242 959.234,621.782 958.54,622.245C940.249,634.439 921.372,657.334 899.432,662.819C897.506,663.301 901.726,659.571 903.033,658.077C906.923,653.631 907.614,653.045 912.373,648.907C919.483,642.725 949.004,622.783 952.028,616.735C952.463,615.864 950.306,617.659 949.523,618.238C946.461,620.501 943.586,623.011 940.507,625.251C933.753,630.162 921.553,638.31 914.459,642.783C908.82,646.338 899.829,652.491 898.772,651.434C897.701,650.363 902.892,644.149 912.455,635.269C922.911,625.56 935.496,617.237 945.516,607.218C947.808,604.925 940.071,610.751 937.501,612.728C926.138,621.469 924.078,622.997 912.455,631.262C909.133,633.624 905.777,635.937 902.437,638.274C900.464,639.655 894.815,644.072 896.426,642.282C907.895,629.538 922.785,619.344 936.499,609.221C939.482,607.02 942.507,604.876 945.516,602.709C946.765,601.81 950.275,598.809 949.022,599.704C938.739,607.049 928.83,614.991 918.466,622.245C915.238,624.505 905.085,630.031 908.949,629.258" style="fill:none;stroke:rgb(239,148,148);stroke-width:5.51px;"/>
            </g>
            <g transform="matrix(1,0,0,1,-383.078,-1.86708)">
                <path d="M1029.33,813.023C1020.07,816.144 1022.73,809.23 1028.17,801.072C1029.17,799.569 1025.07,802.949 1023.66,804.077C1018.07,808.545 1018.53,808.358 1013.14,812.593C1012.19,813.337 1009.43,815.576 1010.13,814.596C1013.69,809.615 1018.5,805.508 1022.66,801.072C1023.87,799.777 1027.75,797.858 1026.16,797.064C1023.7,795.835 1012.57,806.372 1011.64,807.083C1003.98,812.905 1002.21,813.81 1003.12,812.593C1007.05,807.354 1012.44,802.057 1017.15,797.565C1019.7,795.132 1025.34,789.939 1025.16,790.052C1019.41,793.647 1014.83,798.869 1009.13,802.574C1007.57,803.592 1003.53,806.85 1004.12,805.079C1007.31,795.531 1026.73,780.17 1026.16,779.031C1025.94,778.583 1025.1,778.798 1024.66,779.031C1015.46,783.873 1003.85,792.984 1003.62,792.556C1002.8,791.018 1020.78,771.059 1024.16,767.009C1024.61,766.465 1025.98,766.14 1025.66,765.507C1025.28,764.744 1003.64,782.118 1001.12,782.538C998.513,782.972 1003.92,778.041 1005.63,776.026C1007.77,773.496 1009.92,770.976 1012.14,768.512C1016.79,763.345 1022.31,758.424 1026.66,752.984C1028.02,751.284 1022.92,755.218 1021.15,756.49C1016.22,760.042 1011.54,763.936 1006.63,767.51C1005.05,768.656 1001.08,772.388 1001.62,770.516C1003.47,764.024 1011.45,756.818 1015.64,751.982C1020.48,746.405 1026.8,740.027 1026.66,739.96C1024.41,738.834 1010.18,751.709 1009.13,752.483C1006.83,754.195 1004.49,755.874 1002.12,757.492C1000.58,758.544 996.203,761.629 997.11,759.997C1000.76,753.423 1007.28,747.637 1012.64,742.465C1015.61,739.593 1018.63,736.762 1021.65,733.949C1023.3,732.421 1024.95,730.892 1026.66,729.441C1027.12,729.052 1028.59,728.013 1028.17,728.439C1023.04,733.565 1016.38,738.11 1010.63,742.465C1007.97,744.481 1005.33,746.524 1002.62,748.476C1000.92,749.698 996.174,753.352 997.11,751.481C1001.12,743.45 1009.53,736.251 1015.64,729.942C1018.11,727.398 1020.6,724.879 1023.16,722.428C1024.61,721.037 1026.12,719.708 1027.67,718.421C1028.13,718.035 1029.68,717.109 1029.17,717.419C1016.98,724.735 1005.85,740.8 991.6,743.967C988.208,744.721 995.35,738.09 997.611,735.452C1000.06,732.595 1010.9,720.655 1014.14,717.419C1017.9,713.661 1021.78,710.033 1025.66,706.399C1027.3,704.862 1032.41,700.468 1030.67,701.891C1018.7,711.685 1004.29,727.388 989.095,731.945C988.111,732.241 997.041,720.378 997.668,719.751C1004.43,712.99 1010.81,706.048 1018.15,699.887C1019.97,698.361 1021.81,696.861 1023.66,695.379C1024.31,694.857 1026.31,693.354 1025.66,693.876C1017.1,700.723 1008.54,707.538 999.615,713.913C996.487,716.147 993.345,718.368 990.097,720.424C987.949,721.785 982.32,725.856 983.084,723.43C986.051,714.017 997.598,705.41 1004.12,698.885C1006.96,696.047 1009.75,693.154 1012.64,690.369C1014.26,688.811 1016,687.385 1017.65,685.861C1018.17,685.381 1019.78,684.042 1019.15,684.359C1010.52,688.675 1003.08,696.843 995.106,702.391C990.581,705.54 986.204,708.905 981.582,711.909C979.189,713.464 972.664,717.621 973.567,714.914C976.876,705 990.134,694.671 997.11,687.865C1000.33,684.728 1003.8,681.865 1007.13,678.848C1009.14,677.023 1011.09,675.119 1013.14,673.338C1013.59,672.944 1015.12,671.975 1014.64,672.337C1005.69,679.051 997.212,686.361 988.094,692.874C984.175,695.673 980.156,698.336 976.072,700.889C973.472,702.513 970.757,703.946 968.057,705.397C967.451,705.723 965.821,706.546 966.053,705.898C969.893,695.164 987.134,682.582 994.606,675.843C998.828,672.034 1003.32,668.532 1007.63,664.823C1016.65,657.057 1019.51,655.017 1019.65,655.305C1019.78,655.572 1013.23,661.644 1004.12,668.83C997.53,674.035 979.747,687.085 972.565,691.872C969.912,693.641 958.025,701.857 956.536,700.889C956.172,700.652 960.024,695.432 963.037,691.967C973.449,679.993 985.466,669.47 997.611,659.313C1001.71,655.883 1005.86,652.502 1010.13,649.294C1012.54,647.488 1015.08,645.855 1017.65,644.285C1018.1,644.01 1019.52,643.411 1019.15,643.784C1012.45,650.484 1002.79,656.956 995.607,662.318C989.586,666.812 983.689,671.476 977.574,675.843C971.997,679.827 966.343,683.712 960.543,687.364C957.318,689.395 953.913,691.128 950.525,692.874C939.851,698.376 961.417,676.88 962.547,675.843C974.59,664.791 993.34,642.973 1010.13,638.775C1010.8,638.608 1010.14,640.311 1009.63,640.779C1006.07,644.08 1002.43,647.298 998.613,650.296C993.072,654.65 987.305,658.708 981.582,662.819C969.166,671.738 961.042,677.404 948.521,685.36C947.716,685.872 940.599,690.756 939.339,689.495C937.622,687.778 953.662,672.692 954.438,671.943C967.808,659.035 982.009,647.246 996.609,635.77C1000.87,632.418 1010.83,622.082 1017.15,622.245C1017.68,622.259 1017.04,623.399 1016.65,623.748C1012.81,627.124 1008.71,630.188 1004.62,633.265C987.61,646.095 985.073,647.47 967.556,659.313C961.878,663.152 956.343,667.211 950.525,670.834C944.66,674.486 938.952,675.961 939.004,675.843C946.879,657.93 998.672,617.25 1014.14,611.726C1018.48,610.177 1007.81,618.48 1004.12,621.243C991.522,630.694 980.839,637.737 967.556,646.289C961.752,650.026 955.99,653.838 950.024,657.309C946.797,659.187 943.387,660.735 940.006,662.318C939.086,662.749 936.733,663.799 937,662.819C940.846,648.731 978.422,621.429 990.097,612.728C994.656,609.33 999.358,606.777 1004.12,603.711C1006.65,602.082 1009.07,600.272 1011.64,598.702C1012.09,598.427 1013.53,597.843 1013.14,598.201C994.809,615.122 971.726,627.919 950.525,640.779C946.867,642.998 934.534,652.463 931.991,650.797C928.768,648.685 944.501,635.226 945.015,634.768C959.208,622.129 997.099,589.062 1014.64,584.676C1015.59,584.44 1012.94,585.628 1012.14,586.179C1007.6,589.302 1003.18,592.606 998.613,595.697C985.344,604.679 972.001,613.555 958.54,622.245C952.428,626.19 946.262,630.055 940.006,633.766C936.407,635.901 932.726,637.902 928.986,639.777C927.93,640.306 924.891,641.302 925.479,640.278C935.561,622.728 968.733,602.917 984.086,592.19C989.325,588.53 994.662,585.003 1000.12,581.671C1003.69,579.489 1007.45,577.636 1011.14,575.66C1012.12,575.131 1014.64,573.155 1014.14,574.157C1009.07,584.293 966.649,607.462 956.035,614.23C950.916,617.495 945.771,620.724 940.507,623.748C937.71,625.354 929.889,630.054 931.49,627.254C941.193,610.286 975.571,590.77 990.598,580.669C994.903,577.776 999.185,574.839 1003.62,572.154C1005.54,570.994 1011.22,567.564 1009.63,569.148C996.975,581.807 978.295,591.601 963.048,601.207C958.858,603.846 951.016,608.36 946.518,610.724C943.543,612.287 940.557,613.835 937.501,615.232C936.894,615.51 935.171,615.815 935.498,615.232C944.63,598.958 973.749,580.978 989.596,569.649C994.676,566.017 998.92,563.538 1004.12,560.132C1007.14,558.153 1010.15,556.155 1013.14,554.121C1013.83,553.65 1015.85,552.175 1015.14,552.618C992.713,566.636 971.498,582.954 949.523,597.7C943.832,601.519 938.292,605.569 932.492,609.221C929.267,611.252 925.859,612.98 922.474,614.731C921.718,615.123 919.491,615.936 919.969,615.232C933.747,594.952 963.854,578.864 983.585,566.143C989.387,562.402 995.198,558.674 1001.12,555.122C1004.38,553.162 1007.73,551.317 1011.14,549.612C1012.08,549.14 1014.75,547.751 1014.14,548.611C1003.3,563.794 962.637,583.624 947.519,593.192C941.687,596.883 935.906,600.661 929.987,604.212C926.719,606.173 923.378,608.018 919.969,609.722C919.353,610.03 917.515,610.743 917.966,610.223C935.313,590.206 961.994,574.664 984.086,560.633C989.646,557.101 995.38,553.848 1001.12,550.614C1004.57,548.671 1008.1,546.874 1011.64,545.104C1012.44,544.702 1014.86,543.563 1014.14,544.102C992.26,560.513 966.69,573.662 943.512,588.183C937.227,592.12 930.809,595.841 924.477,599.704C920.957,601.852 917.529,604.153 913.958,606.216C912.906,606.824 909.851,608.274 910.452,607.218C914.798,599.58 923.997,596.01 930.989,590.687C954.06,573.126 982.058,559.985 1004.12,541.598C1004.51,541.277 1003.06,541.362 1002.62,541.598C997.996,544.064 993.543,546.841 989.095,549.612C982.02,554.022 975.08,558.645 968.057,563.137C960.721,567.829 953.406,572.555 946.017,577.163C933.77,584.799 918.799,596.378 904.942,601.708C900.643,603.361 911.404,595.118 914.96,592.19C920.093,587.963 925.178,583.669 930.488,579.667C939.92,572.56 959.815,559.022 969.56,552.618C974.515,549.362 979.53,546.196 984.587,543.1C987.714,541.186 990.973,539.496 994.105,537.59C994.818,537.156 996.824,535.658 996.108,536.088C979.358,546.138 963.039,557.23 946.518,567.645C939.151,572.289 931.945,577.191 924.477,581.671C918.581,585.209 912.481,588.397 906.444,591.689C903.297,593.406 900.168,595.167 896.927,596.698C896.172,597.055 894.003,597.42 894.422,596.698C895.258,595.261 900.484,590.476 901.435,589.686C906.55,585.436 911.663,581.178 916.964,577.163C939.997,559.713 964.293,544.88 989.596,531.079C993.745,528.816 981.574,536.076 977.574,538.592C971.102,542.663 964.548,546.603 958.039,550.614C940.478,561.436 922.738,571.958 905.25,582.889C898.791,586.925 898.289,587.464 892.223,590.194C886.67,592.692 884.46,593.399 884.905,592.691C895.573,575.716 934.696,554.316 952.02,544.1C960.087,539.342 967.982,534.295 976.072,529.576C979.168,527.769 982.382,526.17 985.589,524.567C986.393,524.165 988.898,523.163 988.094,523.565C965.465,534.879 943.924,549.928 921.973,562.636C916.345,565.895 910.671,569.077 904.942,572.154C901.652,573.92 898.347,575.674 894.923,577.163C894.464,577.362 893.079,577.529 893.421,577.163C909.52,559.913 954.071,527.02 977.574,524.066" style="fill:none;stroke:rgb(239,148,148);stroke-width:5.51px;"/>
            </g>
            <g transform="matrix(1,0,0,1,-383.078,-1.86708)">
                <path d="M991.146,529.517C994.887,526.114 998.487,522.548 1002.37,519.307C1004.58,517.466 1006.99,515.89 1009.38,514.298C1009.96,513.916 1011.53,513.124 1011.39,513.797C1011.21,514.627 1008.85,517.405 1008.38,517.804C1004.13,521.418 999.758,524.892 995.357,528.323C981.33,539.26 966.583,549.044 952.268,559.57C944.533,565.258 929.834,572.619 929.737,572.404C928.19,568.985 940.712,559.249 942.26,557.877C954.781,546.777 967.442,535.537 980.949,525.632C990.079,518.936 989.877,519.207 998.863,512.294C999.711,511.642 1002.22,509.649 1001.37,510.291C981.187,525.426 960.702,540.095 940.256,554.872C934.625,558.942 926.75,567.223 919.218,567.896C918.175,567.989 928.234,557.74 929.236,556.876C934.449,552.379 939.925,548.197 945.265,543.852C959.652,532.145 974.319,520.937 989.92,510.872C991.94,509.569 1001.08,502.797 1004.87,503.278C1005.47,503.353 1004.35,504.419 1003.87,504.78C999.648,507.949 995.168,510.76 990.849,513.797C984.482,518.274 978.205,522.879 971.814,527.322C957.601,537.201 940.635,551.74 923.726,557.377C919.464,558.797 929.499,550.467 932.742,547.358C937.602,542.701 942.311,537.885 947.269,533.333C956.971,524.426 968.947,514.425 979.328,506.283C982.428,503.851 985.617,501.53 988.845,499.27C990.628,498.022 995.164,493.743 994.355,495.764C991.292,503.422 947.998,532.96 938.859,539.815C930.589,546.018 930.459,546.248 922.791,550.849C918.349,553.513 918.691,553.271 914.339,555.991C913.814,556.319 912.878,557.471 912.706,556.876C911.961,554.298 926.653,543.171 929.236,540.846C941.149,530.125 952.714,518.756 965.302,508.788C970.466,504.698 977.344,499.977 982.834,496.265C986.325,493.904 989.74,491.42 993.353,489.252C993.944,488.898 995.844,488.264 995.357,488.751C979.616,504.492 959.067,516.751 941.258,529.826C935.515,534.043 926.729,540.822 920.721,544.854C917.131,547.262 911.556,550.294 907.697,552.367C906.577,552.969 903.722,555.052 904.19,553.87C908.655,542.606 953.708,508.948 963.799,500.773C970.081,495.684 976.355,490.58 982.834,485.746C986.88,482.727 991.157,480.03 995.357,477.23C996.167,476.69 998.627,475.126 997.861,475.727C980.402,489.446 961.652,501.9 943.262,514.298C936.465,518.88 929.592,523.348 922.724,527.823C918.572,530.528 914.41,533.22 910.201,535.837C909.122,536.509 906.412,538.58 906.695,537.34C908.589,529.05 918.809,525.386 925.229,519.808C936.679,509.859 948.295,499.586 960.293,490.254C965.337,486.331 972.481,481.353 977.825,477.731C981.313,475.367 984.838,473.056 988.344,470.718C988.845,470.384 990.334,469.362 989.847,469.716C971.5,483.06 952.553,495.607 933.744,508.287C926.756,512.998 919.865,517.865 912.706,522.313C908.835,524.717 904.701,526.672 900.684,528.824C899.563,529.425 896.87,531.561 897.178,530.327C899.897,519.434 940.471,490.309 949.273,483.241C953.84,479.574 961.412,473.626 966.304,470.217C968.642,468.588 975.123,464.616 977.825,463.205C978.622,462.788 981.032,461.641 980.329,462.203C963.578,475.604 945.074,487.944 927.232,499.771C920.476,504.25 913.563,508.49 906.695,512.795C902.376,515.503 898.054,518.208 893.671,520.81C892.444,521.538 889.568,523.736 889.664,522.313C890.261,513.477 902.046,509.624 908.699,503.779C922.218,491.898 932.879,482.649 947.269,471.72C953.653,466.872 960.166,462.188 966.805,457.694C971.026,454.837 975.445,452.282 979.829,449.68C980.792,449.108 983.626,447.385 982.834,448.177C963.469,467.542 934.291,481.291 911.203,495.764C898.034,504.019 893.911,505.865 893.671,505.281C893.003,503.653 906.726,492.518 911.203,488.751C916.93,483.933 922.815,479.304 928.735,474.726C935.339,469.618 942.013,464.598 948.772,459.698C961.724,450.308 975.251,443.381 988.344,434.652C989.712,433.74 985.277,435.864 983.836,436.656C978.591,439.541 973.398,442.524 968.307,445.673C959.818,450.923 911.267,485.399 900.183,486.748C895.611,487.304 906.217,479.743 909.7,476.729C915.084,472.071 920.717,467.709 926.231,463.205C945.012,447.862 964.198,434.053 984.337,420.627C984.958,420.213 982.98,421.256 982.333,421.629C977.469,424.429 972.66,427.324 967.807,430.144C945.663,443.011 946.398,443.273 924.227,456.693C918.663,460.06 912.897,463.08 907.196,466.21C904.043,467.941 894.896,472.998 897.178,470.217C910.128,454.434 930.555,442.567 946.706,430.345C954.367,424.547 962.237,419.755 970.311,414.616C972.931,412.948 980.578,407.669 977.825,409.106C960.699,418.041 944.777,428.792 928.234,438.66C923.946,441.218 916.733,444.883 912.205,447.175C909.54,448.524 906.914,449.956 904.19,451.183C903.581,451.457 901.773,451.707 902.187,451.183C916.684,432.788 950.015,412.768 970.311,400.59C973.651,398.586 963.523,404.426 960.293,406.601C956.468,409.177 917.353,435.149 915.21,434.151C914.119,433.643 916.293,431.922 917.214,431.146C920.305,428.541 923.515,426.08 926.732,423.632C936.033,416.555 945.259,409.37 954.783,402.594C958.518,399.936 962.427,397.528 966.304,395.08C968.773,393.52 971.325,392.095 973.818,390.572C974.331,390.258 975.79,389.194 975.32,389.57C965.683,397.28 954.786,403.691 944.264,410.108C941.646,411.703 938.94,413.148 936.249,414.616C935.266,415.152 933.243,417.239 933.243,416.119C933.243,414.621 949.735,403.831 955.284,400.089C958.894,397.655 962.665,395.468 966.304,393.076C968.51,391.627 970.599,390.002 972.816,388.568C973.443,388.163 975.234,386.945 974.819,387.566C971.046,393.226 960.445,397.57 954.783,400.59C952.21,401.962 946.768,407.013 946.768,404.097C946.768,401.468 961.938,392.07 963.298,391.073C965.615,389.374 967.953,387.704 970.311,386.064C971.984,384.9 977.229,381.842 975.32,382.557C971.098,384.141 967.292,386.502 963.298,388.568C952.304,394.255 951.197,394.273 951.777,393.577C954.597,390.193 973.264,373.989 975.821,376.546" style="fill:none;stroke:rgb(239,148,148);stroke-width:5.51px;"/>
            </g>
            <g transform="matrix(1,0,0,1,-383.078,-1.86708)">
                <path d="M998.722,317.207C996.548,315.976 996.477,315.085 994.856,316.937C994.063,317.843 991.648,319.943 992.852,319.943C996.048,319.943 999.959,315.74 1002.37,313.932C1002.56,313.79 1003.11,313.431 1002.87,313.431C1001.39,313.431 997.088,317.483 995.858,318.44C995.199,318.953 993.107,320.316 993.854,319.943C997.109,318.315 1000.66,317.241 1003.87,315.435C1005.77,314.367 1011.53,311.57 1009.38,311.928C1000.09,313.478 991.8,323.449 982.333,323.449C980.386,323.449 985.673,321.446 987.342,320.444C991.327,318.053 995.507,315.501 999.364,312.93C1000.68,312.051 996.286,313.752 994.856,314.433C991.831,315.873 985.653,320.945 981.832,320.945C979.794,320.945 985.087,318.475 986.841,317.438C990.899,315.04 997.428,312.863 1000.87,309.424C1002.07,308.22 997.473,309.887 995.858,310.425C991.148,311.995 986.542,313.865 981.832,315.435C980.217,315.973 975.878,317.853 976.823,316.436C979.842,311.908 991.454,311.219 993.353,307.42C995.364,303.399 980.83,312.429 980.83,312.429C980.83,312.429 997.127,303.914 992.351,303.914C987.889,303.914 983.414,306.349 979.328,307.921C978.488,308.244 976.421,309.727 976.823,308.923C977.31,307.948 989.587,301.297 987.342,299.906C984.183,297.949 976.226,302.495 973.818,303.413C971.395,304.335 964.866,307.573 966.304,305.416C968.156,302.638 977.419,298.165 974.318,299.405C970.505,300.931 967.065,303.278 963.298,304.915C960.966,305.929 954.011,309.058 956.286,307.921C958.172,306.978 956.485,308.573 954.783,309.424C953.312,310.159 957.82,308.155 959.291,307.42C962.711,305.71 969.012,301.693 973.317,302.411C974.165,302.552 967.421,310.377 967.048,311.684C965.843,315.9 969.645,315.979 972.816,316.436" style="fill:none;stroke:rgb(239,148,148);stroke-width:5.51px;"/>
            </g>
            <g transform="matrix(1,0,0,1,-383.078,-1.86708)">
                <path d="M1054.89,443.438C1055.23,440.108 1059.21,455.302 1059.47,456.192C1062.25,465.455 1066.49,474.071 1066.49,484.243C1066.49,491.209 1069.08,497.75 1068.49,504.78C1067.16,520.683 1065.72,536.712 1063.98,552.367C1063.26,558.905 1065.11,571.281 1059.97,576.411C1057.13,579.255 1060.5,568.382 1060.98,564.389C1062.07,555.315 1061.19,546.298 1062.98,537.34C1065.26,525.938 1061.21,516.392 1059.97,505.281C1058.23,489.558 1061.72,474.922 1059.47,459.197C1057.79,447.401 1040.19,436.221 1031.42,429.643C1028.27,427.281 1030.25,423.048 1026.41,421.128C1020.09,417.964 1012.18,419.34 1005.38,416.619C1000.48,414.662 989.113,408.873 985.339,405.098C983.917,403.677 988.142,402.157 989.847,401.091" style="fill:none;stroke:rgb(239,148,148);stroke-width:5.51px;"/>
            </g>
            <g transform="matrix(1,0,0,1,-383.078,-1.86708)">
                <path d="M973.687,299.734C974.007,299.154 967.537,300.064 966.088,300.245C961.074,300.872 954.914,301.032 951.375,305.278C947.4,310.048 950.52,315.12 948.277,319.605C946.056,324.047 940.901,329.424 940.146,334.705C939.564,338.781 943.457,342.158 942.856,345.16C942.249,348.197 940.205,351.531 941.308,354.839C941.542,355.542 947.998,358.54 949.439,361.422C949.462,361.467 946.345,364.521 947.116,364.907C949.735,366.216 956.408,370.163 956.408,373.812C956.408,387.186 949.167,399.806 938.21,407.111C935.338,409.025 931.872,408.341 929.305,410.208C921.061,416.204 913.991,423.454 904.911,428.407C891.287,435.838 878.144,435.272 869.677,450.09C868.218,452.643 869.176,456.886 868.128,459.769C862.306,475.78 861.301,479.977 859.997,496.94C859.212,507.143 855.602,517.272 854.576,527.529C853.952,533.764 855.652,539.583 856.125,545.727C857.921,569.084 858.311,576.594 866.192,597.611C867.975,602.368 872.48,602.391 875.097,606.129C881.788,615.688 894.509,623.657 899.491,633.62C899.512,633.663 894.524,660.29 894.457,660.724" style="fill:none;stroke:rgb(239,148,148);stroke-width:1.1px;"/>
            </g>
            <g transform="matrix(1,0,0,1,-383.078,-1.86708)">
                <path d="M968.133,301.476C971.486,295.972 999.333,303.068 1002.87,308.376C1006.75,314.186 1003.32,323.071 1004.42,329.672C1005,333.132 1008.22,335.557 1009.07,338.964C1009.43,340.404 1006.64,343.12 1007.52,343.998C1009.42,345.898 1012.95,339.754 1014.49,341.288C1015.39,342.192 1013.39,344.939 1012.94,345.547C1010,349.472 1010.77,356.087 1008.68,360.26C1008.3,361.023 1000.04,360.124 998.225,363.745C993.776,372.645 988.345,387.909 990.482,398.593C991.801,405.188 1005.7,409.482 1011.39,411.757C1025.18,417.275 1058.57,431.449 1068.31,441.184C1069.98,442.857 1068.69,451.517 1068.69,453.574C1068.69,465.24 1067.56,477.756 1069.47,489.196C1073.98,516.267 1078.37,560.832 1065.99,585.608C1061.86,593.851 1053.33,599.347 1047.4,606.129C1040.06,614.514 1035.54,624.434 1030.75,634.007C1029.84,635.821 1034.86,637.578 1035.4,638.654C1038.52,644.906 1044.3,647.62 1044.3,655.303" style="fill:none;stroke:rgb(239,148,148);stroke-width:1.1px;"/>
            </g>
            <g transform="matrix(1,0,0,1,-383.078,-1.86708)">
                <path d="M1043.33,657.376C1039.23,650.851 1050.4,675.869 1044.98,686.712C1035.03,706.608 1047.16,730.433 1050.49,750.388C1052.64,763.292 1051.3,777.061 1052.94,790.186C1053.87,797.618 1058.05,803.907 1059.06,811.003C1061.64,829.081 1064.09,845.93 1067.63,863.659C1069.77,874.346 1061.96,882.388 1060.29,892.435C1056.93,912.582 1056.61,933.095 1056.61,953.663L1056.61,1000.81C1056.61,1006.01 1057.84,1011.78 1057.84,1016.73C1057.84,1019.39 1058.41,1027.07 1057.22,1024.69C1056.98,1024.2 1057.33,1017.23 1056.61,1017.95C1053.49,1021.07 1059.74,1030.27 1061.51,1032.03C1065.83,1036.35 1069.31,1044.03 1073.14,1049.79C1079.15,1058.81 1112.42,1067.52 1081.1,1077.95C1079.62,1078.45 1077.36,1072.44 1074.37,1072.44C1063.26,1072.44 1048.42,1072.73 1042.09,1060.08C1040.96,1057.82 1037.27,1055.55 1029.06,1047.34C1027.04,1045.32 1037.15,1054.1 1035,1053.03C1031.08,1051.07 1016.48,1041.77 1014.98,1038.16C1014.19,1036.27 1014.97,1040.2 1014.98,1038.16C1015.02,1024.03 1015.56,998.656 1014.74,989.87C1012.03,960.874 1017.65,925.68 1014.37,896.109C1012.2,876.576 1014.37,857.351 1014.37,837.943C1014.37,837.728 1014.6,835.116 1014.37,834.882C1007.28,827.796 999.429,814.816 997.835,803.656C994.418,779.74 990.485,742.425 975.793,722.836C973.878,720.282 964.251,707.529 961.099,707.529" style="fill:none;stroke:rgb(239,148,148);stroke-width:1.1px;"/>
            </g>
            <g transform="matrix(1,0,0,1,-383.078,-1.86708)">
                <path d="M970.13,299.799C975.851,286.905 963.329,301.211 961.099,305.267C958.945,309.182 955.88,314.83 954.976,319.349C954.936,319.549 954.976,320.165 954.976,319.961C954.976,319.052 959.858,309.536 960.486,310.165C961.294,310.972 951.742,325.468 953.139,323.022C955.651,318.627 959.212,314.165 962.323,310.165C962.95,309.359 965.229,307.415 964.772,308.328C961.878,314.117 958.71,319.57 954.976,324.859C953.634,326.76 951.731,328.288 950.69,330.37C949.72,332.31 953.571,327.125 954.976,325.472C961.273,318.063 969.473,305.769 978.393,301.309C978.728,301.141 979.169,300.754 979.467,300.981C979.661,301.129 968.462,319.679 961.099,329.145C952.963,339.606 949.524,342.668 952.527,340.166C960.725,333.334 976.78,305.55 984.977,302.818C989.893,301.179 976.021,316.307 972.12,321.798C964.496,332.527 956.97,346.132 947.629,355.473C945.027,358.075 951.442,349.153 953.751,346.289C962.231,335.774 962.603,336.528 970.895,325.472C975.458,319.388 977.845,316.045 981.916,310.165C982.335,309.56 983.141,307.592 983.141,308.328C983.141,312.026 956.861,345.256 954.364,348.738C951.459,352.786 948.714,356.948 945.792,360.983C944.331,363.001 939.744,368.868 941.506,367.106C954.904,353.708 966.296,337.144 978.242,322.41C981.073,318.919 983.911,315.433 986.814,312.002C988.588,309.906 993.406,303.355 992.325,305.879C983.749,325.887 965.796,341.18 956.201,360.371C955.942,360.887 957.045,359.581 957.425,359.147C959.903,356.314 962.288,353.402 964.772,350.575C971.553,342.859 978.181,335.01 984.977,327.308C987.748,324.168 990.792,321.276 993.549,318.124C995.27,316.157 1000.01,309.911 998.447,312.002C990.922,322.036 983.632,332.358 976.406,342.615C973.439,346.826 970.788,351.253 967.834,355.473C966.499,357.379 964.944,359.122 963.548,360.983C963.106,361.572 961.803,363.34 962.323,362.82C975.796,349.347 985.205,330.557 1000.9,319.349C1003.2,317.701 998.22,324.362 996.61,326.696C994.038,330.427 991.311,334.048 988.651,337.717C980.658,348.742 980.881,348.424 972.732,359.147C970.706,361.812 964.466,369.678 966.609,367.106C976.743,354.945 986.732,342.842 997.223,330.982C999.716,328.163 1001.91,319.749 1004.57,322.41C1004.91,322.751 979.627,359.813 977.018,363.432C974.201,367.34 971.336,371.212 968.446,375.066C966.78,377.286 961.771,383.933 963.548,381.801C967.856,376.631 1003.01,332.207 1007.02,332.207C1007.86,332.207 1006.84,333.934 1006.41,334.656C1004.37,338.054 1001.96,341.215 999.672,344.452C988.432,360.375 988.735,360.188 977.63,376.29C974.222,381.231 970.71,386.1 967.221,390.985C965.276,393.709 958.956,401.516 961.099,398.944C968.809,389.692 976.429,380.461 984.365,371.392C988.08,367.147 998.771,354.438 997.223,357.922C992.518,368.508 984.082,379.346 977.63,388.536C974.698,392.711 971.649,396.809 968.446,400.781C966.179,403.592 959.484,411.97 961.099,408.741C965.116,400.706 971.614,393.238 977.63,386.699C979.78,384.362 981.984,382.064 984.365,379.964C985.531,378.935 989.209,376.676 988.651,378.127C984.448,389.055 975.945,399.479 969.058,408.741C966.11,412.705 963.078,416.613 959.874,420.374C958.094,422.464 952.787,428.455 953.751,425.884C957.45,416.022 965.984,406.731 972.732,398.944C983.05,387.038 989.51,379.838 985.59,386.699C973.138,408.489 957.024,429.028 942.118,449.151C938.57,453.94 934.821,458.578 931.097,463.233C918.978,478.383 944.964,441.502 945.18,441.191" style="fill:none;stroke:rgb(239,148,148);stroke-width:1.1px;"/>
            </g>
            <g transform="matrix(1,0,0,1,-383.078,-1.86708)">
                <path d="M967.853,411.515C960.708,420.239 960.749,419.636 953.139,428.333C949.99,431.932 946.983,435.653 943.955,439.354C941.473,442.388 939.238,445.631 936.608,448.538C921.24,465.524 960.205,404.384 965.997,406.291C967.041,406.635 965.436,408.476 964.772,409.353C962.407,412.479 959.865,415.468 957.425,418.537C953.538,423.427 949.597,428.276 945.792,433.231C936.196,445.728 927.318,458.769 917.627,471.192C913.746,476.169 910.03,481.421 905.181,485.461C904.685,485.875 903.95,487.002 903.545,486.499C902.968,485.781 899.745,483.848 940.281,427.721C944.034,422.526 948.069,417.541 951.915,412.414C954.192,409.377 956.427,406.308 958.65,403.23C959.08,402.634 960.269,400.772 959.874,401.393C946.153,422.956 930.381,443.321 915.178,463.845C910.527,470.124 907.285,479.13 899.872,481.601C899.073,481.867 900.075,479.887 900.484,479.152C903.153,474.348 906.111,469.709 909.056,465.07C919.241,449.02 920.902,446.867 931.71,432.007C934.543,428.111 937.456,424.275 940.281,420.374C941.91,418.125 946.845,411.418 945.18,413.639C936.16,425.666 926.707,437.673 917.015,449.151C913.286,453.566 909.339,457.796 905.382,462.008C903.011,464.533 900.567,466.992 898.035,469.355C897.497,469.858 896.094,471.308 896.198,470.58C897.816,459.256 909.955,447.519 916.403,438.742C920.028,433.807 930.162,418.571 927.424,424.047C920.774,437.346 911.593,449.263 902.321,460.784C893.931,471.207 889.262,476.853 887.461,475.052C885.21,472.802 903.426,443.218 906.607,438.13C908.258,435.488 909.812,432.786 911.505,430.17C912.059,429.313 913.342,426.701 913.342,427.721C913.342,432.907 898.755,448.896 896.198,452.212C890.201,459.986 880.856,467.835 880.891,467.519C882.148,456.203 893.604,441.409 899.872,432.007C901.29,429.879 897.476,436.527 896.198,438.742C891.231,447.351 891.02,449.235 884.565,456.498C883.398,457.81 879.774,461.241 880.279,459.559C882.909,450.791 888.5,443.028 893.749,435.681C895.177,433.681 898.647,427.713 898.647,430.17C898.647,432.733 871.477,464.457 870.482,464.457C866.803,464.457 874.332,458.166 876.605,455.273C883.688,446.258 891.274,437.2 899.872,429.558C901.577,428.042 905.894,424.217 905.994,426.496C906.479,437.511 882.216,471.034 876.605,480.989C873.734,486.083 870.97,491.238 868.033,496.295C867.294,497.568 867.056,499.969 865.584,499.969C864.215,499.969 866.671,497.441 867.421,496.295C870.555,491.512 873.854,486.838 877.217,482.213C882.019,475.611 886.85,469.025 891.912,462.62C903.444,448.029 915.719,433.004 929.547,420.434C933.275,417.045 937.149,408.66 941.506,411.19C945.888,413.734 938.122,420.855 935.311,425.071C923.044,443.472 910.915,461.974 898.647,480.376C893.184,488.572 887.696,496.751 882.116,504.867C878.715,509.814 875.228,514.7 871.707,519.562C870.941,520.62 868.674,523.792 869.258,522.623C885.697,489.744 915.078,458.258 939.057,430.782C942.866,426.418 952.931,414.253 955.588,415.476C957,416.125 954.6,418.459 953.751,419.761C950.137,425.311 946.523,430.863 942.731,436.293C937.541,443.723 932.034,450.928 926.811,458.335C916.744,472.613 900.459,496.709 890.687,510.99C884.994,519.312 882.498,532.292 872.932,535.481C871.371,536.001 874.45,532.552 875.381,531.195C879.352,525.403 883.44,519.69 887.626,514.051C893.442,506.218 899.299,498.412 905.382,490.785C919.013,473.692 933.522,457.272 947.629,440.579C953.791,433.287 968.204,412.868 972.618,414.34C974.754,415.052 965.588,426.203 965.385,426.496C960.458,433.62 955.62,440.805 950.69,447.926C937.928,466.36 924.748,484.505 912.117,503.03C906.473,511.309 901.234,519.858 895.586,528.134C892.456,532.719 889.065,537.121 885.789,541.604C885.187,542.427 883.231,544.774 883.952,544.053C921.385,506.62 945.54,455.613 984.977,419.761C988.789,416.297 979.427,428.447 976.406,432.619C970.826,440.325 965.396,448.138 959.874,455.886C938.522,485.848 938.751,485.5 917.627,515.888C912.942,522.629 908.306,529.405 903.545,536.093C899.734,541.447 895.799,546.712 891.912,552.012C891.309,552.835 889.534,555.327 890.075,554.461C908.103,525.617 928.146,498.301 949.466,471.805C956.28,463.335 963.178,454.929 970.283,446.701C974.814,441.454 979.463,436.297 984.365,431.395C986.328,429.432 992.676,424.211 991.1,426.496C965.768,463.228 938.781,498.809 913.342,535.481C907.404,544.04 901.654,552.729 895.586,561.196C886.744,573.534 882.466,577.815 882.728,577.115C892.937,549.891 930.062,507.082 949.466,484.05C956.739,475.416 963.969,466.738 971.507,458.335C976.423,452.855 981.54,447.551 986.814,442.416C989.623,439.681 998.118,431.77 995.998,435.068C977.137,464.408 952.974,490.075 934.159,519.562C928.34,528.68 922.796,537.972 917.015,547.114C914.02,551.851 910.862,556.482 907.831,561.196C907.188,562.197 904.974,564.87 905.994,564.258C914.851,558.944 918.832,548.07 924.975,539.767C945.55,511.952 967.451,485.18 989.263,458.335C994.751,451.581 1000.13,444.737 1005.8,438.13C1008.71,434.731 1011.9,431.583 1014.98,428.333C1015.57,427.705 1017.35,425.813 1016.82,426.496C996.16,453.053 975.107,479.265 955.588,506.704C948.697,516.391 942.144,526.314 935.383,536.093C930.715,542.846 926.018,549.579 921.301,556.298C919.283,559.172 917.285,562.061 915.178,564.87C914.832,565.332 913.634,566.575 913.954,566.094C935.364,533.978 957.796,502.427 981.304,471.805C996.072,452.567 1004.55,442.516 1019.88,425.272C1022.75,422.036 1031.26,412.361 1029.06,416.088C1013.88,441.77 993.977,465.107 977.018,489.56C954.061,522.661 934.177,560.258 907.219,590.585C901.498,597.021 916.135,575.852 920.689,568.544C923.708,563.698 926.73,558.854 929.827,554.058C950.638,521.835 973.862,490.57 999.837,462.303C1005.89,455.714 1009.81,451.505 1016.21,446.064C1019.57,443.21 1024.75,435.094 1027.22,438.742C1030.57,443.668 1021.69,449.325 1018.21,454.158C1003.52,474.607 1003.62,474.264 989.263,495.071C975.079,515.62 939.299,579.842 917.627,596.096C916.954,596.601 917.827,594.38 918.24,593.647C921.517,587.82 925.075,582.153 928.648,576.503C933.63,568.625 942.947,555.132 948.241,547.726C967.185,521.223 987.16,494.891 1009.59,471.217C1011.57,469.121 1037.98,444.279 1039.47,444.865C1039.97,445.062 1027.34,462.501 1022.94,468.131C1015.33,477.879 1007.68,487.602 1000.28,497.52C975.545,530.714 954.539,567.353 928.036,599.157C923.796,604.245 935.238,588.036 939.057,582.626C945.296,573.787 951.665,565.041 958.037,556.298C972.861,535.96 988.528,516.388 1005.18,497.52C1011.88,489.934 1018.5,482.281 1025.39,474.866C1029.12,470.847 1033.08,467.048 1037.02,463.233C1038.08,462.209 1040.38,459.345 1040.69,460.784C1041.42,464.146 1009.99,504.462 1002.73,514.664C979.401,547.454 960.689,585.831 933.546,615.688C929.587,620.044 940.008,605.845 943.343,600.994C949.083,592.644 954.661,584.182 960.486,575.891C981.93,545.372 1006.12,515.666 1031.51,488.336C1046.95,471.716 1051.49,469.736 1051.71,469.968C1052.33,470.595 1051.08,471.61 1050.65,472.377C1045.79,481.125 1039.24,488.823 1033.35,496.908C1012.94,524.881 992.042,552.45 972.151,580.794C962.177,595.008 961.534,596.321 951.787,608.504C949.023,611.96 946.251,615.414 943.343,618.75C940.498,622.013 932.011,631.693 934.159,627.934C954.437,592.447 982.51,559.319 1010.08,529.358C1015.57,523.397 1024.97,513.565 1030.9,507.929C1035.51,503.55 1040.21,499.272 1044.98,495.071C1046.21,493.983 1049.17,490.979 1049.27,492.622C1049.93,504.608 1035.81,512.529 1028.45,522.011C1006.38,550.44 984.53,578.92 963.655,608.245C952.408,624.044 952.888,623.817 941.563,637.7C938.527,641.421 935.432,645.093 932.322,648.751C929.61,651.942 921.615,661.538 923.75,657.935C942.9,625.621 965.852,594.988 989.722,566.003C996.331,557.978 1003.37,549.689 1010.63,542.163C1015.95,536.658 1018.74,533.742 1024.34,529.541C1026.07,528.241 1031.35,525.018 1030.29,526.909C1007.43,567.715 975.551,605.508 948.853,643.853C943.775,651.147 934.27,664.265 928.648,671.405C926.122,674.614 920.628,680.721 917.627,683.651C916.776,684.482 914.254,686.636 914.566,685.487C923.131,653.919 977.617,595.683 1000.12,571.575C1003.87,567.554 1032.05,539.692 1035.18,541.604C1037.06,542.749 1033.98,545.915 1032.74,547.726C1028.59,553.752 1020.39,564.154 1016.2,569.768C994.814,598.433 973.925,627.441 953.138,656.542C944.106,669.187 942.957,671.234 934.306,681.39C926.135,690.982 923.652,692.762 923.75,692.222C927.414,672.103 968.73,625.397 982.761,609.927C992.958,598.684 1003.87,588.561 1015.59,578.952C1016,578.616 1030.74,569.025 1030.29,570.38C1021.85,595.436 997.097,620.972 982.528,642.016C975.019,652.862 967.626,663.792 959.874,674.467C955.173,680.941 950.185,687.205 945.18,693.447C944.003,694.915 941.002,698.999 940.894,697.121C940.169,684.605 992.65,626.463 1002.73,616.301C1009.67,609.306 1016.18,603.193 1023.55,596.708C1023.92,596.387 1038.11,586.547 1037.63,588.136C1031.58,608.465 1007.54,632.13 995.386,647.527C989.362,655.157 983.333,662.79 977.018,670.181C973.735,674.022 970.098,677.546 966.609,681.202C965.812,682.037 963.644,684.683 964.16,683.651C972.636,666.7 989.375,650.902 1002.92,638.039C1008.47,632.767 1010.99,630.84 1017.5,626.495C1020.5,624.5 1027.74,618.252 1027.22,621.811C1025.06,636.722 1002.92,657.771 994.774,667.732C990.554,672.889 986.275,677.998 981.916,683.038C979.461,685.876 971.464,693.802 973.956,690.998C979.491,684.772 1010.98,650.868 1021.71,652.425C1022.43,652.528 1022.46,654.625 1022.33,654.874C1020.9,657.548 1015.24,665.036 1013.75,667.119C1006.63,677.114 999.6,686.989 991.1,695.896C988.709,698.402 986.202,700.794 983.753,703.243C983.345,703.652 982.193,704.938 982.528,704.468C986.832,698.442 1020.77,662.246 1027.78,666.917C1030.28,668.587 1017.88,684.67 1000.9,703.243C996.606,707.936 989.612,715.435 989.263,714.264C987.796,709.344 1017.34,680.205 1021.55,676.54C1029.89,669.289 1042.65,660.175 1043.14,660.997C1044.38,663.04 1031.35,679.031 1029.67,681.202C1022.24,690.836 999.072,725.279 988.039,730.796C987.264,731.183 989.312,729.616 989.876,728.959C994.212,723.899 998.365,718.684 1002.73,713.652C1008.49,707.018 1015.17,701.203 1021.99,695.697C1031.88,687.704 1040.56,681.774 1038.86,686.712C1033.44,702.401 1019.06,717.132 1008.86,729.571C1006.47,732.48 1004.09,735.402 1001.51,738.143C1000.81,738.886 998.535,740.855 999.06,739.98C1003.93,731.869 1031.65,701.948 1041.92,703.243C1042.62,703.332 1043.34,705.172 1043.14,705.692C1038.03,719.441 1026.26,732.706 1016.2,743.041C1013.99,745.316 1011.71,747.531 1009.47,749.776C1008.86,750.388 1007.63,752.479 1007.63,751.613C1007.63,750.054 1055.96,710.624 1038.86,734.469C1035.45,739.212 1032.03,743.944 1028.45,748.551C1024.89,753.131 1021.18,757.593 1017.43,762.021C1010.24,770.518 1010.49,770.189 1004.57,776.104C1004.16,776.512 1005.4,775.3 1005.8,774.879C1008.46,772.035 1010.95,769.02 1013.75,766.307C1020.22,760.041 1027.96,752.854 1035.8,747.939C1035.94,747.849 1046.27,742.761 1046.2,744.266C1045.79,754.089 1017.65,783.713 1010.69,788.349C1008.04,790.118 1014.65,783.342 1016.82,781.002C1022.58,774.778 1028.65,769.096 1035.8,764.471C1039.24,762.238 1044.66,755.466 1046.82,758.96C1049.15,762.729 1030,782.915 1028.45,784.676C1016.11,798.712 1013.61,798.798 1014.37,797.533C1018.06,791.385 1039.68,768.791 1047.43,771.818C1049.04,772.446 1024.89,799.87 1022.33,802.431C1019.88,804.881 1012.1,811.7 1014.98,809.779C1026.74,801.935 1034.79,788.644 1049.88,785.9C1055.21,784.931 1050.74,788.568 1035.18,807.33C1028.36,815.555 1022.05,823.956 1013.75,830.596C1013.18,831.056 1015.05,829.865 1015.59,829.371C1019.51,825.824 1018.8,825.567 1022.94,822.024C1027.84,817.827 1040.61,806.056 1048.57,808.707C1050.67,809.406 1045.98,815.373 1045.59,815.901C1039.35,824.345 1028.66,843.587 1018.04,847.127C1009.64,849.929 1049.72,823.758 1049.27,830.596C1048.67,839.55 1035.35,850.992 1030.29,856.924C1026.13,861.796 1017.22,871.111 1017.43,871.006C1025.72,866.859 1042.69,842.679 1054.78,848.352C1055.94,848.9 1032.17,879.607 1027.22,885.088C1025,887.554 1022.31,889.556 1019.88,891.823C1019.24,892.414 1017.17,893.66 1018.04,893.66C1021.41,893.66 1035.22,878.101 1042.61,874.409C1044.24,873.592 1056.71,869.426 1056.61,869.781C1053.37,881.337 1038.66,893.652 1030.9,902.232C1027.6,905.877 1024.51,909.71 1021.1,913.253C1019.2,915.232 1012.89,920.55 1014.98,918.763C1022.45,912.358 1040.99,891.176 1052.94,895.497C1056.63,896.831 1049.7,902.705 1047.43,905.905C1038.93,917.865 1028.13,936.731 1015.59,945.091C1014.98,945.499 1016.3,943.774 1016.82,943.254C1019.17,940.905 1021.72,938.767 1024.16,936.519C1027.26,933.67 1029.91,931.027 1033.35,928.559C1035.52,927.002 1053.06,916.772 1054.16,919.988C1055.3,923.285 1028.99,955.484 1025.39,959.785C1023.44,962.11 1021.24,964.217 1019.26,966.52C1018.79,967.079 1017.34,968.59 1018.04,968.357C1026.76,965.45 1033.5,954.115 1042.31,950.002C1043.45,949.472 1054.89,945.899 1054.78,946.315C1051.69,957.288 1036.67,970.539 1029.67,978.766C1026.49,982.511 1023.21,986.175 1019.88,989.787C1018.12,991.695 1012.39,996.988 1014.37,995.297C1023.29,987.645 1036.33,970.806 1049.27,970.806C1063.05,970.806 1027.65,990.768 1018.65,1008.77C1017.55,1010.97 1023.16,1006.77 1025.39,1005.71C1027.63,1004.64 1046.85,995.305 1048.65,997.134C1050.89,999.395 1031.55,1019.62 1030.29,1021.01C1020.3,1032.07 1009.93,1043.33 1018.04,1033.87C1020.9,1030.53 1039.72,1011.61 1046.82,1015.5C1048.07,1016.19 1029.46,1038.37 1027.22,1040.61C1025.89,1041.94 1025.97,1045.21 1027.72,1044.51C1035.32,1041.47 1039.82,1030.76 1049.27,1032.65C1050.19,1032.83 1038.43,1047.5 1037.63,1048.57C1036.97,1049.44 1035.37,1051.28 1036.41,1051.63C1040.75,1053.07 1045.96,1053.54 1050.49,1054.08C1054.72,1054.57 1054.31,1054.69 1058.45,1054.69C1059.47,1054.69 1062.08,1053.84 1061.51,1054.69C1057.91,1060.09 1057.93,1071.38 1063.35,1063.26" style="fill:none;stroke:rgb(239,148,148);stroke-width:1.1px;"/>
            </g>
            <g transform="matrix(1,0,0,1,-383.078,-1.86708)">
                <path d="M945.428,663.302C946.196,657.692 944.172,651.112 938.017,657.267C930.339,664.946 925.414,676.307 920.077,685.487C917.684,689.603 915.24,693.688 912.729,697.733C911.326,699.994 906.897,706.633 908.443,704.468C916.3,693.469 931.483,677.21 934.771,664.058C934.949,663.344 933.419,664.729 932.934,665.283C930.541,668.017 928.448,671 926.199,673.854C917.44,684.971 917.637,684.613 908.443,695.896C906.43,698.368 900.895,706.095 902.321,703.243C905.359,697.167 909.51,691.71 913.342,686.1C916.312,681.75 919.579,677.608 922.526,673.242C925.092,669.441 927.419,665.484 929.873,661.609C948.355,632.427 894.61,689.649 891.912,690.998C887.993,692.958 895.712,683.081 898.035,679.365C903.297,670.945 923.701,648.486 924.975,639.567C925.376,636.76 919.673,641.889 917.627,643.853C911.692,649.551 906.301,655.791 900.484,661.609C898.647,663.446 893.812,669.443 894.973,667.119C899.431,658.205 907.346,649.318 913.342,641.404C915.709,638.279 918.337,635.356 920.689,632.22C922.285,630.091 927.231,624.074 924.975,625.485C917.268,630.302 912.485,638.5 905.676,644.401C901.679,647.865 898.838,649.839 894.361,653.037C893.762,653.465 892.524,654.997 892.524,654.262C892.524,646.861 904.095,635.336 908.443,629.771C910.091,627.661 928.257,610.031 920.689,615.076C914.132,619.448 908.989,625.396 902.933,630.383C901.229,631.786 896.252,635.929 897.422,634.057C900.666,628.867 926.656,599.999 926.199,597.32C924.858,589.457 904.072,602.809 901.708,602.218C899.683,601.712 911.174,580.959 905.994,582.014C900.523,583.127 897.236,587.984 893.137,591.198C887.486,595.627 881.954,599.48 883.34,596.708C887.653,588.082 894.337,580.081 899.872,572.217C901.633,569.714 903.59,567.352 905.382,564.87C906.292,563.61 908.583,559.84 907.219,560.584C900.179,564.424 875.942,588.734 872.932,586.299C869.24,583.314 876.548,577.473 879.054,573.442C886.804,560.975 900.824,548.11 904.77,533.644C906.549,527.12 891.498,540.766 891.315,540.93C884.588,546.949 863.516,563.821 861.911,561.809C857.726,556.562 899.915,512.055 896.81,504.255C896.453,503.359 880.616,512.6 860.074,525.072C857.576,526.589 850.89,531.399 852.114,528.746C860.716,510.109 879.337,495.038 893.137,480.376C898.979,474.169 905.123,467.529 903.74,466.146C899.774,462.18 876.188,481.759 874.235,475.9C872.148,469.638 891.465,450.75 894.973,446.701C902.693,437.794 906.1,434.031 905.994,434.456C905.13,437.914 903.183,441.008 901.708,444.252" style="fill:none;stroke:rgb(239,148,148);stroke-width:1.1px;"/>
            </g>
        </g>
        <g transform="matrix(0.442045,0,0,0.429374,-26.516,4.4515)">
            <rect x="269.684" y="279.407" width="1417.05" height="833.494" style="fill:none;stroke:black;stroke-opacity:0.5;stroke-width:1.1px;"/>
        </g>
        <g transform="matrix(-0.789456,0.01672,-0.0192723,-0.858544,504.536,1286)">
            <path d="M417.347,785.853C417.347,735.261 337.423,538.694 337.357,542.49C337.317,544.76 284.503,559.561 281.513,558.051C281.513,558.051 208.063,416.371 209.645,387.511C210.136,378.544 65.152,443.524 -33.752,478.317L14.939,642.304C14.939,732.451 83.637,883.274 146.281,857.384L417.347,785.853Z" style="fill:rgb(41,191,222);fill-opacity:0.5;"/>
        </g>
        <g transform="matrix(-0.938456,-0.00278871,0.00284352,-0.90283,1204.05,1535.92)">
            <path d="M1265.6,926.372C1151.77,955.212 1185.82,1060.16 1185.82,1060.16L1223.92,1079.85L1284.65,1102.52L1368.63,1065.98L1368.63,983.835C1368.63,983.835 1379.43,897.532 1265.6,926.372Z" style="fill:rgb(222,219,41);"/>
        </g>
        <g transform="matrix(0.175708,0,0,0.170672,565.57,498.578)">
            <text x="1176.88px" y="160.825px" style="font-family:'RobotoSlab-SemiBold', 'Roboto Slab';font-size:91.404px;">T<tspan x="1234.73px " y="160.825px ">o</tspan>tal<tspan x="1396.24px " y="160.825px ">e</tspan></text>
        </g>
        <g transform="matrix(0.175708,0,0,0.170672,430.138,451.403)">
            <text x="1176.88px" y="160.825px" style="font-family:'RobotoSlab-SemiBold', 'Roboto Slab';font-size:91.404px;">Halbt<tspan x="1409.77px " y="160.825px ">o</tspan>tal<tspan x="1571.29px " y="160.825px ">e</tspan></text>
        </g>
        <g transform="matrix(0.175708,0,0,0.170672,335.54,318.58)">
            <text x="1176.88px" y="160.825px" style="font-family:'RobotoSlab-SemiBold', 'Roboto Slab';font-size:91.404px;">Am<tspan x="1332.87px " y="160.825px ">e</tspan>rik<tspan x="1503.89px " y="160.825px ">a</tspan>nisch</text>
        </g>
        <g transform="matrix(0.175708,0,0,0.170672,308.755,248.21)">
            <text x="1176.88px" y="160.825px" style="font-family:'RobotoSlab-SemiBold', 'Roboto Slab';font-size:91.404px;">Halbnah</text>
        </g>
        <g transform="matrix(0.175708,0,0,0.170672,287.178,200.321)">
            <text x="1176.88px" y="160.825px" style="font-family:'RobotoSlab-SemiBold', 'Roboto Slab';font-size:91.404px;">Nah</text>
        </g>
        <g transform="matrix(0.175708,0,0,0.170672,233.454,151.549)">
            <text x="1176.88px" y="160.825px" style="font-family:'RobotoSlab-SemiBold', 'Roboto Slab';font-size:91.404px;">Gr<tspan x="1274.18px " y="160.825px ">o</tspan></text>
        </g>
        <g transform="matrix(0.175708,0,0,0.170672,187.385,138.975)">
            <text x="1176.88px" y="160.825px" style="font-family:'RobotoSlab-SemiBold', 'Roboto Slab';font-size:91.404px;">Detail</text>
        </g>
        <g transform="matrix(0.274755,0,0,0.266879,67.2959,37.4053)">
            <text x="83.481px" y="129.589px" style="font-family:'RobotoSlab-Medium', 'Roboto Slab';font-weight:500;font-size:71.943px;">Einst<tspan x="260px " y="129.589px ">e</tspan>llun<tspan x="433.849px " y="129.589px ">g</tspan>sgr<tspan x="582.934px " y="129.589px "></tspan>en</text>
            <rect x="83.481" y="134.858" width="669.508" height="3.513"/>
        </g>
    </g>
</svg>
