<?xml version="1.0" encoding="UTF-8" standalone="no"?>
<!DOCTYPE svg PUBLIC "-//W3C//DTD SVG 1.1//EN" "http://www.w3.org/Graphics/SVG/1.1/DTD/svg11.dtd">
<svg width="100%" height="100%" viewBox="0 0 600 400" version="1.1" xmlns="http://www.w3.org/2000/svg" xmlns:xlink="http://www.w3.org/1999/xlink" xml:space="preserve" xmlns:serif="http://www.serif.com/" style="fill-rule:evenodd;clip-rule:evenodd;stroke-linecap:round;stroke-linejoin:round;stroke-miterlimit:1.5;">
    <g id="cloud" transform="matrix(0.712955,0,0,0.712955,177.31,17.8423)">
        <path d="M249.822,210.989C255.149,197.104 266.959,187.441 280.659,187.441C294.213,187.441 305.918,196.9 311.324,210.546C312.701,210.46 314.098,210.416 315.511,210.416C340.505,210.416 360.797,224.227 360.797,241.238C360.797,246.341 358.97,251.156 355.74,255.396C357.299,258.177 358.48,261.237 359.196,264.518C363.051,282.179 351.993,299.614 334.517,303.428C329.004,304.632 323.506,304.337 318.442,302.814C313.321,307.912 306.44,311.035 298.879,311.035C290.484,311.035 282.928,307.185 277.686,301.056C269.677,306.804 258.791,310.339 246.804,310.339C222.232,310.339 202.283,295.481 202.283,277.18C202.283,266.111 209.58,256.302 220.781,250.279C220.061,247.419 219.674,244.383 219.674,241.238C219.674,224.227 230.999,210.416 244.949,210.416C246.616,210.416 248.246,210.613 249.822,210.989Z" style="fill:rgb(0,153,153);"/>
    </g>
    <g id="moon" transform="matrix(0.873251,0,0,0.873251,99.2192,-11.9987)">
        <path d="M478.367,42.383C477.816,41.539 477.888,40.433 478.544,39.668C479.2,38.903 480.283,38.663 481.2,39.079C502.662,49.039 517.555,70.787 517.555,95.986C517.555,130.6 489.453,158.702 454.839,158.702C437.867,158.702 422.46,151.945 411.164,140.977C410.469,140.27 410.317,139.192 410.789,138.32C411.26,137.448 412.245,136.985 413.217,137.178C417.086,137.905 421.078,138.296 425.16,138.296C459.774,138.296 487.876,110.194 487.876,75.58C487.876,63.393 484.392,52.012 478.367,42.383Z" style="fill:rgb(0,153,153);"/>
        <g transform="matrix(0.866025,-0.5,0.5,0.866025,37.9028,235.162)">
            <path d="M410.262,52.808C410.569,51.865 411.448,51.226 412.441,51.226C413.433,51.226 414.312,51.865 414.619,52.808C416.297,57.975 418.334,64.242 418.334,64.242C418.334,64.242 424.923,64.242 430.356,64.242C431.348,64.242 432.227,64.881 432.534,65.824C432.84,66.768 432.505,67.802 431.702,68.385C427.307,71.578 421.976,75.451 421.976,75.451C421.976,75.451 424.012,81.718 425.691,86.885C425.997,87.828 425.662,88.862 424.859,89.445C424.056,90.029 422.969,90.029 422.166,89.445C417.772,86.252 412.441,82.379 412.441,82.379C412.441,82.379 407.109,86.252 402.715,89.445C401.912,90.029 400.825,90.029 400.022,89.445C399.22,88.862 398.884,87.828 399.19,86.885C400.869,81.718 402.905,75.451 402.905,75.451C402.905,75.451 397.574,71.578 393.179,68.385C392.377,67.802 392.041,66.768 392.347,65.824C392.654,64.881 393.533,64.242 394.525,64.242C399.958,64.242 406.547,64.242 406.547,64.242C406.547,64.242 408.584,57.975 410.262,52.808Z" style="fill:rgb(0,153,153);"/>
        </g>
    </g>
    <g id="Schirm" transform="matrix(0.873251,0,0,0.873251,133.849,177.294)">
        <path id="Schirm1" serif:id="Schirm" d="M437.854,62.273C437.856,62.274 447.391,68.749 452.533,71.312C461.503,75.784 477.019,80.322 491.673,89.1C498.581,93.238 507.63,102.487 514.179,109.693C515.402,110.965 515.647,112.89 514.78,114.428C513.913,115.965 512.14,116.753 510.418,116.365C502.385,114.555 492.572,112.926 488.146,114.48C483.61,116.073 479.678,122.783 477.09,128.414C476.444,129.822 475.043,130.73 473.494,130.746C472.599,130.755 471.748,130.465 471.058,129.95C460.968,124.798 447.028,118.535 437.854,118.843C429.266,119.132 415.407,124.874 403.892,130.429C403.668,130.518 403.44,130.585 403.21,130.63C402.889,130.71 402.555,130.749 402.214,130.746C400.666,130.73 399.265,129.822 398.619,128.414C396.03,122.783 392.098,116.073 387.563,114.48C383.137,112.926 373.324,114.555 365.29,116.365C363.568,116.753 361.795,115.965 360.929,114.428C360.062,112.89 360.306,110.965 361.53,109.693C368.079,102.487 377.128,93.238 384.036,89.1C398.69,80.322 414.206,75.784 423.176,71.312C428.318,68.749 437.854,62.273 437.854,62.273L437.854,62.273L437.854,62.273Z" style="fill:rgb(0,153,153);"/>
        <path id="Schirmstiel" d="M432.846,169.245C431.237,169.725 430.063,171.216 430.063,172.979L430.063,193.758L430.063,193.768L430.063,193.778L430.063,195.164C429.986,196.948 429.542,197.189 428.616,197.461C427.079,197.913 426.032,199.178 417.482,185.282C415.604,182.228 406.948,182.17 407.445,189.151C407.486,189.714 407.608,193.357 408.38,195.786C409.853,200.421 413.073,205.361 418.266,209.218C421.142,211.354 428.389,214.249 432.846,213.948C439.382,213.507 444.277,209.029 445.019,207.492C445.046,207.435 445.072,207.377 445.094,207.32C445.444,206.736 445.646,206.052 445.646,205.322L445.646,172.979C445.646,171.216 444.472,169.725 442.863,169.245L442.863,89.913C442.863,88.531 441.741,87.409 440.359,87.409L435.35,87.409C433.968,87.409 432.846,88.531 432.846,89.913L432.846,169.245Z" style="fill:rgb(0,153,153);"/>
        <g id="drop" transform="matrix(0.742019,0,0,0.742019,112.139,33.7301)">
            <path d="M365.522,135.329C364.983,134.349 363.954,133.74 362.835,133.74C361.717,133.74 360.687,134.348 360.148,135.328C355.243,143.921 345.335,162.417 345.335,171.65C345.335,181.309 353.177,189.151 362.835,189.151C372.494,189.151 380.336,181.309 380.336,171.65C380.336,162.417 370.428,143.921 365.522,135.329Z" style="fill:rgb(0,153,153);"/>
        </g>
    </g>
    <g id="sun" transform="matrix(0.873251,0,0,0.873251,-8.46743,-30.8382)">
        <g transform="matrix(1,0,0,1,-71.4659,48.6029)">
            <circle cx="378.772" cy="79.25" r="38.029" style="fill:rgb(0,153,153);"/>
        </g>
        <g transform="matrix(0.535356,0.309088,-0.417922,0.723862,189.379,-130.934)">
            <path d="M307.306,204.132C307.306,201.325 304.226,199.047 300.431,199.047L269.408,199.047C265.614,199.047 262.533,201.325 262.533,204.132C262.533,206.938 265.614,209.216 269.408,209.216L300.431,209.216C304.226,209.216 307.306,206.938 307.306,204.132Z" style="fill:rgb(0,153,153);"/>
        </g>
        <g transform="matrix(0.535356,-0.309088,0.417922,0.723862,20.0895,91.6899)">
            <path d="M307.306,204.132C307.306,201.325 304.226,199.047 300.431,199.047L269.408,199.047C265.614,199.047 262.533,201.325 262.533,204.132C262.533,206.938 265.614,209.216 269.408,209.216L300.431,209.216C304.226,209.216 307.306,206.938 307.306,204.132Z" style="fill:rgb(0,153,153);"/>
        </g>
        <g transform="matrix(-0.536397,-0.309689,0.417922,-0.723862,424.551,388.914)">
            <path d="M307.306,204.132C307.306,201.325 304.232,199.047 300.444,199.047L269.395,199.047C265.608,199.047 262.533,201.325 262.533,204.132C262.533,206.938 265.608,209.216 269.395,209.216L300.444,209.216C304.232,209.216 307.306,206.938 307.306,204.132Z" style="fill:rgb(0,153,153);"/>
        </g>
        <g transform="matrix(-0.536397,0.309689,-0.417922,-0.723862,595.848,163.869)">
            <path d="M307.306,204.132C307.306,201.325 304.232,199.047 300.444,199.047L269.395,199.047C265.608,199.047 262.533,201.325 262.533,204.132C262.533,206.938 265.608,209.216 269.395,209.216L300.444,209.216C304.232,209.216 307.306,206.938 307.306,204.132Z" style="fill:rgb(0,153,153);"/>
        </g>
        <g transform="matrix(-0.309689,0.536397,-0.723862,-0.417922,566.31,9.60846)">
            <path d="M307.306,204.132C307.306,201.325 304.232,199.047 300.444,199.047L269.395,199.047C265.608,199.047 262.533,201.325 262.533,204.132C262.533,206.938 265.608,209.216 269.395,209.216L300.444,209.216C304.232,209.216 307.306,206.938 307.306,204.132Z" style="fill:rgb(0,153,153);"/>
        </g>
        <g transform="matrix(0.309689,0.536397,-0.723862,0.417922,343.265,-160.689)">
            <path d="M307.306,204.132C307.306,201.325 304.232,199.047 300.444,199.047L269.395,199.047C265.608,199.047 262.533,201.325 262.533,204.132C262.533,206.938 265.608,209.216 269.395,209.216L300.444,209.216C304.232,209.216 307.306,206.938 307.306,204.132Z" style="fill:rgb(0,153,153);"/>
        </g>
        <g transform="matrix(0.309689,-0.536397,0.723862,0.417922,48.3022,246.097)">
            <path d="M307.306,204.132C307.306,201.325 304.232,199.047 300.444,199.047L269.395,199.047C265.608,199.047 262.533,201.325 262.533,204.132C262.533,206.938 265.608,209.216 269.395,209.216L300.444,209.216C304.232,209.216 307.306,206.938 307.306,204.132Z" style="fill:rgb(0,153,153);"/>
        </g>
        <g transform="matrix(-0.309689,-0.536397,0.723862,-0.417922,271.347,416.394)">
            <path d="M307.306,204.132C307.306,201.325 304.232,199.047 300.444,199.047L269.395,199.047C265.608,199.047 262.533,201.325 262.533,204.132C262.533,206.938 265.608,209.216 269.395,209.216L300.444,209.216C304.232,209.216 307.306,206.938 307.306,204.132Z" style="fill:rgb(0,153,153);"/>
        </g>
    </g>
    <g id="Snowman" transform="matrix(0.873251,0,0,0.873251,-1.0514,34.0515)">
        <path d="M281.207,297.371C276.124,292.431 272.964,285.522 272.964,277.882C272.964,262.883 285.141,250.705 300.141,250.705C315.14,250.705 327.318,262.883 327.318,277.882C327.318,285.848 323.883,293.018 318.415,297.991C329.701,304.591 337.289,316.838 337.289,330.844C337.289,351.833 320.249,368.873 299.26,368.873C278.271,368.873 261.231,351.833 261.231,330.844C261.231,316.387 269.315,303.803 281.207,297.371ZM353.399,356.461C354.843,356.461 356.015,357.633 356.015,359.076C356.015,360.519 354.843,361.691 353.399,361.691C351.956,361.691 350.784,360.519 350.784,359.076C350.784,357.633 351.956,356.461 353.399,356.461ZM249.126,344.571C253.273,344.571 256.639,347.938 256.639,352.084C256.639,356.231 253.273,359.598 249.126,359.598C244.98,359.598 241.613,356.231 241.613,352.084C241.613,347.938 244.98,344.571 249.126,344.571ZM345.683,325.742C348.499,325.742 350.784,328.028 350.784,330.844C350.784,333.66 348.499,335.946 345.683,335.946C342.867,335.946 340.581,333.66 340.581,330.844C340.581,328.028 342.867,325.742 345.683,325.742ZM254.23,316.57C255.673,316.57 256.845,317.742 256.845,319.185C256.845,320.628 255.673,321.8 254.23,321.8C252.787,321.8 251.615,320.628 251.615,319.185C251.615,317.742 252.787,316.57 254.23,316.57ZM350.808,309.311C352.8,309.324 354.414,310.945 354.414,312.94C354.414,314.936 352.8,316.557 350.808,316.57L350.784,316.57C348.781,316.57 347.155,314.943 347.155,312.94C347.155,310.937 348.781,309.311 350.784,309.311L350.808,309.311ZM338.17,281.499C342.316,281.499 345.683,284.866 345.683,289.012C345.683,293.159 342.316,296.525 338.17,296.525C334.023,296.525 330.657,293.159 330.657,289.012C330.657,284.866 334.023,281.499 338.17,281.499ZM251.615,275.213C254.431,275.213 256.717,277.499 256.717,280.315C256.717,283.131 254.431,285.417 251.615,285.417C248.799,285.417 246.513,283.131 246.513,280.315C246.513,277.499 248.799,275.213 251.615,275.213ZM262.834,261.061C264.837,261.061 266.463,262.688 266.463,264.691C266.463,266.694 264.837,268.32 262.834,268.32C260.83,268.32 259.204,266.694 259.204,264.691C259.204,262.688 260.83,261.061 262.834,261.061Z" style="fill:rgb(0,153,153);"/>
    </g>
    <g id="Ebene3" transform="matrix(1.19568,0,0,1.19568,-80.4761,201.645)">
        <g id="Ebene2">
            <g transform="matrix(0.947634,0,0,0.947634,-35.7705,-75.274)">
                <circle cx="190.433" cy="170.275" r="67.391" style="fill:white;"/>
            </g>
            <g transform="matrix(0.881569,0,0,0.881569,-23.1896,-64.0248)">
                <circle cx="190.433" cy="170.275" r="67.391" style="fill:rgb(221,87,70);"/>
            </g>
            <g transform="matrix(0.679247,0,0,0.679247,15.3393,-29.5742)">
                <circle cx="190.433" cy="170.275" r="67.391" style="fill:white;"/>
            </g>
        </g>
        <g transform="matrix(1,0,0,1,-19.6002,14.3768)">
            <path d="M159.306,76.857C159.271,76.894 159.238,76.938 159.206,76.989L147.204,96.278C146.911,96.749 147.106,97.364 147.64,97.65L152.173,96.712C154.446,96.247 153.884,96.428 154.178,95.957L164.012,78.975C164.39,78.322 165.148,76.778 165.148,76.778L164.915,76.772L165.148,76.772L179.206,97.984C179.464,98.399 180.016,98.553 180.437,98.328L181.388,94.852C181.868,93.112 181.801,93.573 181.543,93.158L171.962,78.687C171.713,78.312 171.18,77.421 170.861,76.882L170.854,75.464C170.854,75.224 170.653,75.029 170.406,75.029L159.753,75.029C159.506,75.029 159.306,75.224 159.306,75.464L159.306,76.857ZM161.463,51.251C161.185,51.396 160.556,51.737 160.407,51.929L145.943,70.616C145.589,71.073 145.628,71.696 146.029,72.006L150.149,71.284C152.214,70.926 151.689,71.081 152.043,70.624L159.306,60.03C159.305,66.393 159.305,74.418 159.305,74.418L170.783,74.418L170.783,58.43L174.704,61.207L174.704,71.468C174.704,71.765 175.116,72.006 175.623,72.006L178.439,70.415C179.853,69.619 179.533,69.847 179.533,69.55L179.615,59.309C179.615,59.272 179.59,59.237 179.547,59.203C179.53,59.181 179.506,59.158 179.472,59.132C178.19,58.148 169.651,51.894 169.651,51.894C169.573,51.816 169.175,51.58 169.055,51.51C168.707,51.209 168.313,50.953 167.883,50.753C166.919,50.305 165.905,49.936 165.161,49.936C164.392,49.936 163.294,50.332 162.256,50.805C161.975,50.931 161.71,51.081 161.463,51.251ZM162.431,39.644C164.926,39.644 166.951,41.669 166.951,44.164C166.951,46.658 164.926,48.684 162.431,48.684C159.937,48.684 157.911,46.658 157.911,44.164C157.911,41.669 159.937,39.644 162.431,39.644Z"/>
        </g>
    </g>
    <g id="Ebene31" serif:id="Ebene3" transform="matrix(1.19568,0,0,1.19568,-80.4761,-7.50522)">
        <g id="Ebene21" serif:id="Ebene2">
            <g transform="matrix(0.947634,0,0,0.947634,-35.7705,-75.274)">
                <circle cx="190.433" cy="170.275" r="67.391" style="fill:white;"/>
            </g>
            <g transform="matrix(0.881569,0,0,0.881569,-23.1896,-64.0248)">
                <circle cx="190.433" cy="170.275" r="67.391" style="fill:rgb(221,87,70);"/>
            </g>
            <g transform="matrix(0.679247,0,0,0.679247,15.3393,-29.5742)">
                <circle cx="190.433" cy="170.275" r="67.391" style="fill:white;"/>
            </g>
        </g>
        <g id="Ebene4" transform="matrix(1,0,0,1,-12.1904,-65.7428)">
            <g transform="matrix(0.730794,0,0,0.730794,33.43,42.3922)">
                <circle cx="138.645" cy="163.524" r="18.699" style="fill:none;stroke:black;stroke-width:2.86px;"/>
            </g>
            <g transform="matrix(0.730794,0,0,0.730794,77.6902,42.3922)">
                <circle cx="138.645" cy="163.524" r="18.699" style="fill:none;stroke:black;stroke-width:2.86px;"/>
            </g>
            <path d="M134.751,161.894C144.998,134.875 144.69,134.496 144.69,134.496C144.894,134.342 145.347,134.065 145.347,134.065L170.973,134.496L179.011,161.894L161.096,161.894L144.69,134.496C144.69,134.496 144.85,128.825 147.077,125.702C148.336,123.937 155.315,124.722 155.315,124.722" style="fill:none;stroke:black;stroke-width:2.09px;"/>
            <path d="M167.309,128.501C167.796,128.503 168.481,128.354 169.204,128.206C169.927,128.057 170.687,127.909 171.323,127.912C173.038,127.92 174.161,128.533 174.161,128.533L171.899,128.522L170.656,134.683L171.899,128.522C171.899,128.522 171.655,128.859 169.204,128.206" style="fill:none;stroke:black;stroke-width:2.09px;"/>
        </g>
    </g>
</svg>
